Mandali.ufo
<glyph name="exclam" format="1">
  <advance width="322"/>
  <unicode hex="0021"/>
  <outline>
    <contour>
      <point x="218" y="48" type="curve" smooth="yes" name="hr00"/>
      <point x="218" y="81"/>
      <point x="191" y="108"/>
      <point x="160" y="108" type="curve" smooth="yes"/>
      <point x="127" y="108"/>
      <point x="103" y="81"/>
      <point x="103" y="48" type="curve" smooth="yes"/>
      <point x="103" y="13"/>
      <point x="131" y="-16"/>
      <point x="160" y="-16" type="curve" smooth="yes"/>
      <point x="193" y="-16"/>
      <point x="218" y="12"/>
    </contour>
    <contour>
      <point x="216" y="633" type="line" smooth="yes"/>
      <point x="216" y="680"/>
      <point x="200" y="718"/>
      <point x="157" y="718" type="curve" smooth="yes"/>
      <point x="120" y="718"/>
      <point x="103" y="679"/>
      <point x="103" y="635" type="curve" smooth="yes"/>
      <point x="103" y="616"/>
      <point x="106" y="588"/>
      <point x="111" y="550" type="curve" smooth="yes"/>
      <point x="114" y="531"/>
      <point x="118" y="502"/>
      <point x="124" y="463" type="curve" smooth="yes"/>
      <point x="135" y="390"/>
      <point x="144" y="315"/>
      <point x="142" y="236" type="curve" smooth="yes"/>
      <point x="141" y="187" type="line"/>
      <point x="178" y="187" type="line"/>
      <point x="179" y="241" type="line"/>
      <point x="179" y="288" type="line" smooth="yes"/>
      <point x="179" y="305"/>
      <point x="179" y="340"/>
      <point x="182" y="368" type="curve"/>
      <point x="183" y="389"/>
      <point x="185" y="415"/>
      <point x="191" y="447" type="curve" smooth="yes"/>
      <point x="207" y="533" type="line"/>
      <point x="213" y="574" type="line"/>
      <point x="213" y="579"/>
      <point x="214" y="586"/>
      <point x="216" y="594" type="curve"/>
      <point x="216" y="611" type="line"/>
    </contour>
  </outline>
</glyph>
<glyph name="quotedbl" format="1">
  <advance width="401"/>
  <unicode hex="0022"/>
  <outline>
    <contour>
      <point x="297" y="529" type="line" name="hr00"/>
      <point x="326" y="862" type="line"/>
      <point x="252" y="862" type="line"/>
      <point x="252" y="529" type="line"/>
    </contour>
    <contour>
      <point x="114" y="529" type="line"/>
      <point x="142" y="862" type="line"/>
      <point x="69" y="862" type="line"/>
      <point x="69" y="529" type="line"/>
    </contour>
  </outline>
</glyph>
<glyph name="numbersign" format="1">
  <advance width="1012"/>
  <unicode hex="0023"/>
  <outline>
    <contour>
      <point x="586" y="280" type="line" name="hr00"/>
      <point x="345" y="280" type="line"/>
      <point x="427" y="521" type="line"/>
      <point x="664" y="521" type="line"/>
    </contour>
    <contour>
      <point x="350" y="521" type="line"/>
      <point x="273" y="280" type="line"/>
      <point x="69" y="280" type="line"/>
      <point x="69" y="205" type="line"/>
      <point x="249" y="205" type="line"/>
      <point x="180" y="-9" type="line"/>
      <point x="253" y="-9" type="line"/>
      <point x="324" y="205" type="line"/>
      <point x="563" y="205" type="line"/>
      <point x="495" y="-9" type="line"/>
      <point x="568" y="-9" type="line"/>
      <point x="637" y="205" type="line"/>
      <point x="856" y="205" type="line"/>
      <point x="856" y="280" type="line"/>
      <point x="659" y="280" type="line"/>
      <point x="739" y="521" type="line"/>
      <point x="936" y="521" type="line"/>
      <point x="936" y="594" type="line"/>
      <point x="761" y="594" type="line"/>
      <point x="821" y="778" type="line"/>
      <point x="746" y="778" type="line"/>
      <point x="687" y="594" type="line"/>
      <point x="447" y="594" type="line"/>
      <point x="507" y="778" type="line"/>
      <point x="432" y="778" type="line"/>
      <point x="374" y="594" type="line"/>
      <point x="149" y="594" type="line"/>
      <point x="149" y="521" type="line"/>
    </contour>
  </outline>
</glyph>
<glyph name="dollar" format="1">
  <advance width="745"/>
  <unicode hex="0024"/>
  <outline>
    <contour>
      <point x="330" y="489" type="line" name="hr00"/>
      <point x="234" y="513"/>
      <point x="170" y="577"/>
      <point x="170" y="648" type="curve" smooth="yes"/>
      <point x="170" y="680"/>
      <point x="185" y="708"/>
      <point x="215" y="731" type="curve" smooth="yes"/>
      <point x="246" y="755"/>
      <point x="284" y="767"/>
      <point x="330" y="767" type="curve"/>
    </contour>
    <contour>
      <point x="388" y="366" type="line"/>
      <point x="443" y="357"/>
      <point x="488" y="337"/>
      <point x="523" y="305" type="curve" smooth="yes"/>
      <point x="558" y="273"/>
      <point x="576" y="237"/>
      <point x="576" y="197" type="curve" smooth="yes"/>
      <point x="576" y="151"/>
      <point x="558" y="112"/>
      <point x="521" y="79" type="curve" smooth="yes"/>
      <point x="484" y="47"/>
      <point x="440" y="31"/>
      <point x="388" y="31" type="curve"/>
    </contour>
    <contour>
      <point x="105" y="604" type="curve" smooth="yes"/>
      <point x="105" y="557"/>
      <point x="125" y="513"/>
      <point x="166" y="472" type="curve" smooth="yes"/>
      <point x="207" y="431"/>
      <point x="261" y="401"/>
      <point x="330" y="382" type="curve"/>
      <point x="330" y="36" type="line"/>
      <point x="211" y="57"/>
      <point x="121" y="138"/>
      <point x="92" y="246" type="curve"/>
      <point x="69" y="246" type="line"/>
      <point x="104" y="-6" type="line"/>
      <point x="134" y="-6" type="line"/>
      <point x="134" y="7"/>
      <point x="160" y="21"/>
      <point x="193" y="21" type="curve" smooth="yes"/>
      <point x="209" y="21"/>
      <point x="232" y="16"/>
      <point x="261" y="5" type="curve" smooth="yes"/>
      <point x="290" y="-5"/>
      <point x="313" y="-10"/>
      <point x="330" y="-10" type="curve"/>
      <point x="330" y="-141" type="line"/>
      <point x="388" y="-141" type="line"/>
      <point x="388" y="-12" type="line"/>
      <point x="467" y="-9"/>
      <point x="534" y="16"/>
      <point x="588" y="64" type="curve" smooth="yes"/>
      <point x="642" y="113"/>
      <point x="669" y="170"/>
      <point x="669" y="237" type="curve" smooth="yes"/>
      <point x="669" y="284"/>
      <point x="643" y="328"/>
      <point x="591" y="372" type="curve" smooth="yes"/>
      <point x="540" y="415"/>
      <point x="472" y="449"/>
      <point x="388" y="472" type="curve"/>
      <point x="388" y="767" type="line"/>
      <point x="505" y="748"/>
      <point x="596" y="670"/>
      <point x="625" y="566" type="curve"/>
      <point x="641" y="566" type="line"/>
      <point x="621" y="811" type="line"/>
      <point x="589" y="811" type="line"/>
      <point x="584" y="791"/>
      <point x="561" y="774"/>
      <point x="538" y="774" type="curve" smooth="yes"/>
      <point x="521" y="774"/>
      <point x="496" y="779"/>
      <point x="463" y="790" type="curve" smooth="yes"/>
      <point x="431" y="801"/>
      <point x="406" y="806"/>
      <point x="388" y="806" type="curve"/>
      <point x="388" y="945" type="line"/>
      <point x="330" y="945" type="line"/>
      <point x="330" y="811" type="line"/>
      <point x="266" y="810"/>
      <point x="212" y="790"/>
      <point x="169" y="749" type="curve" smooth="yes"/>
      <point x="126" y="708"/>
      <point x="105" y="660"/>
    </contour>
  </outline>
</glyph>
<glyph name="percent" format="1">
  <advance width="759"/>
  <unicode hex="0025"/>
  <outline>
    <contour>
      <point x="662" y="268" type="curve" smooth="yes" name="hr00"/>
      <point x="662" y="226"/>
      <point x="650" y="182"/>
      <point x="625" y="136" type="curve" smooth="yes"/>
      <point x="601" y="90"/>
      <point x="572" y="62"/>
      <point x="537" y="51" type="curve" smooth="yes"/>
      <point x="526" y="47"/>
      <point x="517" y="45"/>
      <point x="511" y="45" type="curve" smooth="yes"/>
      <point x="480" y="45"/>
      <point x="456" y="68"/>
      <point x="456" y="108" type="curve" smooth="yes"/>
      <point x="456" y="121"/>
      <point x="460" y="139"/>
      <point x="467" y="161" type="curve"/>
      <point x="504" y="246" type="line"/>
      <point x="521" y="277"/>
      <point x="533" y="297"/>
      <point x="542" y="308" type="curve" smooth="yes"/>
      <point x="562" y="334"/>
      <point x="581" y="347"/>
      <point x="598" y="347" type="curve" smooth="yes"/>
      <point x="613" y="347"/>
      <point x="624" y="343"/>
      <point x="631" y="336" type="curve"/>
      <point x="652" y="321"/>
      <point x="662" y="299"/>
    </contour>
    <contour>
      <point x="310" y="563" type="curve" smooth="yes"/>
      <point x="310" y="520"/>
      <point x="298" y="475"/>
      <point x="274" y="429" type="curve" smooth="yes"/>
      <point x="250" y="383"/>
      <point x="221" y="354"/>
      <point x="187" y="342" type="curve" smooth="yes"/>
      <point x="177" y="339"/>
      <point x="169" y="337"/>
      <point x="163" y="337" type="curve" smooth="yes"/>
      <point x="130" y="337"/>
      <point x="104" y="361"/>
      <point x="104" y="401" type="curve" smooth="yes"/>
      <point x="104" y="418"/>
      <point x="110" y="441"/>
      <point x="122" y="471" type="curve" smooth="yes"/>
      <point x="130" y="489"/>
      <point x="140" y="511"/>
      <point x="154" y="538" type="curve" smooth="yes"/>
      <point x="168" y="565"/>
      <point x="181" y="587"/>
      <point x="191" y="600" type="curve" smooth="yes"/>
      <point x="210" y="627"/>
      <point x="230" y="639"/>
      <point x="248" y="639" type="curve" smooth="yes"/>
      <point x="261" y="639"/>
      <point x="272" y="636"/>
      <point x="281" y="629" type="curve"/>
      <point x="300" y="610"/>
      <point x="310" y="588"/>
    </contour>
    <contour>
      <point x="688" y="289" type="curve"/>
      <point x="680" y="348"/>
      <point x="638" y="382"/>
      <point x="586" y="382" type="curve" smooth="yes"/>
      <point x="535" y="382"/>
      <point x="489" y="354"/>
      <point x="448" y="298" type="curve" smooth="yes"/>
      <point x="407" y="243"/>
      <point x="386" y="187"/>
      <point x="386" y="131" type="curve" smooth="yes"/>
      <point x="386" y="55"/>
      <point x="431" y="12"/>
      <point x="500" y="12" type="curve" smooth="yes"/>
      <point x="545" y="12"/>
      <point x="583" y="31"/>
      <point x="616" y="69" type="curve" smooth="yes"/>
      <point x="644" y="102"/>
      <point x="666" y="144"/>
      <point x="682" y="197" type="curve" smooth="yes"/>
      <point x="687" y="215"/>
      <point x="690" y="234"/>
      <point x="690" y="255" type="curve" smooth="yes"/>
      <point x="690" y="266"/>
      <point x="691" y="277"/>
    </contour>
    <contour>
      <point x="523" y="690" type="line"/>
      <point x="518" y="683"/>
      <point x="483" y="616"/>
      <point x="417" y="490" type="curve" smooth="yes"/>
      <point x="333" y="332"/>
      <point x="276" y="223"/>
      <point x="245" y="164" type="curve" smooth="yes"/>
      <point x="215" y="105"/>
      <point x="186" y="49"/>
      <point x="157" y="-5" type="curve"/>
      <point x="202" y="-5" type="line"/>
      <point x="567" y="690" type="line"/>
    </contour>
    <contour>
      <point x="339" y="582" type="curve" smooth="yes"/>
      <point x="328" y="644"/>
      <point x="293" y="675"/>
      <point x="235" y="675" type="curve" smooth="yes"/>
      <point x="184" y="675"/>
      <point x="138" y="648"/>
      <point x="96" y="593" type="curve" smooth="yes"/>
      <point x="54" y="538"/>
      <point x="33" y="482"/>
      <point x="33" y="425" type="curve" smooth="yes"/>
      <point x="33" y="348"/>
      <point x="79" y="303"/>
      <point x="151" y="303" type="curve" smooth="yes"/>
      <point x="195" y="303"/>
      <point x="233" y="323"/>
      <point x="266" y="362" type="curve" smooth="yes"/>
      <point x="291" y="393"/>
      <point x="313" y="435"/>
      <point x="330" y="490" type="curve"/>
      <point x="337" y="507"/>
      <point x="340" y="528"/>
      <point x="340" y="553" type="curve" smooth="yes"/>
      <point x="340" y="564"/>
      <point x="340" y="574"/>
    </contour>
  </outline>
</glyph>
<glyph name="ampersand" format="1">
  <advance width="917"/>
  <unicode hex="0026"/>
  <outline>
    <contour>
      <point x="449" y="109" type="curve" name="hr00"/>
      <point x="404" y="70"/>
      <point x="347" y="49"/>
      <point x="304" y="49" type="curve" smooth="yes"/>
      <point x="251" y="49"/>
      <point x="205" y="70"/>
      <point x="167" y="112" type="curve" smooth="yes"/>
      <point x="129" y="154"/>
      <point x="110" y="204"/>
      <point x="110" y="261" type="curve" smooth="yes"/>
      <point x="110" y="300"/>
      <point x="118" y="334"/>
      <point x="135" y="363" type="curve" smooth="yes"/>
      <point x="149" y="387"/>
      <point x="173" y="413"/>
      <point x="207" y="441" type="curve"/>
      <point x="233" y="392"/>
      <point x="261" y="347"/>
      <point x="290" y="306" type="curve" smooth="yes"/>
      <point x="326" y="255"/>
      <point x="379" y="189"/>
    </contour>
    <contour>
      <point x="374" y="700" type="curve" smooth="yes"/>
      <point x="374" y="673"/>
      <point x="362" y="643"/>
      <point x="337" y="610" type="curve" smooth="yes"/>
      <point x="313" y="577"/>
      <point x="288" y="551"/>
      <point x="262" y="533" type="curve"/>
      <point x="255" y="557"/>
      <point x="248" y="583"/>
      <point x="243" y="611" type="curve" smooth="yes"/>
      <point x="238" y="639"/>
      <point x="235" y="660"/>
      <point x="235" y="675" type="curve" smooth="yes"/>
      <point x="235" y="743"/>
      <point x="251" y="785"/>
      <point x="310" y="785" type="curve" smooth="yes"/>
      <point x="350" y="785"/>
      <point x="374" y="740"/>
    </contour>
    <contour>
      <point x="825" y="95" type="line"/>
      <point x="802" y="84"/>
      <point x="787" y="78"/>
      <point x="779" y="76" type="curve" smooth="yes"/>
      <point x="772" y="75"/>
      <point x="763" y="74"/>
      <point x="752" y="74" type="curve" smooth="yes"/>
      <point x="723" y="74"/>
      <point x="690" y="81"/>
      <point x="653" y="97" type="curve" smooth="yes"/>
      <point x="626" y="108"/>
      <point x="593" y="128"/>
      <point x="554" y="153" type="curve"/>
      <point x="611" y="218"/>
      <point x="646" y="286"/>
      <point x="646" y="362" type="curve"/>
      <point x="645" y="371"/>
      <point x="647" y="399"/>
      <point x="640" y="411" type="curve"/>
      <point x="662" y="415"/>
      <point x="681" y="417"/>
      <point x="698" y="417" type="curve" smooth="yes"/>
      <point x="734" y="417"/>
      <point x="769" y="413"/>
      <point x="800" y="406" type="curve"/>
      <point x="800" y="434"/>
      <point x="806" y="459"/>
      <point x="817" y="481" type="curve"/>
      <point x="594" y="478" type="line" smooth="yes"/>
      <point x="554" y="477"/>
      <point x="516" y="477"/>
      <point x="480" y="481" type="curve"/>
      <point x="448" y="428" type="line"/>
      <point x="453" y="420" type="line"/>
      <point x="523" y="416" type="line" smooth="yes"/>
      <point x="540" y="415"/>
      <point x="549" y="413"/>
      <point x="551" y="412" type="curve" smooth="yes"/>
      <point x="554" y="411"/>
      <point x="557" y="409"/>
      <point x="562" y="404" type="curve"/>
      <point x="572" y="389"/>
      <point x="577" y="366"/>
      <point x="577" y="337" type="curve" smooth="yes"/>
      <point x="577" y="290"/>
      <point x="560" y="229"/>
      <point x="520" y="178" type="curve"/>
      <point x="469" y="235"/>
      <point x="425" y="284"/>
      <point x="391" y="328" type="curve" smooth="yes"/>
      <point x="350" y="380"/>
      <point x="314" y="437"/>
      <point x="281" y="494" type="curve"/>
      <point x="331" y="529"/>
      <point x="369" y="564"/>
      <point x="395" y="598" type="curve" smooth="yes"/>
      <point x="431" y="643"/>
      <point x="449" y="689"/>
      <point x="449" y="736" type="curve" smooth="yes"/>
      <point x="449" y="811"/>
      <point x="414" y="849"/>
      <point x="344" y="849" type="curve" smooth="yes"/>
      <point x="321" y="849"/>
      <point x="299" y="843"/>
      <point x="281" y="828" type="curve" smooth="yes"/>
      <point x="250" y="802" type="line"/>
      <point x="192" y="748" type="line"/>
      <point x="168" y="720"/>
      <point x="156" y="683"/>
      <point x="156" y="638" type="curve" smooth="yes"/>
      <point x="156" y="594"/>
      <point x="168" y="535"/>
      <point x="189" y="476" type="curve"/>
      <point x="136" y="447"/>
      <point x="94" y="412"/>
      <point x="63" y="371" type="curve" smooth="yes"/>
      <point x="28" y="324"/>
      <point x="11" y="273"/>
      <point x="11" y="218" type="curve" smooth="yes"/>
      <point x="11" y="151"/>
      <point x="33" y="94"/>
      <point x="77" y="49" type="curve" smooth="yes"/>
      <point x="121" y="4"/>
      <point x="179" y="-18"/>
      <point x="252" y="-18" type="curve" smooth="yes"/>
      <point x="335" y="-18"/>
      <point x="411" y="15"/>
      <point x="480" y="78" type="curve"/>
      <point x="509" y="53"/>
      <point x="543" y="31"/>
      <point x="583" y="12" type="curve" smooth="yes"/>
      <point x="624" y="-7"/>
      <point x="656" y="-17"/>
      <point x="681" y="-17" type="curve"/>
      <point x="696" y="-13"/>
      <point x="722" y="-15"/>
      <point x="734" y="-12" type="curve"/>
      <point x="753" y="8"/>
      <point x="771" y="25"/>
      <point x="789" y="40" type="curve"/>
      <point x="830" y="67" type="line"/>
    </contour>
  </outline>
</glyph>
<glyph name="quotesingle" format="1">
  <advance width="217"/>
  <unicode hex="0027"/>
  <outline>
    <contour>
      <point x="114" y="529" type="line" name="hr00"/>
      <point x="142" y="862" type="line"/>
      <point x="69" y="862" type="line"/>
      <point x="69" y="529" type="line"/>
    </contour>
  </outline>
</glyph>
<glyph name="parenleft" format="1">
  <advance width="421"/>
  <unicode hex="0028"/>
  <outline>
    <contour>
      <point x="69" y="258" type="curve" smooth="yes" name="hr00"/>
      <point x="69" y="143"/>
      <point x="91" y="36"/>
      <point x="135" y="-64" type="curve" smooth="yes"/>
      <point x="179" y="-165"/>
      <point x="241" y="-249"/>
      <point x="320" y="-316" type="curve"/>
      <point x="344" y="-303" type="line"/>
      <point x="209" y="-143"/>
      <point x="134" y="59"/>
      <point x="134" y="258" type="curve" smooth="yes"/>
      <point x="134" y="461"/>
      <point x="209" y="661"/>
      <point x="344" y="820" type="curve"/>
      <point x="320" y="833" type="line"/>
      <point x="241" y="767"/>
      <point x="179" y="684"/>
      <point x="135" y="583" type="curve" smooth="yes"/>
      <point x="91" y="483"/>
      <point x="69" y="375"/>
    </contour>
  </outline>
</glyph>
<glyph name="parenright" format="1">
  <advance width="421"/>
  <unicode hex="0029"/>
  <outline>
    <contour>
      <point x="344" y="258" type="curve" smooth="yes" name="hr00"/>
      <point x="344" y="375"/>
      <point x="321" y="483"/>
      <point x="278" y="583" type="curve" smooth="yes"/>
      <point x="234" y="684"/>
      <point x="173" y="767"/>
      <point x="94" y="833" type="curve"/>
      <point x="69" y="820" type="line"/>
      <point x="204" y="661"/>
      <point x="279" y="461"/>
      <point x="279" y="258" type="curve" smooth="yes"/>
      <point x="279" y="59"/>
      <point x="204" y="-143"/>
      <point x="69" y="-303" type="curve"/>
      <point x="94" y="-316" type="line"/>
      <point x="173" y="-249"/>
      <point x="234" y="-165"/>
      <point x="278" y="-64" type="curve" smooth="yes"/>
      <point x="321" y="36"/>
      <point x="344" y="143"/>
    </contour>
  </outline>
</glyph>
<glyph name="asterisk" format="1">
  <advance width="742"/>
  <unicode hex="002A"/>
  <outline>
    <contour>
      <point x="242" y="360" type="line" name="hr00"/>
      <point x="0" y="360" type="line"/>
      <point x="197" y="214" type="line"/>
      <point x="121" y="-18" type="line"/>
      <point x="315" y="126" type="line"/>
      <point x="509" y="-18" type="line"/>
      <point x="434" y="214" type="line"/>
      <point x="629" y="360" type="line"/>
      <point x="386" y="360" type="line"/>
      <point x="315" y="587" type="line"/>
    </contour>
  </outline>
</glyph>
<glyph name="plus" format="1">
  <advance width="614"/>
  <unicode hex="002B"/>
  <outline>
    <contour>
      <point x="69" y="200" type="line" name="hr00"/>
      <point x="271" y="200" type="line"/>
      <point x="271" y="-3" type="line"/>
      <point x="332" y="-3" type="line"/>
      <point x="332" y="200" type="line"/>
      <point x="537" y="200" type="line"/>
      <point x="537" y="261" type="line"/>
      <point x="332" y="261" type="line"/>
      <point x="332" y="464" type="line"/>
      <point x="271" y="464" type="line"/>
      <point x="271" y="261" type="line"/>
      <point x="69" y="261" type="line"/>
    </contour>
  </outline>
</glyph>
<glyph name="comma" format="1">
  <advance width="252"/>
  <unicode hex="002C"/>
  <outline>
    <contour>
      <point x="179" y="8" type="curve" name="hr00"/>
      <point x="180" y="12"/>
      <point x="181" y="18"/>
      <point x="181" y="27" type="curve" smooth="yes"/>
      <point x="181" y="72"/>
      <point x="159" y="104"/>
      <point x="116" y="104" type="curve" smooth="yes"/>
      <point x="105" y="104"/>
      <point x="93" y="98"/>
      <point x="81" y="85" type="curve" smooth="yes"/>
      <point x="70" y="72"/>
      <point x="64" y="60"/>
      <point x="64" y="49" type="curve" smooth="yes"/>
      <point x="64" y="28"/>
      <point x="71" y="14"/>
      <point x="85" y="5" type="curve"/>
      <point x="104" y="0" type="line"/>
      <point x="122" y="0" type="line"/>
      <point x="131" y="1" type="line"/>
      <point x="138" y="-1" type="line"/>
      <point x="141" y="-4"/>
      <point x="142" y="-8"/>
      <point x="142" y="-14" type="curve" smooth="yes"/>
      <point x="142" y="-26"/>
      <point x="136" y="-41"/>
      <point x="125" y="-58" type="curve" smooth="yes"/>
      <point x="118" y="-69"/>
      <point x="111" y="-79"/>
      <point x="102" y="-88" type="curve" smooth="yes"/>
      <point x="78" y="-111" type="line"/>
      <point x="91" y="-130" type="line"/>
      <point x="113" y="-113"/>
      <point x="129" y="-99"/>
      <point x="140" y="-88" type="curve" smooth="yes"/>
      <point x="166" y="-62"/>
      <point x="179" y="-30"/>
    </contour>
  </outline>
</glyph>
<glyph name="hyphen" format="1">
  <advance width="562"/>
  <unicode hex="002D"/>
  <outline>
    <contour>
      <point x="69" y="198" type="line" name="hr00"/>
      <point x="486" y="198" type="line"/>
      <point x="486" y="257" type="line"/>
      <point x="69" y="257" type="line"/>
    </contour>
  </outline>
</glyph>
<glyph name="period" format="1">
  <advance width="252"/>
  <unicode hex="002E"/>
  <outline>
    <contour>
      <point x="169" y="52" type="curve" smooth="yes" name="hr00"/>
      <point x="169" y="80"/>
      <point x="145" y="105"/>
      <point x="120" y="105" type="curve" smooth="yes"/>
      <point x="91" y="105"/>
      <point x="68" y="80"/>
      <point x="68" y="52" type="curve" smooth="yes"/>
      <point x="68" y="24"/>
      <point x="91" y="-1"/>
      <point x="120" y="-1" type="curve" smooth="yes"/>
      <point x="145" y="-1"/>
      <point x="169" y="24"/>
    </contour>
  </outline>
</glyph>
<glyph name="slash" format="1">
  <advance width="646"/>
  <unicode hex="002F"/>
  <outline>
    <contour>
      <point x="121" y="-148" type="line" name="hr00"/>
      <point x="568" y="749" type="line"/>
      <point x="517" y="749" type="line"/>
      <point x="69" y="-148" type="line"/>
    </contour>
  </outline>
</glyph>
<glyph name="zero" format="1">
  <advance width="563"/>
  <unicode hex="0030"/>
  <outline>
    <contour>
      <point x="279" y="17" type="curve" smooth="yes" name="hr00"/>
      <point x="232" y="17"/>
      <point x="195" y="47"/>
      <point x="168" y="107" type="curve" smooth="yes"/>
      <point x="141" y="168"/>
      <point x="127" y="248"/>
      <point x="127" y="347" type="curve" smooth="yes"/>
      <point x="127" y="443"/>
      <point x="141" y="521"/>
      <point x="168" y="580" type="curve" smooth="yes"/>
      <point x="195" y="639"/>
      <point x="232" y="669"/>
      <point x="279" y="669" type="curve" smooth="yes"/>
      <point x="324" y="669"/>
      <point x="360" y="639"/>
      <point x="387" y="580" type="curve" smooth="yes"/>
      <point x="414" y="521"/>
      <point x="428" y="443"/>
      <point x="428" y="347" type="curve" smooth="yes"/>
      <point x="428" y="248"/>
      <point x="414" y="168"/>
      <point x="387" y="107" type="curve" smooth="yes"/>
      <point x="360" y="47"/>
      <point x="324" y="17"/>
    </contour>
    <contour>
      <point x="279" y="-16" type="curve" smooth="yes"/>
      <point x="352" y="-16"/>
      <point x="410" y="17"/>
      <point x="454" y="82" type="curve" smooth="yes"/>
      <point x="499" y="148"/>
      <point x="521" y="236"/>
      <point x="521" y="347" type="curve" smooth="yes"/>
      <point x="521" y="456"/>
      <point x="498" y="544"/>
      <point x="454" y="609" type="curve" smooth="yes"/>
      <point x="409" y="675"/>
      <point x="352" y="708"/>
      <point x="279" y="708" type="curve" smooth="yes"/>
      <point x="206" y="708"/>
      <point x="146" y="675"/>
      <point x="101" y="609" type="curve" smooth="yes"/>
      <point x="56" y="544"/>
      <point x="34" y="456"/>
      <point x="34" y="347" type="curve" smooth="yes"/>
      <point x="34" y="236"/>
      <point x="56" y="148"/>
      <point x="101" y="82" type="curve" smooth="yes"/>
      <point x="146" y="17"/>
      <point x="206" y="-16"/>
    </contour>
  </outline>
</glyph>
<glyph name="one" format="1">
  <advance width="563"/>
  <unicode hex="0031"/>
  <outline>
    <contour>
      <point x="423" y="-6" type="line" name="hr00"/>
      <point x="423" y="23" type="line"/>
      <point x="387" y="23" type="line" smooth="yes"/>
      <point x="354" y="23"/>
      <point x="325" y="46"/>
      <point x="325" y="75" type="curve" smooth="yes"/>
      <point x="325" y="706" type="line"/>
      <point x="134" y="611" type="line"/>
      <point x="146" y="582" type="line"/>
      <point x="169" y="595"/>
      <point x="194" y="605"/>
      <point x="209" y="605" type="curve" smooth="yes"/>
      <point x="229" y="605"/>
      <point x="242" y="595"/>
      <point x="242" y="582" type="curve" smooth="yes"/>
      <point x="242" y="70" type="line" smooth="yes"/>
      <point x="242" y="46"/>
      <point x="208" y="23"/>
      <point x="171" y="23" type="curve" smooth="yes"/>
      <point x="133" y="23" type="line"/>
      <point x="133" y="-6" type="line"/>
    </contour>
  </outline>
</glyph>
<glyph name="two" format="1">
  <advance width="561"/>
  <unicode hex="0032"/>
  <outline>
    <contour>
      <point x="457" y="-6" type="line" name="hr00"/>
      <point x="509" y="117" type="line"/>
      <point x="484" y="122" type="line"/>
      <point x="472" y="91"/>
      <point x="447" y="67"/>
      <point x="419" y="67" type="curve" smooth="yes"/>
      <point x="152" y="67" type="line"/>
      <point x="262" y="198"/>
      <point x="340" y="298"/>
      <point x="387" y="366" type="curve" smooth="yes"/>
      <point x="434" y="435"/>
      <point x="457" y="491"/>
      <point x="457" y="534" type="curve" smooth="yes"/>
      <point x="457" y="581"/>
      <point x="439" y="621"/>
      <point x="402" y="656" type="curve" smooth="yes"/>
      <point x="366" y="690"/>
      <point x="323" y="708"/>
      <point x="273" y="708" type="curve" smooth="yes"/>
      <point x="217" y="708"/>
      <point x="167" y="689"/>
      <point x="123" y="650" type="curve" smooth="yes"/>
      <point x="80" y="611"/>
      <point x="53" y="564"/>
      <point x="42" y="507" type="curve"/>
      <point x="72" y="500" type="line"/>
      <point x="78" y="538"/>
      <point x="96" y="570"/>
      <point x="127" y="596" type="curve" smooth="yes"/>
      <point x="158" y="622"/>
      <point x="193" y="635"/>
      <point x="233" y="635" type="curve" smooth="yes"/>
      <point x="272" y="635"/>
      <point x="306" y="619"/>
      <point x="333" y="588" type="curve" smooth="yes"/>
      <point x="360" y="557"/>
      <point x="374" y="519"/>
      <point x="374" y="474" type="curve" smooth="yes"/>
      <point x="374" y="417"/>
      <point x="324" y="329"/>
      <point x="224" y="211" type="curve" smooth="yes"/>
      <point x="41" y="-6" type="line"/>
    </contour>
  </outline>
</glyph>
<glyph name="three" format="1">
  <advance width="562"/>
  <unicode hex="0033"/>
  <outline>
    <contour>
      <point x="199" y="-30" type="curve" smooth="yes" name="hr00"/>
      <point x="278" y="-30"/>
      <point x="344" y="-5"/>
      <point x="399" y="44" type="curve" smooth="yes"/>
      <point x="454" y="94"/>
      <point x="481" y="154"/>
      <point x="481" y="224" type="curve" smooth="yes"/>
      <point x="481" y="295"/>
      <point x="432" y="360"/>
      <point x="344" y="395" type="curve"/>
      <point x="411" y="428"/>
      <point x="446" y="493"/>
      <point x="446" y="568" type="curve" smooth="yes"/>
      <point x="446" y="603"/>
      <point x="430" y="633"/>
      <point x="397" y="657" type="curve" smooth="yes"/>
      <point x="364" y="681"/>
      <point x="325" y="693"/>
      <point x="278" y="693" type="curve" smooth="yes"/>
      <point x="233" y="693"/>
      <point x="191" y="680"/>
      <point x="154" y="653" type="curve" smooth="yes"/>
      <point x="117" y="627"/>
      <point x="90" y="593"/>
      <point x="73" y="550" type="curve"/>
      <point x="103" y="528" type="line"/>
      <point x="118" y="561"/>
      <point x="139" y="587"/>
      <point x="166" y="608" type="curve" smooth="yes"/>
      <point x="193" y="629"/>
      <point x="221" y="640"/>
      <point x="248" y="640" type="curve" smooth="yes"/>
      <point x="316" y="640"/>
      <point x="369" y="591"/>
      <point x="369" y="530" type="curve" smooth="yes"/>
      <point x="369" y="488"/>
      <point x="353" y="451"/>
      <point x="321" y="418" type="curve" smooth="yes"/>
      <point x="289" y="385"/>
      <point x="249" y="366"/>
      <point x="201" y="359" type="curve"/>
      <point x="201" y="336" type="line"/>
      <point x="248" y="336" type="line" smooth="yes"/>
      <point x="289" y="336"/>
      <point x="325" y="320"/>
      <point x="354" y="288" type="curve" smooth="yes"/>
      <point x="383" y="257"/>
      <point x="398" y="219"/>
      <point x="398" y="174" type="curve" smooth="yes"/>
      <point x="398" y="131"/>
      <point x="385" y="95"/>
      <point x="358" y="64" type="curve" smooth="yes"/>
      <point x="332" y="33"/>
      <point x="300" y="18"/>
      <point x="261" y="18" type="curve" smooth="yes"/>
      <point x="243" y="18"/>
      <point x="218" y="24"/>
      <point x="185" y="37" type="curve" smooth="yes"/>
      <point x="153" y="50"/>
      <point x="128" y="57"/>
      <point x="111" y="57" type="curve" smooth="yes"/>
      <point x="90" y="57"/>
      <point x="73" y="44"/>
      <point x="73" y="27" type="curve" smooth="yes"/>
      <point x="73" y="-4"/>
      <point x="126" y="-30"/>
    </contour>
  </outline>
</glyph>
<glyph name="four" format="1">
  <advance width="563"/>
  <unicode hex="0034"/>
  <outline>
    <contour>
      <point x="340" y="594" type="line" name="hr00"/>
      <point x="340" y="236" type="line"/>
      <point x="78" y="236" type="line"/>
    </contour>
    <contour>
      <point x="412" y="-6" type="line"/>
      <point x="412" y="171" type="line"/>
      <point x="521" y="171" type="line"/>
      <point x="521" y="236" type="line"/>
      <point x="412" y="236" type="line"/>
      <point x="412" y="699" type="line"/>
      <point x="368" y="699" type="line"/>
      <point x="34" y="237" type="line"/>
      <point x="34" y="171" type="line"/>
      <point x="340" y="171" type="line"/>
      <point x="340" y="-6" type="line"/>
    </contour>
  </outline>
</glyph>
<glyph name="five" format="1">
  <advance width="562"/>
  <unicode hex="0035"/>
  <outline>
    <contour>
      <point x="190" y="-16" type="curve" smooth="yes" name="hr00"/>
      <point x="374" y="-16"/>
      <point x="483" y="81"/>
      <point x="483" y="249" type="curve" smooth="yes"/>
      <point x="483" y="305"/>
      <point x="454" y="358"/>
      <point x="397" y="409" type="curve" smooth="yes"/>
      <point x="340" y="460"/>
      <point x="265" y="497"/>
      <point x="170" y="522" type="curve"/>
      <point x="222" y="625" type="line"/>
      <point x="454" y="625" type="line"/>
      <point x="492" y="718" type="line"/>
      <point x="476" y="718" type="line"/>
      <point x="465" y="705"/>
      <point x="449" y="699"/>
      <point x="436" y="699" type="curve" smooth="yes"/>
      <point x="212" y="699" type="line"/>
      <point x="95" y="448" type="line"/>
      <point x="187" y="431"/>
      <point x="264" y="400"/>
      <point x="326" y="354" type="curve" smooth="yes"/>
      <point x="388" y="309"/>
      <point x="419" y="260"/>
      <point x="419" y="209" type="curve" smooth="yes"/>
      <point x="419" y="158"/>
      <point x="404" y="114"/>
      <point x="374" y="79" type="curve" smooth="yes"/>
      <point x="345" y="44"/>
      <point x="310" y="26"/>
      <point x="269" y="26" type="curve" smooth="yes"/>
      <point x="237" y="26"/>
      <point x="214" y="31"/>
      <point x="199" y="39" type="curve" smooth="yes"/>
      <point x="151" y="65"/>
      <point x="124" y="78"/>
      <point x="112" y="78" type="curve" smooth="yes"/>
      <point x="87" y="78"/>
      <point x="64" y="61"/>
      <point x="64" y="41" type="curve" smooth="yes"/>
      <point x="64" y="10"/>
      <point x="117" y="-16"/>
    </contour>
  </outline>
</glyph>
<glyph name="six" format="1">
  <advance width="562"/>
  <unicode hex="0036"/>
  <outline>
    <contour>
      <point x="300" y="16" type="curve" smooth="yes" name="hr00"/>
      <point x="256" y="16"/>
      <point x="218" y="39"/>
      <point x="186" y="86" type="curve" smooth="yes"/>
      <point x="155" y="133"/>
      <point x="139" y="190"/>
      <point x="139" y="257" type="curve" smooth="yes"/>
      <point x="139" y="293"/>
      <point x="145" y="326"/>
      <point x="154" y="358" type="curve"/>
      <point x="181" y="390"/>
      <point x="220" y="408"/>
      <point x="260" y="408" type="curve" smooth="yes"/>
      <point x="304" y="408"/>
      <point x="342" y="387"/>
      <point x="373" y="346" type="curve" smooth="yes"/>
      <point x="405" y="305"/>
      <point x="421" y="256"/>
      <point x="421" y="198" type="curve" smooth="yes"/>
      <point x="421" y="148"/>
      <point x="409" y="105"/>
      <point x="386" y="69" type="curve" smooth="yes"/>
      <point x="363" y="34"/>
      <point x="334" y="16"/>
    </contour>
    <contour>
      <point x="291" y="-16" type="curve" smooth="yes"/>
      <point x="350" y="-16"/>
      <point x="401" y="10"/>
      <point x="443" y="62" type="curve" smooth="yes"/>
      <point x="486" y="114"/>
      <point x="507" y="176"/>
      <point x="507" y="249" type="curve" smooth="yes"/>
      <point x="507" y="302"/>
      <point x="488" y="346"/>
      <point x="449" y="385" type="curve" smooth="yes"/>
      <point x="410" y="424"/>
      <point x="364" y="443"/>
      <point x="309" y="443" type="curve" smooth="yes"/>
      <point x="244" y="443"/>
      <point x="196" y="430"/>
      <point x="167" y="395" type="curve"/>
      <point x="189" y="481"/>
      <point x="228" y="550"/>
      <point x="285" y="601" type="curve" smooth="yes"/>
      <point x="342" y="653"/>
      <point x="405" y="683"/>
      <point x="475" y="690" type="curve"/>
      <point x="475" y="718" type="line"/>
      <point x="358" y="718"/>
      <point x="257" y="675"/>
      <point x="172" y="589" type="curve" smooth="yes"/>
      <point x="88" y="503"/>
      <point x="46" y="399"/>
      <point x="46" y="277" type="curve" smooth="yes"/>
      <point x="46" y="196"/>
      <point x="70" y="127"/>
      <point x="118" y="70" type="curve" smooth="yes"/>
      <point x="166" y="13"/>
      <point x="224" y="-16"/>
    </contour>
  </outline>
</glyph>
<glyph name="seven" format="1">
  <advance width="561"/>
  <unicode hex="0037"/>
  <outline>
    <contour>
      <point x="273" y="-6" type="line" name="hr00"/>
      <point x="503" y="699" type="line"/>
      <point x="100" y="699" type="line"/>
      <point x="51" y="560" type="line"/>
      <point x="61" y="548" type="line"/>
      <point x="82" y="592"/>
      <point x="120" y="625"/>
      <point x="157" y="625" type="curve" smooth="yes"/>
      <point x="426" y="625" type="line"/>
      <point x="213" y="-6" type="line"/>
    </contour>
  </outline>
</glyph>
<glyph name="eight" format="1">
  <advance width="562"/>
  <unicode hex="0038"/>
  <outline>
    <contour>
      <point x="292" y="397" type="curve" name="hr00"/>
      <point x="205" y="457"/>
      <point x="156" y="525"/>
      <point x="156" y="582" type="curve" smooth="yes"/>
      <point x="156" y="635"/>
      <point x="207" y="677"/>
      <point x="267" y="677" type="curve" smooth="yes"/>
      <point x="342" y="677"/>
      <point x="398" y="632"/>
      <point x="398" y="573" type="curve" smooth="yes"/>
      <point x="398" y="509"/>
      <point x="360" y="445"/>
    </contour>
    <contour>
      <point x="287" y="16" type="curve" smooth="yes"/>
      <point x="250" y="16"/>
      <point x="218" y="29"/>
      <point x="191" y="54" type="curve" smooth="yes"/>
      <point x="164" y="80"/>
      <point x="151" y="112"/>
      <point x="151" y="150" type="curve" smooth="yes"/>
      <point x="151" y="217"/>
      <point x="181" y="282"/>
      <point x="238" y="329" type="curve"/>
      <point x="350" y="265"/>
      <point x="419" y="193"/>
      <point x="419" y="140" type="curve" smooth="yes"/>
      <point x="419" y="105"/>
      <point x="406" y="75"/>
      <point x="380" y="51" type="curve" smooth="yes"/>
      <point x="354" y="28"/>
      <point x="323" y="16"/>
    </contour>
    <contour>
      <point x="287" y="-16" type="curve" smooth="yes"/>
      <point x="340" y="-16"/>
      <point x="386" y="1"/>
      <point x="424" y="35" type="curve" smooth="yes"/>
      <point x="462" y="70"/>
      <point x="481" y="111"/>
      <point x="481" y="158" type="curve" smooth="yes"/>
      <point x="481" y="243"/>
      <point x="423" y="326"/>
      <point x="322" y="385" type="curve"/>
      <point x="411" y="438"/>
      <point x="462" y="505"/>
      <point x="462" y="564" type="curve" smooth="yes"/>
      <point x="462" y="605"/>
      <point x="444" y="639"/>
      <point x="407" y="666" type="curve" smooth="yes"/>
      <point x="370" y="694"/>
      <point x="324" y="708"/>
      <point x="267" y="708" type="curve" smooth="yes"/>
      <point x="218" y="708"/>
      <point x="176" y="691"/>
      <point x="140" y="656" type="curve" smooth="yes"/>
      <point x="105" y="622"/>
      <point x="87" y="581"/>
      <point x="87" y="534" type="curve" smooth="yes"/>
      <point x="87" y="477"/>
      <point x="133" y="406"/>
      <point x="225" y="347" type="curve"/>
      <point x="126" y="291"/>
      <point x="73" y="222"/>
      <point x="73" y="163" type="curve" smooth="yes"/>
      <point x="73" y="114"/>
      <point x="94" y="71"/>
      <point x="136" y="36" type="curve" smooth="yes"/>
      <point x="178" y="1"/>
      <point x="228" y="-16"/>
    </contour>
  </outline>
</glyph>
<glyph name="nine" format="1">
  <advance width="561"/>
  <unicode hex="0039"/>
  <outline>
    <contour>
      <point x="284" y="298" type="curve" smooth="yes" name="hr00"/>
      <point x="244" y="298"/>
      <point x="210" y="316"/>
      <point x="183" y="352" type="curve" smooth="yes"/>
      <point x="156" y="389"/>
      <point x="142" y="432"/>
      <point x="142" y="483" type="curve" smooth="yes"/>
      <point x="142" y="538"/>
      <point x="153" y="585"/>
      <point x="174" y="624" type="curve" smooth="yes"/>
      <point x="196" y="663"/>
      <point x="223" y="683"/>
      <point x="254" y="683" type="curve" smooth="yes"/>
      <point x="358" y="683"/>
      <point x="413" y="564"/>
      <point x="413" y="336" type="curve"/>
      <point x="388" y="312"/>
      <point x="339" y="298"/>
    </contour>
    <contour>
      <point x="98" y="-36" type="line"/>
      <point x="216" y="-15"/>
      <point x="314" y="34"/>
      <point x="391" y="112" type="curve" smooth="yes"/>
      <point x="469" y="190"/>
      <point x="508" y="278"/>
      <point x="508" y="376" type="curve" smooth="yes"/>
      <point x="508" y="469"/>
      <point x="484" y="547"/>
      <point x="436" y="611" type="curve" smooth="yes"/>
      <point x="388" y="676"/>
      <point x="330" y="708"/>
      <point x="263" y="708" type="curve" smooth="yes"/>
      <point x="204" y="708"/>
      <point x="154" y="683"/>
      <point x="112" y="634" type="curve" smooth="yes"/>
      <point x="70" y="585"/>
      <point x="49" y="525"/>
      <point x="49" y="455" type="curve" smooth="yes"/>
      <point x="49" y="396"/>
      <point x="68" y="347"/>
      <point x="106" y="306" type="curve" smooth="yes"/>
      <point x="144" y="265"/>
      <point x="190" y="245"/>
      <point x="243" y="245" type="curve" smooth="yes"/>
      <point x="303" y="245"/>
      <point x="357" y="264"/>
      <point x="409" y="307" type="curve"/>
      <point x="396" y="232"/>
      <point x="361" y="166"/>
      <point x="302" y="110" type="curve" smooth="yes"/>
      <point x="244" y="55"/>
      <point x="173" y="16"/>
      <point x="90" y="-5" type="curve"/>
    </contour>
  </outline>
</glyph>
<glyph name="colon" format="1">
  <advance width="252"/>
  <unicode hex="003A"/>
  <outline>
    <contour>
      <point x="173" y="44" type="curve" smooth="yes" name="hr00"/>
      <point x="173" y="73"/>
      <point x="149" y="97"/>
      <point x="121" y="97" type="curve" smooth="yes"/>
      <point x="96" y="97"/>
      <point x="72" y="72"/>
      <point x="72" y="44" type="curve" smooth="yes"/>
      <point x="72" y="13"/>
      <point x="94" y="-8"/>
      <point x="121" y="-8" type="curve" smooth="yes"/>
      <point x="150" y="-8"/>
      <point x="173" y="15"/>
    </contour>
    <contour>
      <point x="173" y="371" type="curve" smooth="yes"/>
      <point x="173" y="400"/>
      <point x="148" y="425"/>
      <point x="121" y="425" type="curve" smooth="yes"/>
      <point x="94" y="425"/>
      <point x="72" y="402"/>
      <point x="72" y="371" type="curve" smooth="yes"/>
      <point x="72" y="343"/>
      <point x="96" y="318"/>
      <point x="121" y="318" type="curve" smooth="yes"/>
      <point x="149" y="318"/>
      <point x="173" y="344"/>
    </contour>
  </outline>
</glyph>
<glyph name="semicolon" format="1">
  <advance width="322"/>
  <unicode hex="003B"/>
  <outline>
    <contour>
      <point x="220" y="1" type="curve" smooth="yes" name="hr00"/>
      <point x="220" y="57"/>
      <point x="198" y="89"/>
      <point x="150" y="89" type="curve" smooth="yes"/>
      <point x="126" y="89"/>
      <point x="103" y="67"/>
      <point x="103" y="43" type="curve" smooth="yes"/>
      <point x="103" y="23"/>
      <point x="110" y="9"/>
      <point x="124" y="0" type="curve"/>
      <point x="137" y="-4"/>
      <point x="145" y="-6"/>
      <point x="150" y="-6" type="curve" smooth="yes"/>
      <point x="157" y="-6"/>
      <point x="162" y="-6"/>
      <point x="167" y="-5" type="curve" smooth="yes"/>
      <point x="176" y="-4" type="line"/>
      <point x="180" y="-10"/>
      <point x="182" y="-16"/>
      <point x="182" y="-22" type="curve" smooth="yes"/>
      <point x="182" y="-39"/>
      <point x="167" y="-72"/>
      <point x="159" y="-79" type="curve"/>
      <point x="151" y="-94"/>
      <point x="142" y="-107"/>
      <point x="132" y="-118" type="curve"/>
      <point x="98" y="-149" type="line"/>
      <point x="112" y="-165" type="line"/>
      <point x="143" y="-142"/>
      <point x="168" y="-118"/>
      <point x="185" y="-95" type="curve" smooth="yes"/>
      <point x="208" y="-63"/>
      <point x="220" y="-31"/>
    </contour>
    <contour>
      <point x="203" y="351" type="curve" smooth="yes"/>
      <point x="203" y="386"/>
      <point x="186" y="403"/>
      <point x="151" y="403" type="curve" smooth="yes"/>
      <point x="126" y="403"/>
      <point x="103" y="379"/>
      <point x="103" y="351" type="curve" smooth="yes"/>
      <point x="103" y="320"/>
      <point x="126" y="298"/>
      <point x="154" y="298" type="curve" smooth="yes"/>
      <point x="181" y="298"/>
      <point x="203" y="322"/>
    </contour>
  </outline>
</glyph>
<glyph name="less" format="1">
  <advance width="541"/>
  <unicode hex="003C"/>
  <outline>
    <contour>
      <point x="466" y="-18" type="line" name="hr00"/>
      <point x="466" y="19" type="line"/>
      <point x="149" y="237" type="line"/>
      <point x="466" y="454" type="line"/>
      <point x="466" y="487" type="line"/>
      <point x="69" y="271" type="line"/>
      <point x="69" y="197" type="line"/>
    </contour>
  </outline>
</glyph>
<glyph name="equal" format="1">
  <advance width="562"/>
  <unicode hex="003D"/>
  <outline>
    <contour>
      <point x="69" y="92" type="line" name="hr00"/>
      <point x="486" y="92" type="line"/>
      <point x="486" y="152" type="line"/>
      <point x="69" y="152" type="line"/>
    </contour>
    <contour>
      <point x="69" y="289" type="line"/>
      <point x="486" y="289" type="line"/>
      <point x="486" y="349" type="line"/>
      <point x="69" y="349" type="line"/>
    </contour>
  </outline>
</glyph>
<glyph name="greater" format="1">
  <advance width="541"/>
  <unicode hex="003E"/>
  <outline>
    <contour>
      <point x="466" y="279" type="line" name="hr00"/>
      <point x="69" y="494" type="line"/>
      <point x="69" y="461" type="line"/>
      <point x="385" y="244" type="line"/>
      <point x="69" y="27" type="line"/>
      <point x="69" y="-10" type="line"/>
      <point x="466" y="204" type="line"/>
    </contour>
  </outline>
</glyph>
<glyph name="question" format="1">
  <advance width="475"/>
  <unicode hex="003F"/>
  <outline>
    <contour>
      <point x="252" y="30" type="curve" smooth="yes" name="hr00"/>
      <point x="252" y="59"/>
      <point x="226" y="83"/>
      <point x="199" y="83" type="curve" smooth="yes"/>
      <point x="168" y="83"/>
      <point x="146" y="59"/>
      <point x="146" y="30" type="curve" smooth="yes"/>
      <point x="146" y="1"/>
      <point x="168" y="-25"/>
      <point x="199" y="-25" type="curve" smooth="yes"/>
      <point x="227" y="-25"/>
      <point x="252" y="1"/>
    </contour>
    <contour>
      <point x="391" y="504" type="curve" smooth="yes"/>
      <point x="391" y="552"/>
      <point x="374" y="591"/>
      <point x="341" y="620" type="curve" smooth="yes"/>
      <point x="308" y="650"/>
      <point x="269" y="665"/>
      <point x="222" y="665" type="curve" smooth="yes"/>
      <point x="214" y="665"/>
      <point x="197" y="666"/>
      <point x="182" y="662" type="curve" smooth="yes"/>
      <point x="155" y="655"/>
      <point x="136" y="649"/>
      <point x="125" y="643" type="curve" smooth="yes"/>
      <point x="114" y="638"/>
      <point x="102" y="630"/>
      <point x="90" y="619" type="curve" smooth="yes"/>
      <point x="67" y="599"/>
      <point x="50" y="563"/>
      <point x="50" y="530" type="curve" smooth="yes"/>
      <point x="50" y="495"/>
      <point x="73" y="461"/>
      <point x="104" y="461" type="curve" smooth="yes"/>
      <point x="131" y="461"/>
      <point x="152" y="483"/>
      <point x="152" y="508" type="curve" smooth="yes"/>
      <point x="152" y="531"/>
      <point x="142" y="544"/>
      <point x="123" y="559" type="curve"/>
      <point x="115" y="564" type="line"/>
      <point x="112" y="570"/>
      <point x="111" y="576"/>
      <point x="111" y="581" type="curve" smooth="yes"/>
      <point x="111" y="597"/>
      <point x="121" y="609"/>
      <point x="140" y="617" type="curve" smooth="yes"/>
      <point x="159" y="626"/>
      <point x="178" y="630"/>
      <point x="196" y="630" type="curve" smooth="yes"/>
      <point x="271" y="630"/>
      <point x="305" y="586"/>
      <point x="305" y="507" type="curve" smooth="yes"/>
      <point x="305" y="468"/>
      <point x="289" y="433"/>
      <point x="264" y="398" type="curve" smooth="yes"/>
      <point x="234" y="356" type="line" smooth="yes"/>
      <point x="211" y="323"/>
      <point x="196" y="295"/>
      <point x="191" y="273" type="curve" smooth="yes"/>
      <point x="186" y="251"/>
      <point x="184" y="217"/>
      <point x="184" y="170" type="curve"/>
      <point x="215" y="170" type="line"/>
      <point x="217" y="214" type="line" smooth="yes"/>
      <point x="218" y="241"/>
      <point x="223" y="263"/>
      <point x="235" y="281" type="curve" smooth="yes"/>
      <point x="244" y="294"/>
      <point x="259" y="311"/>
      <point x="282" y="331" type="curve" smooth="yes"/>
      <point x="326" y="370"/>
      <point x="355" y="402"/>
      <point x="369" y="427" type="curve" smooth="yes"/>
      <point x="384" y="452"/>
      <point x="391" y="478"/>
    </contour>
  </outline>
</glyph>
<glyph name="at" format="1">
  <advance width="1061"/>
  <unicode hex="0040"/>
  <outline>
    <contour>
      <point x="536" y="58" type="curve" smooth="yes" name="hr00"/>
      <point x="499" y="58"/>
      <point x="467" y="74"/>
      <point x="440" y="105" type="curve" smooth="yes"/>
      <point x="413" y="137"/>
      <point x="400" y="175"/>
      <point x="400" y="218" type="curve" smooth="yes"/>
      <point x="400" y="269"/>
      <point x="413" y="312"/>
      <point x="440" y="348" type="curve" smooth="yes"/>
      <point x="467" y="384"/>
      <point x="501" y="402"/>
      <point x="540" y="402" type="curve" smooth="yes"/>
      <point x="584" y="402"/>
      <point x="620" y="369"/>
      <point x="620" y="328" type="curve" smooth="yes"/>
      <point x="620" y="150" type="line" smooth="yes"/>
      <point x="620" y="101"/>
      <point x="584" y="58"/>
    </contour>
    <contour>
      <point x="523" y="-214" type="curve" smooth="yes"/>
      <point x="606" y="-214"/>
      <point x="681" y="-199"/>
      <point x="748" y="-168" type="curve" smooth="yes"/>
      <point x="815" y="-138"/>
      <point x="867" y="-97"/>
      <point x="902" y="-45" type="curve"/>
      <point x="871" y="-17" type="line"/>
      <point x="836" y="-69"/>
      <point x="787" y="-109"/>
      <point x="725" y="-138" type="curve" smooth="yes"/>
      <point x="663" y="-167"/>
      <point x="596" y="-181"/>
      <point x="523" y="-181" type="curve" smooth="yes"/>
      <point x="418" y="-181"/>
      <point x="329" y="-142"/>
      <point x="254" y="-63" type="curve" smooth="yes"/>
      <point x="180" y="15"/>
      <point x="143" y="110"/>
      <point x="143" y="223" type="curve" smooth="yes"/>
      <point x="143" y="335"/>
      <point x="180" y="430"/>
      <point x="254" y="509" type="curve" smooth="yes"/>
      <point x="329" y="588"/>
      <point x="419" y="627"/>
      <point x="524" y="627" type="curve" smooth="yes"/>
      <point x="628" y="627"/>
      <point x="716" y="591"/>
      <point x="789" y="519" type="curve" smooth="yes"/>
      <point x="862" y="447"/>
      <point x="899" y="360"/>
      <point x="899" y="258" type="curve" smooth="yes"/>
      <point x="899" y="197"/>
      <point x="886" y="146"/>
      <point x="860" y="104" type="curve" smooth="yes"/>
      <point x="835" y="62"/>
      <point x="803" y="41"/>
      <point x="766" y="41" type="curve" smooth="yes"/>
      <point x="731" y="41"/>
      <point x="703" y="75"/>
      <point x="703" y="118" type="curve" smooth="yes"/>
      <point x="703" y="434" type="line"/>
      <point x="620" y="434" type="line"/>
      <point x="620" y="402" type="line"/>
      <point x="584" y="433"/>
      <point x="545" y="447"/>
      <point x="512" y="447" type="curve" smooth="yes"/>
      <point x="459" y="447"/>
      <point x="414" y="424"/>
      <point x="377" y="379" type="curve" smooth="yes"/>
      <point x="341" y="334"/>
      <point x="323" y="281"/>
      <point x="323" y="218" type="curve" smooth="yes"/>
      <point x="323" y="158"/>
      <point x="342" y="107"/>
      <point x="379" y="64" type="curve" smooth="yes"/>
      <point x="417" y="21"/>
      <point x="462" y="0"/>
      <point x="515" y="0" type="curve" smooth="yes"/>
      <point x="548" y="0"/>
      <point x="587" y="22"/>
      <point x="619" y="69" type="curve"/>
      <point x="634" y="24"/>
      <point x="684" y="0"/>
      <point x="747" y="0" type="curve" smooth="yes"/>
      <point x="811" y="0"/>
      <point x="866" y="25"/>
      <point x="911" y="76" type="curve" smooth="yes"/>
      <point x="957" y="127"/>
      <point x="980" y="187"/>
      <point x="980" y="258" type="curve" smooth="yes"/>
      <point x="980" y="368"/>
      <point x="936" y="461"/>
      <point x="847" y="540" type="curve" smooth="yes"/>
      <point x="759" y="618"/>
      <point x="652" y="658"/>
      <point x="525" y="658" type="curve" smooth="yes"/>
      <point x="399" y="658"/>
      <point x="291" y="615"/>
      <point x="202" y="530" type="curve" smooth="yes"/>
      <point x="113" y="445"/>
      <point x="69" y="343"/>
      <point x="69" y="223" type="curve" smooth="yes"/>
      <point x="69" y="103"/>
      <point x="113" y="0"/>
      <point x="201" y="-85" type="curve" smooth="yes"/>
      <point x="289" y="-171"/>
      <point x="396" y="-214"/>
    </contour>
  </outline>
</glyph>
<glyph name="A" format="1">
  <advance width="746"/>
  <unicode hex="0041"/>
  <outline>
    <contour>
      <point x="472" y="271" type="line" name="hr00"/>
      <point x="221" y="271" type="line"/>
      <point x="348" y="587" type="line"/>
    </contour>
    <contour>
      <point x="121" y="123" type="line" smooth="yes"/>
      <point x="93" y="54"/>
      <point x="66" y="36"/>
      <point x="11" y="36" type="curve"/>
      <point x="11" y="0" type="line"/>
      <point x="268" y="0" type="line"/>
      <point x="268" y="36" type="line"/>
      <point x="244" y="36" type="line" smooth="yes"/>
      <point x="189" y="36"/>
      <point x="160" y="61"/>
      <point x="160" y="93" type="curve" smooth="yes"/>
      <point x="160" y="107"/>
      <point x="163" y="126"/>
      <point x="172" y="149" type="curve" smooth="yes"/>
      <point x="205" y="235" type="line"/>
      <point x="485" y="235" type="line"/>
      <point x="545" y="83" type="line" smooth="yes"/>
      <point x="547" y="77"/>
      <point x="548" y="71"/>
      <point x="548" y="66" type="curve" smooth="yes"/>
      <point x="548" y="57"/>
      <point x="544" y="50"/>
      <point x="536" y="47" type="curve"/>
      <point x="523" y="40"/>
      <point x="502" y="36"/>
      <point x="472" y="36" type="curve" smooth="yes"/>
      <point x="450" y="36" type="line"/>
      <point x="450" y="0" type="line"/>
      <point x="733" y="0" type="line"/>
      <point x="733" y="36" type="line"/>
      <point x="711" y="36" type="line" smooth="yes"/>
      <point x="680" y="36"/>
      <point x="659" y="49"/>
      <point x="649" y="75" type="curve" smooth="yes"/>
      <point x="393" y="725" type="line"/>
      <point x="362" y="725" type="line"/>
    </contour>
  </outline>
</glyph>
<glyph name="B" format="1">
  <advance width="683"/>
  <unicode hex="0042"/>
  <outline>
    <contour>
      <point x="383" y="349" type="line" smooth="yes" name="hr00"/>
      <point x="482" y="349"/>
      <point x="541" y="287"/>
      <point x="541" y="191" type="curve" smooth="yes"/>
      <point x="541" y="84"/>
      <point x="489" y="36"/>
      <point x="374" y="36" type="curve" smooth="yes"/>
      <point x="287" y="36" type="line" smooth="yes"/>
      <point x="250" y="36"/>
      <point x="237" y="47"/>
      <point x="237" y="74" type="curve" smooth="yes"/>
      <point x="237" y="349" type="line"/>
    </contour>
    <contour>
      <point x="237" y="638" type="line" smooth="yes"/>
      <point x="237" y="651"/>
      <point x="242" y="661"/>
      <point x="251" y="666" type="curve" smooth="yes"/>
      <point x="260" y="671"/>
      <point x="284" y="674"/>
      <point x="322" y="674" type="curve" smooth="yes"/>
      <point x="377" y="674"/>
      <point x="415" y="669"/>
      <point x="437" y="661" type="curve" smooth="yes"/>
      <point x="460" y="652"/>
      <point x="477" y="639"/>
      <point x="488" y="620" type="curve" smooth="yes"/>
      <point x="500" y="601"/>
      <point x="506" y="574"/>
      <point x="506" y="541" type="curve" smooth="yes"/>
      <point x="506" y="430"/>
      <point x="452" y="384"/>
      <point x="371" y="384" type="curve" smooth="yes"/>
      <point x="237" y="384" type="line"/>
    </contour>
    <contour>
      <point x="24" y="674" type="line"/>
      <point x="86" y="674" type="line" smooth="yes"/>
      <point x="118" y="674"/>
      <point x="134" y="659"/>
      <point x="134" y="634" type="curve" smooth="yes"/>
      <point x="134" y="64" type="line" smooth="yes"/>
      <point x="134" y="49"/>
      <point x="117" y="36"/>
      <point x="82" y="36" type="curve" smooth="yes"/>
      <point x="24" y="36" type="line"/>
      <point x="24" y="0" type="line"/>
      <point x="383" y="0" type="line" smooth="yes"/>
      <point x="498" y="0"/>
      <point x="590" y="42"/>
      <point x="629" y="97" type="curve" smooth="yes"/>
      <point x="648" y="125"/>
      <point x="658" y="156"/>
      <point x="658" y="191" type="curve" smooth="yes"/>
      <point x="658" y="282"/>
      <point x="592" y="344"/>
      <point x="457" y="372" type="curve"/>
      <point x="566" y="405"/>
      <point x="619" y="461"/>
      <point x="619" y="542" type="curve" smooth="yes"/>
      <point x="619" y="638"/>
      <point x="538" y="710"/>
      <point x="393" y="710" type="curve" smooth="yes"/>
      <point x="24" y="710" type="line"/>
    </contour>
  </outline>
</glyph>
<glyph name="C" format="1">
  <advance width="644"/>
  <unicode hex="0043"/>
  <outline>
    <contour>
      <point x="524" y="649" type="line" name="hr00"/>
      <point x="457" y="700"/>
      <point x="402" y="719"/>
      <point x="342" y="719" type="curve" smooth="yes"/>
      <point x="231" y="719"/>
      <point x="131" y="657"/>
      <point x="70" y="532" type="curve" smooth="yes"/>
      <point x="39" y="470"/>
      <point x="24" y="404"/>
      <point x="24" y="333" type="curve" smooth="yes"/>
      <point x="24" y="266"/>
      <point x="39" y="205"/>
      <point x="68" y="149" type="curve" smooth="yes"/>
      <point x="97" y="93"/>
      <point x="137" y="50"/>
      <point x="186" y="21" type="curve" smooth="yes"/>
      <point x="236" y="-8"/>
      <point x="291" y="-23"/>
      <point x="351" y="-23" type="curve" smooth="yes"/>
      <point x="496" y="-23"/>
      <point x="598" y="71"/>
      <point x="618" y="240" type="curve"/>
      <point x="585" y="240" type="line"/>
      <point x="561" y="91"/>
      <point x="477" y="17"/>
      <point x="364" y="17" type="curve" smooth="yes"/>
      <point x="298" y="17"/>
      <point x="246" y="41"/>
      <point x="209" y="88" type="curve" smooth="yes"/>
      <point x="167" y="143"/>
      <point x="146" y="225"/>
      <point x="146" y="332" type="curve" smooth="yes"/>
      <point x="146" y="459"/>
      <point x="164" y="548"/>
      <point x="201" y="601" type="curve" smooth="yes"/>
      <point x="238" y="654"/>
      <point x="287" y="681"/>
      <point x="347" y="681" type="curve" smooth="yes"/>
      <point x="402" y="681"/>
      <point x="448" y="656"/>
      <point x="488" y="609" type="curve" smooth="yes"/>
      <point x="520" y="571"/>
      <point x="547" y="513"/>
      <point x="568" y="432" type="curve"/>
      <point x="600" y="432" type="line"/>
      <point x="588" y="718" type="line"/>
      <point x="558" y="718" type="line"/>
    </contour>
  </outline>
</glyph>
<glyph name="D" format="1">
  <advance width="725"/>
  <unicode hex="0044"/>
  <outline>
    <contour>
      <point x="362" y="674" type="line" smooth="yes" name="hr00"/>
      <point x="433" y="674"/>
      <point x="487" y="651"/>
      <point x="522" y="604" type="curve" smooth="yes"/>
      <point x="563" y="549"/>
      <point x="584" y="463"/>
      <point x="584" y="345" type="curve" smooth="yes"/>
      <point x="584" y="264"/>
      <point x="574" y="201"/>
      <point x="555" y="156" type="curve" smooth="yes"/>
      <point x="542" y="123"/>
      <point x="522" y="97"/>
      <point x="495" y="78" type="curve" smooth="yes"/>
      <point x="454" y="50"/>
      <point x="407" y="36"/>
      <point x="353" y="36" type="curve" smooth="yes"/>
      <point x="291" y="36" type="line" smooth="yes"/>
      <point x="255" y="36"/>
      <point x="239" y="47"/>
      <point x="239" y="71" type="curve" smooth="yes"/>
      <point x="239" y="638" type="line" smooth="yes"/>
      <point x="239" y="662"/>
      <point x="253" y="674"/>
      <point x="281" y="674" type="curve" smooth="yes"/>
    </contour>
    <contour>
      <point x="24" y="674" type="line"/>
      <point x="97" y="674" type="line" smooth="yes"/>
      <point x="121" y="674"/>
      <point x="137" y="662"/>
      <point x="137" y="642" type="curve" smooth="yes"/>
      <point x="137" y="69" type="line" smooth="yes"/>
      <point x="137" y="46"/>
      <point x="124" y="36"/>
      <point x="91" y="36" type="curve" smooth="yes"/>
      <point x="24" y="36" type="line"/>
      <point x="24" y="0" type="line"/>
      <point x="353" y="0" type="line" smooth="yes"/>
      <point x="408" y="0"/>
      <point x="453" y="6"/>
      <point x="487" y="17" type="curve" smooth="yes"/>
      <point x="576" y="46"/>
      <point x="640" y="108"/>
      <point x="671" y="185" type="curve" smooth="yes"/>
      <point x="691" y="236"/>
      <point x="699" y="294"/>
      <point x="699" y="359" type="curve" smooth="yes"/>
      <point x="699" y="436"/>
      <point x="682" y="503"/>
      <point x="649" y="560" type="curve" smooth="yes"/>
      <point x="616" y="617"/>
      <point x="577" y="658"/>
      <point x="530" y="681" type="curve" smooth="yes"/>
      <point x="491" y="700"/>
      <point x="445" y="710"/>
      <point x="391" y="710" type="curve" smooth="yes"/>
      <point x="24" y="710" type="line"/>
    </contour>
  </outline>
</glyph>
<glyph name="E" format="1">
  <advance width="649"/>
  <unicode hex="0045"/>
  <outline>
    <contour>
      <point x="24" y="674" type="line" name="hr00"/>
      <point x="81" y="674" type="line" smooth="yes"/>
      <point x="110" y="674"/>
      <point x="124" y="662"/>
      <point x="124" y="638" type="curve" smooth="yes"/>
      <point x="124" y="74" type="line" smooth="yes"/>
      <point x="124" y="50"/>
      <point x="109" y="36"/>
      <point x="73" y="36" type="curve" smooth="yes"/>
      <point x="24" y="36" type="line"/>
      <point x="24" y="0" type="line"/>
      <point x="609" y="0" type="line"/>
      <point x="622" y="264" type="line"/>
      <point x="588" y="264" type="line"/>
      <point x="569" y="112"/>
      <point x="499" y="36"/>
      <point x="380" y="36" type="curve" smooth="yes"/>
      <point x="270" y="36" type="line" smooth="yes"/>
      <point x="239" y="36"/>
      <point x="226" y="47"/>
      <point x="226" y="67" type="curve" smooth="yes"/>
      <point x="226" y="350" type="line"/>
      <point x="281" y="350" type="line" smooth="yes"/>
      <point x="353" y="350"/>
      <point x="395" y="306"/>
      <point x="399" y="198" type="curve"/>
      <point x="432" y="198" type="line"/>
      <point x="432" y="526" type="line"/>
      <point x="399" y="526" type="line"/>
      <point x="395" y="431"/>
      <point x="351" y="384"/>
      <point x="286" y="384" type="curve" smooth="yes"/>
      <point x="226" y="384" type="line"/>
      <point x="226" y="638" type="line" smooth="yes"/>
      <point x="226" y="662"/>
      <point x="237" y="674"/>
      <point x="260" y="674" type="curve" smooth="yes"/>
      <point x="399" y="674" type="line" smooth="yes"/>
      <point x="488" y="674"/>
      <point x="543" y="620"/>
      <point x="568" y="471" type="curve"/>
      <point x="600" y="471" type="line"/>
      <point x="588" y="710" type="line"/>
      <point x="24" y="710" type="line"/>
    </contour>
  </outline>
</glyph>
<glyph name="F" format="1">
  <advance width="644"/>
  <unicode hex="0046"/>
  <outline>
    <contour>
      <point x="24" y="674" type="line" name="hr00"/>
      <point x="93" y="674" type="line" smooth="yes"/>
      <point x="128" y="674"/>
      <point x="138" y="664"/>
      <point x="138" y="639" type="curve" smooth="yes"/>
      <point x="138" y="74" type="line" smooth="yes"/>
      <point x="138" y="46"/>
      <point x="126" y="36"/>
      <point x="97" y="36" type="curve" smooth="yes"/>
      <point x="24" y="36" type="line"/>
      <point x="24" y="0" type="line"/>
      <point x="366" y="0" type="line"/>
      <point x="366" y="36" type="line"/>
      <point x="291" y="36" type="line" smooth="yes"/>
      <point x="255" y="36"/>
      <point x="240" y="48"/>
      <point x="240" y="79" type="curve" smooth="yes"/>
      <point x="240" y="351" type="line"/>
      <point x="300" y="351" type="line" smooth="yes"/>
      <point x="371" y="351"/>
      <point x="411" y="310"/>
      <point x="414" y="202" type="curve"/>
      <point x="449" y="202" type="line"/>
      <point x="449" y="522" type="line"/>
      <point x="414" y="522" type="line"/>
      <point x="411" y="431"/>
      <point x="369" y="385"/>
      <point x="300" y="385" type="curve" smooth="yes"/>
      <point x="240" y="385" type="line"/>
      <point x="240" y="643" type="line" smooth="yes"/>
      <point x="240" y="663"/>
      <point x="250" y="674"/>
      <point x="273" y="674" type="curve" smooth="yes"/>
      <point x="386" y="674" type="line" smooth="yes"/>
      <point x="443" y="674"/>
      <point x="485" y="658"/>
      <point x="515" y="630" type="curve" smooth="yes"/>
      <point x="542" y="603"/>
      <point x="564" y="549"/>
      <point x="579" y="464" type="curve"/>
      <point x="611" y="464" type="line"/>
      <point x="601" y="710" type="line"/>
      <point x="24" y="710" type="line"/>
    </contour>
  </outline>
</glyph>
<glyph name="G" format="1">
  <advance width="740"/>
  <unicode hex="0047"/>
  <outline>
    <contour>
      <point x="527" y="649" type="line" name="hr00"/>
      <point x="458" y="701"/>
      <point x="407" y="719"/>
      <point x="348" y="719" type="curve" smooth="yes"/>
      <point x="295" y="719"/>
      <point x="243" y="703"/>
      <point x="191" y="670" type="curve" smooth="yes"/>
      <point x="139" y="637"/>
      <point x="98" y="593"/>
      <point x="68" y="536" type="curve" smooth="yes"/>
      <point x="39" y="480"/>
      <point x="25" y="417"/>
      <point x="24" y="347" type="curve" smooth="yes"/>
      <point x="20" y="135"/>
      <point x="176" y="-22"/>
      <point x="356" y="-19" type="curve" smooth="yes"/>
      <point x="439" y="-18"/>
      <point x="506" y="20"/>
      <point x="554" y="99" type="curve"/>
      <point x="567" y="60"/>
      <point x="579" y="20"/>
      <point x="589" y="-22" type="curve"/>
      <point x="622" y="-22" type="line"/>
      <point x="622" y="249" type="line" smooth="yes"/>
      <point x="622" y="272"/>
      <point x="636" y="285"/>
      <point x="672" y="285" type="curve" smooth="yes"/>
      <point x="711" y="285" type="line"/>
      <point x="711" y="319" type="line"/>
      <point x="414" y="319" type="line"/>
      <point x="414" y="285" type="line"/>
      <point x="475" y="285" type="line" smooth="yes"/>
      <point x="511" y="285"/>
      <point x="527" y="272"/>
      <point x="527" y="253" type="curve" smooth="yes"/>
      <point x="527" y="185" type="line" smooth="yes"/>
      <point x="527" y="86"/>
      <point x="463" y="15"/>
      <point x="351" y="17" type="curve" smooth="yes"/>
      <point x="226" y="20"/>
      <point x="147" y="100"/>
      <point x="145" y="346" type="curve" smooth="yes"/>
      <point x="143" y="595"/>
      <point x="232" y="678"/>
      <point x="357" y="682" type="curve" smooth="yes"/>
      <point x="410" y="684"/>
      <point x="458" y="659"/>
      <point x="500" y="613" type="curve" smooth="yes"/>
      <point x="533" y="577"/>
      <point x="561" y="518"/>
      <point x="585" y="437" type="curve"/>
      <point x="615" y="437" type="line"/>
      <point x="598" y="719" type="line"/>
      <point x="566" y="719" type="line"/>
    </contour>
  </outline>
</glyph>
<glyph name="H" format="1">
  <advance width="775"/>
  <unicode hex="0048"/>
  <outline>
    <contour>
      <point x="24" y="674" type="line" name="hr00"/>
      <point x="76" y="674" type="line" smooth="yes"/>
      <point x="113" y="674"/>
      <point x="123" y="666"/>
      <point x="123" y="613" type="curve" smooth="yes"/>
      <point x="123" y="101" type="line" smooth="yes"/>
      <point x="123" y="78"/>
      <point x="122" y="65"/>
      <point x="120" y="60" type="curve" smooth="yes"/>
      <point x="115" y="45"/>
      <point x="102" y="36"/>
      <point x="81" y="36" type="curve" smooth="yes"/>
      <point x="24" y="36" type="line"/>
      <point x="24" y="0" type="line"/>
      <point x="327" y="0" type="line"/>
      <point x="327" y="36" type="line"/>
      <point x="272" y="36" type="line" smooth="yes"/>
      <point x="252" y="36"/>
      <point x="238" y="41"/>
      <point x="230" y="52" type="curve" smooth="yes"/>
      <point x="226" y="57"/>
      <point x="224" y="72"/>
      <point x="224" y="97" type="curve" smooth="yes"/>
      <point x="224" y="349" type="line"/>
      <point x="549" y="349" type="line"/>
      <point x="549" y="101" type="line" smooth="yes"/>
      <point x="549" y="74"/>
      <point x="547" y="58"/>
      <point x="542" y="52" type="curve" smooth="yes"/>
      <point x="535" y="41"/>
      <point x="522" y="36"/>
      <point x="501" y="36" type="curve" smooth="yes"/>
      <point x="449" y="36" type="line"/>
      <point x="449" y="0" type="line"/>
      <point x="751" y="0" type="line"/>
      <point x="751" y="36" type="line"/>
      <point x="702" y="36" type="line" smooth="yes"/>
      <point x="681" y="36"/>
      <point x="666" y="41"/>
      <point x="657" y="52" type="curve" smooth="yes"/>
      <point x="652" y="57"/>
      <point x="650" y="72"/>
      <point x="650" y="97" type="curve" smooth="yes"/>
      <point x="650" y="608" type="line" smooth="yes"/>
      <point x="650" y="631"/>
      <point x="651" y="646"/>
      <point x="653" y="651" type="curve" smooth="yes"/>
      <point x="660" y="668"/>
      <point x="670" y="674"/>
      <point x="695" y="674" type="curve" smooth="yes"/>
      <point x="751" y="674" type="line"/>
      <point x="751" y="710" type="line"/>
      <point x="449" y="710" type="line"/>
      <point x="449" y="674" type="line"/>
      <point x="501" y="674" type="line" smooth="yes"/>
      <point x="522" y="674"/>
      <point x="535" y="671"/>
      <point x="540" y="665" type="curve" smooth="yes"/>
      <point x="546" y="659"/>
      <point x="549" y="642"/>
      <point x="549" y="613" type="curve" smooth="yes"/>
      <point x="549" y="394" type="line"/>
      <point x="224" y="394" type="line"/>
      <point x="224" y="613" type="line" smooth="yes"/>
      <point x="224" y="666"/>
      <point x="232" y="674"/>
      <point x="272" y="674" type="curve" smooth="yes"/>
      <point x="327" y="674" type="line"/>
      <point x="327" y="710" type="line"/>
      <point x="24" y="710" type="line"/>
    </contour>
  </outline>
</glyph>
<glyph name="I" format="1">
  <advance width="400"/>
  <unicode hex="0049"/>
  <outline>
    <contour>
      <point x="36" y="674" type="line" name="hr00"/>
      <point x="92" y="674" type="line" smooth="yes"/>
      <point x="116" y="674"/>
      <point x="132" y="671"/>
      <point x="141" y="664" type="curve" smooth="yes"/>
      <point x="147" y="659"/>
      <point x="150" y="646"/>
      <point x="150" y="625" type="curve" smooth="yes"/>
      <point x="150" y="87" type="line" smooth="yes"/>
      <point x="150" y="43"/>
      <point x="142" y="36"/>
      <point x="97" y="36" type="curve" smooth="yes"/>
      <point x="36" y="36" type="line"/>
      <point x="36" y="0" type="line"/>
      <point x="364" y="0" type="line"/>
      <point x="364" y="36" type="line"/>
      <point x="300" y="36" type="line" smooth="yes"/>
      <point x="281" y="36"/>
      <point x="267" y="40"/>
      <point x="259" y="48" type="curve"/>
      <point x="253" y="52"/>
      <point x="250" y="65"/>
      <point x="250" y="87" type="curve" smooth="yes"/>
      <point x="250" y="625" type="line" smooth="yes"/>
      <point x="250" y="666"/>
      <point x="259" y="674"/>
      <point x="307" y="674" type="curve" smooth="yes"/>
      <point x="364" y="674" type="line"/>
      <point x="364" y="710" type="line"/>
      <point x="36" y="710" type="line"/>
    </contour>
  </outline>
</glyph>
<glyph name="J" format="1">
  <advance width="545"/>
  <unicode hex="004A"/>
  <outline>
    <contour>
      <point x="200" y="669" type="line" name="hr00"/>
      <point x="263" y="669" type="line" smooth="yes"/>
      <point x="303" y="669"/>
      <point x="319" y="657"/>
      <point x="319" y="633" type="curve" smooth="yes"/>
      <point x="319" y="178" type="line" smooth="yes"/>
      <point x="319" y="79"/>
      <point x="271" y="21"/>
      <point x="190" y="21" type="curve" smooth="yes"/>
      <point x="155" y="21"/>
      <point x="126" y="31"/>
      <point x="101" y="50" type="curve" smooth="yes"/>
      <point x="76" y="69"/>
      <point x="64" y="91"/>
      <point x="64" y="115" type="curve" smooth="yes"/>
      <point x="64" y="124"/>
      <point x="66" y="131"/>
      <point x="69" y="136" type="curve" smooth="yes"/>
      <point x="72" y="141"/>
      <point x="77" y="143"/>
      <point x="83" y="143" type="curve" smooth="yes"/>
      <point x="86" y="143"/>
      <point x="91" y="142"/>
      <point x="100" y="139" type="curve" smooth="yes"/>
      <point x="111" y="136"/>
      <point x="119" y="134"/>
      <point x="125" y="134" type="curve" smooth="yes"/>
      <point x="154" y="134"/>
      <point x="181" y="161"/>
      <point x="181" y="200" type="curve" smooth="yes"/>
      <point x="181" y="243"/>
      <point x="150" y="272"/>
      <point x="107" y="272" type="curve" smooth="yes"/>
      <point x="52" y="272"/>
      <point x="12" y="227"/>
      <point x="12" y="154" type="curve" smooth="yes"/>
      <point x="12" y="106"/>
      <point x="30" y="65"/>
      <point x="66" y="32" type="curve" smooth="yes"/>
      <point x="103" y="-1"/>
      <point x="149" y="-17"/>
      <point x="206" y="-18" type="curve" smooth="yes"/>
      <point x="334" y="-19"/>
      <point x="420" y="67"/>
      <point x="420" y="171" type="curve" smooth="yes"/>
      <point x="420" y="633" type="line" smooth="yes"/>
      <point x="420" y="657"/>
      <point x="435" y="669"/>
      <point x="470" y="669" type="curve" smooth="yes"/>
      <point x="514" y="669" type="line"/>
      <point x="514" y="705" type="line"/>
      <point x="200" y="705" type="line"/>
    </contour>
  </outline>
</glyph>
<glyph name="L" format="1">
  <advance width="654"/>
  <unicode hex="004C"/>
  <outline>
    <contour>
      <point x="29" y="674" type="line" name="hr00"/>
      <point x="100" y="674" type="line" smooth="yes"/>
      <point x="128" y="674"/>
      <point x="140" y="662"/>
      <point x="140" y="638" type="curve" smooth="yes"/>
      <point x="140" y="83" type="line" smooth="yes"/>
      <point x="140" y="50"/>
      <point x="127" y="36"/>
      <point x="86" y="36" type="curve" smooth="yes"/>
      <point x="29" y="36" type="line"/>
      <point x="29" y="0" type="line"/>
      <point x="620" y="0" type="line"/>
      <point x="637" y="272" type="line"/>
      <point x="603" y="272" type="line"/>
      <point x="574" y="100"/>
      <point x="506" y="36"/>
      <point x="398" y="36" type="curve" smooth="yes"/>
      <point x="299" y="36" type="line" smooth="yes"/>
      <point x="255" y="36"/>
      <point x="243" y="45"/>
      <point x="243" y="73" type="curve" smooth="yes"/>
      <point x="243" y="634" type="line" smooth="yes"/>
      <point x="243" y="662"/>
      <point x="255" y="674"/>
      <point x="279" y="674" type="curve" smooth="yes"/>
      <point x="358" y="674" type="line"/>
      <point x="358" y="710" type="line"/>
      <point x="29" y="710" type="line"/>
    </contour>
  </outline>
</glyph>
<glyph name="M" format="1">
  <advance width="926"/>
  <unicode hex="004D"/>
  <outline>
    <contour>
      <point x="15" y="674" type="line" name="hr00"/>
      <point x="75" y="674" type="line" smooth="yes"/>
      <point x="116" y="674"/>
      <point x="128" y="663"/>
      <point x="128" y="639" type="curve" smooth="yes"/>
      <point x="128" y="150" type="line" smooth="yes"/>
      <point x="128" y="67"/>
      <point x="102" y="43"/>
      <point x="15" y="36" type="curve"/>
      <point x="15" y="0" type="line"/>
      <point x="282" y="0" type="line"/>
      <point x="282" y="36" type="line"/>
      <point x="188" y="46"/>
      <point x="168" y="66"/>
      <point x="168" y="154" type="curve" smooth="yes"/>
      <point x="168" y="670" type="line"/>
      <point x="421" y="0" type="line"/>
      <point x="453" y="0" type="line"/>
      <point x="686" y="674" type="line"/>
      <point x="686" y="71" type="line" smooth="yes"/>
      <point x="686" y="51"/>
      <point x="672" y="36"/>
      <point x="637" y="36" type="curve" smooth="yes"/>
      <point x="576" y="36" type="line"/>
      <point x="576" y="0" type="line"/>
      <point x="900" y="0" type="line"/>
      <point x="900" y="36" type="line"/>
      <point x="847" y="36" type="line" smooth="yes"/>
      <point x="804" y="36"/>
      <point x="789" y="47"/>
      <point x="789" y="71" type="curve" smooth="yes"/>
      <point x="789" y="634" type="line" smooth="yes"/>
      <point x="789" y="663"/>
      <point x="799" y="674"/>
      <point x="842" y="674" type="curve" smooth="yes"/>
      <point x="900" y="674" type="line"/>
      <point x="900" y="710" type="line"/>
      <point x="659" y="710" type="line"/>
      <point x="463" y="150" type="line"/>
      <point x="252" y="710" type="line"/>
      <point x="15" y="710" type="line"/>
    </contour>
  </outline>
</glyph>
<glyph name="N" format="1">
  <advance width="801"/>
  <unicode hex="004E"/>
  <outline>
    <contour>
      <point x="27" y="674" type="line" name="hr00"/>
      <point x="59" y="674" type="line" smooth="yes"/>
      <point x="73" y="674"/>
      <point x="85" y="671"/>
      <point x="94" y="666" type="curve"/>
      <point x="101" y="665"/>
      <point x="113" y="655"/>
      <point x="129" y="636" type="curve"/>
      <point x="137" y="629" type="line"/>
      <point x="137" y="146" type="line" smooth="yes"/>
      <point x="137" y="86"/>
      <point x="96" y="40"/>
      <point x="27" y="36" type="curve"/>
      <point x="27" y="0" type="line"/>
      <point x="298" y="0" type="line"/>
      <point x="298" y="36" type="line"/>
      <point x="217" y="39"/>
      <point x="179" y="76"/>
      <point x="179" y="153" type="curve" smooth="yes"/>
      <point x="179" y="579" type="line"/>
      <point x="621" y="0" type="line"/>
      <point x="666" y="0" type="line"/>
      <point x="666" y="564" type="line" smooth="yes"/>
      <point x="666" y="609"/>
      <point x="687" y="650"/>
      <point x="712" y="663" type="curve" smooth="yes"/>
      <point x="725" y="670"/>
      <point x="744" y="674"/>
      <point x="770" y="674" type="curve"/>
      <point x="770" y="710" type="line"/>
      <point x="521" y="710" type="line"/>
      <point x="521" y="674" type="line"/>
      <point x="554" y="673"/>
      <point x="579" y="664"/>
      <point x="596" y="647" type="curve" smooth="yes"/>
      <point x="615" y="627"/>
      <point x="625" y="597"/>
      <point x="625" y="556" type="curve" smooth="yes"/>
      <point x="625" y="153" type="line"/>
      <point x="196" y="710" type="line"/>
      <point x="27" y="710" type="line"/>
    </contour>
  </outline>
</glyph>
<glyph name="O" format="1">
  <advance width="737"/>
  <unicode hex="004F"/>
  <outline>
    <contour>
      <point x="369" y="682" type="curve" smooth="yes" name="hr00"/>
      <point x="487" y="679"/>
      <point x="578" y="594"/>
      <point x="576" y="342" type="curve" smooth="yes"/>
      <point x="575" y="106"/>
      <point x="485" y="14"/>
      <point x="366" y="14" type="curve" smooth="yes"/>
      <point x="308" y="14"/>
      <point x="258" y="38"/>
      <point x="219" y="86" type="curve" smooth="yes"/>
      <point x="179" y="135"/>
      <point x="160" y="223"/>
      <point x="160" y="351" type="curve" smooth="yes"/>
      <point x="160" y="468"/>
      <point x="179" y="552"/>
      <point x="217" y="604" type="curve" smooth="yes"/>
      <point x="256" y="656"/>
      <point x="306" y="684"/>
    </contour>
    <contour>
      <point x="361" y="719" type="curve" smooth="yes"/>
      <point x="306" y="718"/>
      <point x="253" y="703"/>
      <point x="202" y="671" type="curve" smooth="yes"/>
      <point x="151" y="639"/>
      <point x="111" y="595"/>
      <point x="82" y="539" type="curve" smooth="yes"/>
      <point x="53" y="483"/>
      <point x="38" y="420"/>
      <point x="38" y="351" type="curve" smooth="yes"/>
      <point x="38" y="280"/>
      <point x="52" y="216"/>
      <point x="83" y="157" type="curve" smooth="yes"/>
      <point x="113" y="99"/>
      <point x="154" y="54"/>
      <point x="204" y="23" type="curve" smooth="yes"/>
      <point x="254" y="-8"/>
      <point x="308" y="-22"/>
      <point x="365" y="-23" type="curve" smooth="yes"/>
      <point x="537" y="-27"/>
      <point x="699" y="137"/>
      <point x="698" y="350" type="curve" smooth="yes"/>
      <point x="698" y="560"/>
      <point x="540" y="722"/>
    </contour>
  </outline>
</glyph>
<glyph name="P" format="1">
  <advance width="646"/>
  <unicode hex="0050"/>
  <outline>
    <contour>
      <point x="238" y="634" type="line" smooth="yes" name="hr00"/>
      <point x="238" y="666"/>
      <point x="248" y="678"/>
      <point x="320" y="678" type="curve" smooth="yes"/>
      <point x="427" y="678"/>
      <point x="465" y="658"/>
      <point x="488" y="614" type="curve" smooth="yes"/>
      <point x="500" y="592"/>
      <point x="506" y="561"/>
      <point x="506" y="520" type="curve" smooth="yes"/>
      <point x="506" y="403"/>
      <point x="457" y="356"/>
      <point x="334" y="356" type="curve" smooth="yes"/>
      <point x="238" y="356" type="line"/>
    </contour>
    <contour>
      <point x="24" y="674" type="line"/>
      <point x="76" y="674" type="line" smooth="yes"/>
      <point x="123" y="674"/>
      <point x="135" y="663"/>
      <point x="135" y="634" type="curve" smooth="yes"/>
      <point x="135" y="67" type="line" smooth="yes"/>
      <point x="135" y="47"/>
      <point x="123" y="36"/>
      <point x="95" y="36" type="curve" smooth="yes"/>
      <point x="24" y="36" type="line"/>
      <point x="24" y="0" type="line"/>
      <point x="365" y="0" type="line"/>
      <point x="365" y="36" type="line"/>
      <point x="283" y="36" type="line" smooth="yes"/>
      <point x="268" y="36"/>
      <point x="257" y="40"/>
      <point x="248" y="48" type="curve" smooth="yes"/>
      <point x="241" y="53"/>
      <point x="238" y="63"/>
      <point x="238" y="78" type="curve" smooth="yes"/>
      <point x="238" y="320" type="line"/>
      <point x="365" y="320" type="line" smooth="yes"/>
      <point x="443" y="320"/>
      <point x="508" y="340"/>
      <point x="561" y="382" type="curve" smooth="yes"/>
      <point x="599" y="412"/>
      <point x="618" y="458"/>
      <point x="618" y="516" type="curve" smooth="yes"/>
      <point x="618" y="632"/>
      <point x="531" y="710"/>
      <point x="374" y="710" type="curve" smooth="yes"/>
      <point x="24" y="710" type="line"/>
    </contour>
  </outline>
</glyph>
<glyph name="Q" format="1">
  <advance width="744"/>
  <unicode hex="0051"/>
  <outline>
    <contour>
      <point x="466" y="-14" type="curve" name="hr00"/>
      <point x="435" y="-34"/>
      <point x="403" y="-43"/>
      <point x="364" y="-43" type="curve" smooth="yes"/>
      <point x="339" y="-43"/>
      <point x="315" y="-38"/>
      <point x="292" y="-29" type="curve"/>
      <point x="268" y="-1"/>
      <point x="256" y="28"/>
      <point x="256" y="57" type="curve" smooth="yes"/>
      <point x="256" y="120"/>
      <point x="297" y="161"/>
      <point x="360" y="161" type="curve" smooth="yes"/>
      <point x="397" y="161"/>
      <point x="424" y="144"/>
      <point x="443" y="111" type="curve" smooth="yes"/>
      <point x="458" y="84"/>
      <point x="465" y="43"/>
    </contour>
    <contour>
      <point x="524" y="47" type="curve"/>
      <point x="506" y="100"/>
      <point x="487" y="136"/>
      <point x="466" y="156" type="curve" smooth="yes"/>
      <point x="437" y="184"/>
      <point x="402" y="198"/>
      <point x="361" y="198" type="curve" smooth="yes"/>
      <point x="277" y="198"/>
      <point x="222" y="142"/>
      <point x="222" y="61" type="curve" smooth="yes"/>
      <point x="222" y="53"/>
      <point x="223" y="42"/>
      <point x="224" y="27" type="curve"/>
      <point x="179" y="100"/>
      <point x="160" y="177"/>
      <point x="159" y="292" type="curve" smooth="yes"/>
      <point x="158" y="536"/>
      <point x="244" y="625"/>
      <point x="366" y="625" type="curve" smooth="yes"/>
      <point x="486" y="625"/>
      <point x="576" y="536"/>
      <point x="575" y="296" type="curve" smooth="yes"/>
      <point x="574" y="181"/>
      <point x="559" y="112"/>
    </contour>
    <contour>
      <point x="549" y="-19" type="curve"/>
      <point x="649" y="65"/>
      <point x="695" y="161"/>
      <point x="695" y="292" type="curve" smooth="yes"/>
      <point x="696" y="505"/>
      <point x="540" y="664"/>
      <point x="364" y="661" type="curve" smooth="yes"/>
      <point x="274" y="659"/>
      <point x="197" y="629"/>
      <point x="137" y="563" type="curve" smooth="yes"/>
      <point x="69" y="490"/>
      <point x="39" y="401"/>
      <point x="37" y="298" type="curve" smooth="yes"/>
      <point x="34" y="77"/>
      <point x="190" y="-79"/>
      <point x="366" y="-76" type="curve" smooth="yes"/>
      <point x="398" y="-75"/>
      <point x="430" y="-72"/>
      <point x="466" y="-64" type="curve"/>
      <point x="473" y="-139"/>
      <point x="486" y="-189"/>
      <point x="506" y="-215" type="curve" smooth="yes"/>
      <point x="527" y="-242"/>
      <point x="554" y="-255"/>
      <point x="588" y="-255" type="curve" smooth="yes"/>
      <point x="657" y="-255"/>
      <point x="706" y="-203"/>
      <point x="707" y="-87" type="curve"/>
      <point x="679" y="-87" type="line"/>
      <point x="676" y="-151"/>
      <point x="657" y="-175"/>
      <point x="632" y="-175" type="curve" smooth="yes"/>
      <point x="619" y="-175"/>
      <point x="608" y="-169"/>
      <point x="598" y="-156" type="curve" smooth="yes"/>
      <point x="588" y="-143"/>
      <point x="577" y="-116"/>
      <point x="566" y="-73" type="curve" smooth="yes"/>
      <point x="560" y="-51"/>
      <point x="554" y="-33"/>
    </contour>
  </outline>
</glyph>
<glyph name="R" format="1">
  <advance width="715"/>
  <unicode hex="0052"/>
  <outline>
    <contour>
      <point x="240" y="638" type="line" smooth="yes" name="hr00"/>
      <point x="240" y="651"/>
      <point x="245" y="659"/>
      <point x="254" y="664" type="curve" smooth="yes"/>
      <point x="263" y="669"/>
      <point x="286" y="671"/>
      <point x="323" y="671" type="curve" smooth="yes"/>
      <point x="381" y="671"/>
      <point x="420" y="666"/>
      <point x="439" y="659" type="curve" smooth="yes"/>
      <point x="459" y="651"/>
      <point x="475" y="637"/>
      <point x="486" y="615" type="curve" smooth="yes"/>
      <point x="498" y="593"/>
      <point x="504" y="563"/>
      <point x="504" y="526" type="curve" smooth="yes"/>
      <point x="504" y="419"/>
      <point x="437" y="381"/>
      <point x="325" y="381" type="curve" smooth="yes"/>
      <point x="240" y="381" type="line"/>
    </contour>
    <contour>
      <point x="24" y="671" type="line"/>
      <point x="93" y="671" type="line" smooth="yes"/>
      <point x="124" y="671"/>
      <point x="138" y="659"/>
      <point x="138" y="635" type="curve" smooth="yes"/>
      <point x="138" y="67" type="line" smooth="yes"/>
      <point x="138" y="47"/>
      <point x="124" y="34"/>
      <point x="93" y="34" type="curve" smooth="yes"/>
      <point x="24" y="34" type="line"/>
      <point x="24" y="-3" type="line"/>
      <point x="355" y="-3" type="line"/>
      <point x="355" y="34" type="line"/>
      <point x="285" y="34" type="line" smooth="yes"/>
      <point x="269" y="34"/>
      <point x="257" y="37"/>
      <point x="250" y="43" type="curve" smooth="yes"/>
      <point x="243" y="48"/>
      <point x="240" y="56"/>
      <point x="240" y="67" type="curve" smooth="yes"/>
      <point x="240" y="347" type="line"/>
      <point x="299" y="347" type="line" smooth="yes"/>
      <point x="360" y="347"/>
      <point x="405" y="323"/>
      <point x="426" y="286" type="curve" smooth="yes"/>
      <point x="437" y="268"/>
      <point x="444" y="238"/>
      <point x="449" y="196" type="curve" smooth="yes"/>
      <point x="457" y="123"/>
      <point x="465" y="78"/>
      <point x="472" y="60" type="curve" smooth="yes"/>
      <point x="489" y="15"/>
      <point x="524" y="-9"/>
      <point x="572" y="-9" type="curve" smooth="yes"/>
      <point x="647" y="-9"/>
      <point x="687" y="45"/>
      <point x="692" y="154" type="curve"/>
      <point x="659" y="154" type="line"/>
      <point x="656" y="81"/>
      <point x="636" y="54"/>
      <point x="615" y="54" type="curve" smooth="yes"/>
      <point x="606" y="54"/>
      <point x="597" y="60"/>
      <point x="588" y="73" type="curve" smooth="yes"/>
      <point x="579" y="88"/>
      <point x="568" y="117"/>
      <point x="558" y="158" type="curve" smooth="yes"/>
      <point x="544" y="217"/>
      <point x="533" y="255"/>
      <point x="522" y="274" type="curve" smooth="yes"/>
      <point x="511" y="293"/>
      <point x="498" y="309"/>
      <point x="481" y="321" type="curve" smooth="yes"/>
      <point x="464" y="334"/>
      <point x="433" y="346"/>
      <point x="386" y="359" type="curve"/>
      <point x="450" y="364"/>
      <point x="496" y="374"/>
      <point x="525" y="389" type="curve" smooth="yes"/>
      <point x="554" y="404"/>
      <point x="576" y="423"/>
      <point x="591" y="448" type="curve" smooth="yes"/>
      <point x="607" y="473"/>
      <point x="615" y="501"/>
      <point x="615" y="533" type="curve" smooth="yes"/>
      <point x="615" y="637"/>
      <point x="532" y="708"/>
      <point x="391" y="708" type="curve" smooth="yes"/>
      <point x="24" y="708" type="line"/>
    </contour>
  </outline>
</glyph>
<glyph name="S" format="1">
  <advance width="588"/>
  <unicode hex="0053"/>
  <outline>
    <contour>
      <point x="427" y="652" type="line" name="hr00"/>
      <point x="372" y="700"/>
      <point x="319" y="721"/>
      <point x="260" y="721" type="curve" smooth="yes"/>
      <point x="198" y="721"/>
      <point x="147" y="701"/>
      <point x="107" y="660" type="curve" smooth="yes"/>
      <point x="67" y="620"/>
      <point x="47" y="569"/>
      <point x="47" y="507" type="curve" smooth="yes"/>
      <point x="47" y="447"/>
      <point x="67" y="400"/>
      <point x="106" y="368" type="curve" smooth="yes"/>
      <point x="135" y="344"/>
      <point x="189" y="325"/>
      <point x="268" y="306" type="curve" smooth="yes"/>
      <point x="339" y="289"/>
      <point x="386" y="274"/>
      <point x="410" y="263" type="curve" smooth="yes"/>
      <point x="435" y="251"/>
      <point x="453" y="237"/>
      <point x="464" y="220" type="curve" smooth="yes"/>
      <point x="476" y="203"/>
      <point x="482" y="183"/>
      <point x="482" y="161" type="curve" smooth="yes"/>
      <point x="482" y="121"/>
      <point x="467" y="87"/>
      <point x="436" y="59" type="curve" smooth="yes"/>
      <point x="406" y="31"/>
      <point x="367" y="17"/>
      <point x="320" y="17" type="curve" smooth="yes"/>
      <point x="261" y="17"/>
      <point x="208" y="39"/>
      <point x="161" y="83" type="curve" smooth="yes"/>
      <point x="114" y="127"/>
      <point x="85" y="187"/>
      <point x="72" y="262" type="curve"/>
      <point x="37" y="262" type="line"/>
      <point x="37" y="-13" type="line"/>
      <point x="72" y="-13" type="line"/>
      <point x="125" y="53" type="line"/>
      <point x="180" y="6"/>
      <point x="244" y="-18"/>
      <point x="317" y="-18" type="curve" smooth="yes"/>
      <point x="385" y="-18"/>
      <point x="440" y="3"/>
      <point x="483" y="45" type="curve" smooth="yes"/>
      <point x="526" y="88"/>
      <point x="548" y="141"/>
      <point x="548" y="205" type="curve" smooth="yes"/>
      <point x="548" y="276"/>
      <point x="517" y="329"/>
      <point x="453" y="364" type="curve" smooth="yes"/>
      <point x="421" y="382"/>
      <point x="366" y="400"/>
      <point x="287" y="417" type="curve" smooth="yes"/>
      <point x="230" y="430"/>
      <point x="192" y="441"/>
      <point x="172" y="451" type="curve" smooth="yes"/>
      <point x="152" y="462"/>
      <point x="137" y="475"/>
      <point x="126" y="492" type="curve" smooth="yes"/>
      <point x="116" y="509"/>
      <point x="111" y="530"/>
      <point x="111" y="553" type="curve" smooth="yes"/>
      <point x="111" y="626"/>
      <point x="170" y="683"/>
      <point x="255" y="683" type="curve" smooth="yes"/>
      <point x="356" y="683"/>
      <point x="438" y="612"/>
      <point x="478" y="455" type="curve"/>
      <point x="509" y="455" type="line"/>
      <point x="505" y="714" type="line"/>
      <point x="471" y="714" type="line"/>
    </contour>
  </outline>
</glyph>
<glyph name="T" format="1">
  <advance width="655"/>
  <unicode hex="0054"/>
  <outline>
    <contour>
      <point x="25" y="442" type="line" name="hr00"/>
      <point x="60" y="442" type="line"/>
      <point x="71" y="520"/>
      <point x="90" y="577"/>
      <point x="116" y="613" type="curve" smooth="yes"/>
      <point x="147" y="656"/>
      <point x="185" y="678"/>
      <point x="231" y="678" type="curve" smooth="yes"/>
      <point x="264" y="678"/>
      <point x="279" y="666"/>
      <point x="279" y="642" type="curve" smooth="yes"/>
      <point x="279" y="65" type="line" smooth="yes"/>
      <point x="279" y="48"/>
      <point x="267" y="36"/>
      <point x="244" y="36" type="curve" smooth="yes"/>
      <point x="164" y="36" type="line"/>
      <point x="164" y="0" type="line"/>
      <point x="492" y="0" type="line"/>
      <point x="492" y="36" type="line"/>
      <point x="420" y="36" type="line" smooth="yes"/>
      <point x="389" y="36"/>
      <point x="379" y="46"/>
      <point x="379" y="69" type="curve" smooth="yes"/>
      <point x="379" y="638" type="line" smooth="yes"/>
      <point x="379" y="667"/>
      <point x="388" y="678"/>
      <point x="427" y="678" type="curve" smooth="yes"/>
      <point x="520" y="678"/>
      <point x="576" y="599"/>
      <point x="597" y="442" type="curve"/>
      <point x="630" y="442" type="line"/>
      <point x="616" y="710" type="line"/>
      <point x="41" y="710" type="line"/>
    </contour>
  </outline>
</glyph>
<glyph name="U" format="1">
  <advance width="799"/>
  <unicode hex="0055"/>
  <outline>
    <contour>
      <point x="24" y="669" type="line" name="hr00"/>
      <point x="91" y="669" type="line" smooth="yes"/>
      <point x="123" y="669"/>
      <point x="137" y="656"/>
      <point x="137" y="635" type="curve" smooth="yes"/>
      <point x="137" y="206" type="line" smooth="yes"/>
      <point x="137" y="163"/>
      <point x="144" y="127"/>
      <point x="158" y="99" type="curve" smooth="yes"/>
      <point x="194" y="24"/>
      <point x="269" y="-18"/>
      <point x="412" y="-18" type="curve" smooth="yes"/>
      <point x="493" y="-18"/>
      <point x="556" y="6"/>
      <point x="606" y="52" type="curve" smooth="yes"/>
      <point x="649" y="92"/>
      <point x="672" y="150"/>
      <point x="672" y="227" type="curve" smooth="yes"/>
      <point x="672" y="574" type="line" smooth="yes"/>
      <point x="672" y="637"/>
      <point x="701" y="669"/>
      <point x="762" y="669" type="curve" smooth="yes"/>
      <point x="781" y="669" type="line"/>
      <point x="781" y="705" type="line"/>
      <point x="511" y="705" type="line"/>
      <point x="511" y="669" type="line"/>
      <point x="567" y="669"/>
      <point x="584" y="662"/>
      <point x="599" y="645" type="curve" smooth="yes"/>
      <point x="614" y="629"/>
      <point x="622" y="601"/>
      <point x="622" y="546" type="curve" smooth="yes"/>
      <point x="622" y="219" type="line" smooth="yes"/>
      <point x="622" y="107"/>
      <point x="551" y="35"/>
      <point x="423" y="35" type="curve" smooth="yes"/>
      <point x="330" y="35"/>
      <point x="271" y="75"/>
      <point x="250" y="139" type="curve" smooth="yes"/>
      <point x="243" y="160"/>
      <point x="239" y="192"/>
      <point x="239" y="235" type="curve" smooth="yes"/>
      <point x="239" y="635" type="line" smooth="yes"/>
      <point x="239" y="659"/>
      <point x="251" y="669"/>
      <point x="286" y="669" type="curve" smooth="yes"/>
      <point x="352" y="669" type="line"/>
      <point x="352" y="705" type="line"/>
      <point x="24" y="705" type="line"/>
    </contour>
  </outline>
</glyph>
<glyph name="V" format="1">
  <advance width="768"/>
  <unicode hex="0056"/>
  <outline>
    <contour>
      <point x="20" y="668" type="line" name="hr00"/>
      <point x="43" y="668" type="line" smooth="yes"/>
      <point x="82" y="668"/>
      <point x="103" y="655"/>
      <point x="120" y="612" type="curve" smooth="yes"/>
      <point x="370" y="-22" type="line"/>
      <point x="405" y="-22" type="line"/>
      <point x="625" y="570" type="line" smooth="yes"/>
      <point x="651" y="641"/>
      <point x="683" y="668"/>
      <point x="715" y="668" type="curve" smooth="yes"/>
      <point x="737" y="668" type="line"/>
      <point x="737" y="704" type="line"/>
      <point x="475" y="704" type="line"/>
      <point x="475" y="668" type="line"/>
      <point x="523" y="668" type="line" smooth="yes"/>
      <point x="559" y="668"/>
      <point x="583" y="648"/>
      <point x="583" y="612" type="curve" smooth="yes"/>
      <point x="583" y="599"/>
      <point x="580" y="587"/>
      <point x="577" y="578" type="curve" smooth="yes"/>
      <point x="411" y="126" type="line"/>
      <point x="225" y="600" type="line"/>
      <point x="221" y="611" type="line" smooth="yes"/>
      <point x="216" y="624"/>
      <point x="212" y="633"/>
      <point x="212" y="640" type="curve" smooth="yes"/>
      <point x="212" y="657"/>
      <point x="224" y="668"/>
      <point x="268" y="668" type="curve" smooth="yes"/>
      <point x="319" y="668" type="line"/>
      <point x="319" y="704" type="line"/>
      <point x="20" y="704" type="line"/>
    </contour>
  </outline>
</glyph>
<glyph name="W" format="1">
  <advance width="972"/>
  <unicode hex="0057"/>
  <outline>
    <contour>
      <point x="15" y="668" type="line" name="hr00"/>
      <point x="60" y="668"/>
      <point x="74" y="659"/>
      <point x="90" y="608" type="curve" smooth="yes"/>
      <point x="290" y="-22" type="line"/>
      <point x="326" y="-22" type="line"/>
      <point x="482" y="498" type="line"/>
      <point x="646" y="-22" type="line"/>
      <point x="680" y="-22" type="line"/>
      <point x="855" y="561" type="line" smooth="yes"/>
      <point x="881" y="647"/>
      <point x="899" y="657"/>
      <point x="956" y="668" type="curve"/>
      <point x="956" y="704" type="line"/>
      <point x="733" y="704" type="line"/>
      <point x="733" y="668" type="line"/>
      <point x="756" y="668" type="line" smooth="yes"/>
      <point x="795" y="668"/>
      <point x="813" y="650"/>
      <point x="813" y="605" type="curve" smooth="yes"/>
      <point x="813" y="592"/>
      <point x="812" y="577"/>
      <point x="807" y="561" type="curve" smooth="yes"/>
      <point x="685" y="157" type="line"/>
      <point x="539" y="623" type="line" smooth="yes"/>
      <point x="537" y="630"/>
      <point x="536" y="636"/>
      <point x="536" y="643" type="curve" smooth="yes"/>
      <point x="536" y="660"/>
      <point x="548" y="668"/>
      <point x="600" y="668" type="curve" smooth="yes"/>
      <point x="631" y="668" type="line"/>
      <point x="631" y="704" type="line"/>
      <point x="335" y="704" type="line"/>
      <point x="335" y="668" type="line"/>
      <point x="378" y="668" type="line" smooth="yes"/>
      <point x="401" y="668"/>
      <point x="417" y="664"/>
      <point x="424" y="656" type="curve" smooth="yes"/>
      <point x="432" y="648"/>
      <point x="444" y="620"/>
      <point x="460" y="573" type="curve"/>
      <point x="333" y="157" type="line"/>
      <point x="187" y="608" type="line"/>
      <point x="184" y="617" type="line" smooth="yes"/>
      <point x="180" y="630"/>
      <point x="177" y="639"/>
      <point x="177" y="644" type="curve" smooth="yes"/>
      <point x="177" y="661"/>
      <point x="186" y="668"/>
      <point x="235" y="668" type="curve" smooth="yes"/>
      <point x="252" y="668" type="line"/>
      <point x="252" y="704" type="line"/>
      <point x="15" y="704" type="line"/>
    </contour>
  </outline>
</glyph>
<glyph name="X" format="1">
  <advance width="720"/>
  <unicode hex="0058"/>
  <outline>
    <contour>
      <point x="24" y="674" type="line" name="hr00"/>
      <point x="50" y="673"/>
      <point x="69" y="670"/>
      <point x="80" y="664" type="curve"/>
      <point x="92" y="659"/>
      <point x="105" y="645"/>
      <point x="121" y="622" type="curve" smooth="yes"/>
      <point x="316" y="343" type="line"/>
      <point x="165" y="127" type="line" smooth="yes"/>
      <point x="121" y="64"/>
      <point x="81" y="39"/>
      <point x="24" y="36" type="curve"/>
      <point x="24" y="0" type="line"/>
      <point x="295" y="0" type="line"/>
      <point x="295" y="36" type="line"/>
      <point x="268" y="36" type="line" smooth="yes"/>
      <point x="228" y="36"/>
      <point x="208" y="53"/>
      <point x="208" y="84" type="curve" smooth="yes"/>
      <point x="208" y="103"/>
      <point x="217" y="125"/>
      <point x="234" y="150" type="curve" smooth="yes"/>
      <point x="342" y="303" type="line"/>
      <point x="485" y="92" type="line" smooth="yes"/>
      <point x="495" y="78"/>
      <point x="500" y="67"/>
      <point x="500" y="60" type="curve" smooth="yes"/>
      <point x="500" y="48"/>
      <point x="490" y="36"/>
      <point x="450" y="36" type="curve" smooth="yes"/>
      <point x="412" y="36" type="line"/>
      <point x="412" y="0" type="line"/>
      <point x="693" y="0" type="line"/>
      <point x="693" y="36" type="line"/>
      <point x="646" y="39"/>
      <point x="632" y="45"/>
      <point x="620" y="62" type="curve" smooth="yes"/>
      <point x="396" y="386" type="line"/>
      <point x="542" y="599" type="line" smooth="yes"/>
      <point x="561" y="626"/>
      <point x="581" y="648"/>
      <point x="602" y="660" type="curve" smooth="yes"/>
      <point x="619" y="670"/>
      <point x="641" y="674"/>
      <point x="670" y="674" type="curve"/>
      <point x="670" y="710" type="line"/>
      <point x="412" y="710" type="line"/>
      <point x="412" y="674" type="line"/>
      <point x="476" y="673"/>
      <point x="493" y="658"/>
      <point x="493" y="633" type="curve" smooth="yes"/>
      <point x="493" y="620"/>
      <point x="488" y="604"/>
      <point x="474" y="583" type="curve" smooth="yes"/>
      <point x="370" y="425" type="line"/>
      <point x="234" y="625" type="line" smooth="yes"/>
      <point x="225" y="639"/>
      <point x="220" y="648"/>
      <point x="220" y="652" type="curve" smooth="yes"/>
      <point x="220" y="665"/>
      <point x="232" y="674"/>
      <point x="281" y="674" type="curve" smooth="yes"/>
      <point x="316" y="674" type="line"/>
      <point x="316" y="710" type="line"/>
      <point x="24" y="710" type="line"/>
    </contour>
  </outline>
</glyph>
<glyph name="Y" format="1">
  <advance width="756"/>
  <unicode hex="0059"/>
  <outline>
    <contour>
      <point x="24" y="674" type="line" name="hr00"/>
      <point x="84" y="673"/>
      <point x="104" y="664"/>
      <point x="123" y="634" type="curve" smooth="yes"/>
      <point x="343" y="290" type="line"/>
      <point x="343" y="71" type="line" smooth="yes"/>
      <point x="343" y="48"/>
      <point x="329" y="36"/>
      <point x="292" y="36" type="curve" smooth="yes"/>
      <point x="229" y="36" type="line"/>
      <point x="229" y="0" type="line"/>
      <point x="555" y="0" type="line"/>
      <point x="555" y="36" type="line"/>
      <point x="493" y="36" type="line" smooth="yes"/>
      <point x="476" y="36"/>
      <point x="462" y="40"/>
      <point x="453" y="47" type="curve" smooth="yes"/>
      <point x="446" y="51"/>
      <point x="443" y="59"/>
      <point x="443" y="71" type="curve" smooth="yes"/>
      <point x="443" y="296" type="line"/>
      <point x="606" y="596" type="line" smooth="yes"/>
      <point x="639" y="657"/>
      <point x="669" y="674"/>
      <point x="732" y="674" type="curve"/>
      <point x="732" y="710" type="line"/>
      <point x="461" y="710" type="line"/>
      <point x="461" y="674" type="line"/>
      <point x="493" y="674" type="line" smooth="yes"/>
      <point x="534" y="674"/>
      <point x="557" y="652"/>
      <point x="557" y="620" type="curve" smooth="yes"/>
      <point x="557" y="607"/>
      <point x="554" y="595"/>
      <point x="549" y="585" type="curve" smooth="yes"/>
      <point x="418" y="346" type="line"/>
      <point x="238" y="626" type="line" smooth="yes"/>
      <point x="233" y="633"/>
      <point x="231" y="640"/>
      <point x="231" y="649" type="curve" smooth="yes"/>
      <point x="231" y="665"/>
      <point x="243" y="674"/>
      <point x="300" y="674" type="curve" smooth="yes"/>
      <point x="335" y="674" type="line"/>
      <point x="335" y="710" type="line"/>
      <point x="24" y="710" type="line"/>
    </contour>
  </outline>
</glyph>
<glyph name="Z" format="1">
  <advance width="600"/>
  <unicode hex="005A"/>
  <outline>
    <contour>
      <point x="57" y="464" type="line" name="hr00"/>
      <point x="90" y="464" type="line"/>
      <point x="105" y="573"/>
      <point x="145" y="636"/>
      <point x="204" y="661" type="curve" smooth="yes"/>
      <point x="227" y="670"/>
      <point x="258" y="674"/>
      <point x="297" y="674" type="curve" smooth="yes"/>
      <point x="444" y="674" type="line"/>
      <point x="34" y="32" type="line"/>
      <point x="34" y="0" type="line"/>
      <point x="547" y="0" type="line"/>
      <point x="560" y="266" type="line"/>
      <point x="527" y="266" type="line"/>
      <point x="512" y="199"/>
      <point x="496" y="151"/>
      <point x="479" y="122" type="curve" smooth="yes"/>
      <point x="462" y="93"/>
      <point x="439" y="72"/>
      <point x="410" y="57" type="curve" smooth="yes"/>
      <point x="382" y="43"/>
      <point x="346" y="36"/>
      <point x="302" y="36" type="curve" smooth="yes"/>
      <point x="148" y="36" type="line"/>
      <point x="554" y="674" type="line"/>
      <point x="554" y="710" type="line"/>
      <point x="72" y="710" type="line"/>
    </contour>
  </outline>
</glyph>
<glyph name="bracketleft" format="1">
  <advance width="379"/>
  <unicode hex="005B"/>
  <outline>
    <contour>
      <point x="304" y="-302" type="line" name="hr00"/>
      <point x="304" y="-257" type="line"/>
      <point x="162" y="-257" type="line"/>
      <point x="162" y="775" type="line"/>
      <point x="304" y="775" type="line"/>
      <point x="304" y="819" type="line"/>
      <point x="69" y="819" type="line"/>
      <point x="69" y="-302" type="line"/>
    </contour>
  </outline>
</glyph>
<glyph name="backslash" format="1">
  <advance width="598"/>
  <unicode hex="005C"/>
  <outline>
    <contour>
      <point x="149" y="763" type="line" name="hr00"/>
      <point x="69" y="763" type="line"/>
      <point x="438" y="-227" type="line"/>
      <point x="520" y="-227" type="line"/>
    </contour>
  </outline>
</glyph>
<glyph name="bracketright" format="1">
  <advance width="379"/>
  <unicode hex="005D"/>
  <outline>
    <contour>
      <point x="304" y="819" type="line" name="hr00"/>
      <point x="69" y="819" type="line"/>
      <point x="69" y="775" type="line"/>
      <point x="210" y="775" type="line"/>
      <point x="210" y="-257" type="line"/>
      <point x="69" y="-257" type="line"/>
      <point x="69" y="-302" type="line"/>
      <point x="304" y="-302" type="line"/>
    </contour>
  </outline>
</glyph>
<glyph name="asciicircum" format="1">
  <advance width="588"/>
  <unicode hex="005E"/>
  <outline>
    <contour>
      <point x="69" y="145" type="line" name="hr00"/>
      <point x="96" y="145" type="line"/>
      <point x="291" y="359" type="line"/>
      <point x="481" y="145" type="line"/>
      <point x="508" y="145" type="line"/>
      <point x="326" y="465" type="line"/>
      <point x="248" y="465" type="line"/>
    </contour>
  </outline>
</glyph>
<glyph name="underscore" format="1">
  <advance width="703"/>
  <unicode hex="005F"/>
  <outline>
    <contour>
      <point x="69" y="-429" type="line" name="hr00"/>
      <point x="628" y="-429" type="line"/>
      <point x="628" y="-391" type="line"/>
      <point x="69" y="-391" type="line"/>
    </contour>
  </outline>
</glyph>
<glyph name="grave" format="1">
  <advance width="322"/>
  <unicode hex="0060"/>
  <outline>
    <contour>
      <point x="213" y="608" type="line" name="hr00"/>
      <point x="244" y="608" type="line"/>
      <point x="186" y="871" type="line"/>
      <point x="69" y="871" type="line"/>
    </contour>
  </outline>
</glyph>
<glyph name="a" format="1">
  <advance width="545"/>
  <unicode hex="0061"/>
  <outline>
    <contour>
      <point x="336" y="170" type="line" smooth="yes" name="hr00"/>
      <point x="336" y="127"/>
      <point x="322" y="91"/>
      <point x="294" y="62" type="curve" smooth="yes"/>
      <point x="267" y="33"/>
      <point x="234" y="19"/>
      <point x="195" y="19" type="curve" smooth="yes"/>
      <point x="155" y="19"/>
      <point x="125" y="48"/>
      <point x="125" y="99" type="curve" smooth="yes"/>
      <point x="125" y="134"/>
      <point x="138" y="161"/>
      <point x="164" y="180" type="curve" smooth="yes"/>
      <point x="197" y="205"/>
      <point x="254" y="224"/>
      <point x="336" y="235" type="curve"/>
    </contour>
    <contour>
      <point x="494" y="45" type="line"/>
      <point x="479" y="35"/>
      <point x="466" y="30"/>
      <point x="454" y="30" type="curve" smooth="yes"/>
      <point x="443" y="30"/>
      <point x="433" y="36"/>
      <point x="425" y="47" type="curve" smooth="yes"/>
      <point x="418" y="56"/>
      <point x="415" y="72"/>
      <point x="415" y="93" type="curve" smooth="yes"/>
      <point x="415" y="340" type="line" smooth="yes"/>
      <point x="415" y="373"/>
      <point x="401" y="401"/>
      <point x="374" y="424" type="curve" smooth="yes"/>
      <point x="345" y="447"/>
      <point x="305" y="459"/>
      <point x="252" y="459" type="curve" smooth="yes"/>
      <point x="194" y="459"/>
      <point x="147" y="446"/>
      <point x="111" y="419" type="curve" smooth="yes"/>
      <point x="75" y="393"/>
      <point x="57" y="364"/>
      <point x="57" y="333" type="curve" smooth="yes"/>
      <point x="57" y="298"/>
      <point x="80" y="273"/>
      <point x="113" y="273" type="curve" smooth="yes"/>
      <point x="144" y="273"/>
      <point x="164" y="295"/>
      <point x="164" y="324" type="curve" smooth="yes"/>
      <point x="164" y="333"/>
      <point x="159" y="345"/>
      <point x="149" y="358" type="curve" smooth="yes"/>
      <point x="142" y="367"/>
      <point x="138" y="375"/>
      <point x="138" y="380" type="curve" smooth="yes"/>
      <point x="138" y="389"/>
      <point x="145" y="397"/>
      <point x="160" y="406" type="curve" smooth="yes"/>
      <point x="180" y="417"/>
      <point x="204" y="423"/>
      <point x="232" y="423" type="curve" smooth="yes"/>
      <point x="293" y="423"/>
      <point x="336" y="383"/>
      <point x="336" y="334" type="curve" smooth="yes"/>
      <point x="336" y="266" type="line"/>
      <point x="245" y="256"/>
      <point x="171" y="235"/>
      <point x="116" y="204" type="curve" smooth="yes"/>
      <point x="61" y="173"/>
      <point x="34" y="135"/>
      <point x="34" y="88" type="curve" smooth="yes"/>
      <point x="34" y="28"/>
      <point x="82" y="-18"/>
      <point x="175" y="-18" type="curve" smooth="yes"/>
      <point x="207" y="-18"/>
      <point x="234" y="-13"/>
      <point x="257" y="-2" type="curve" smooth="yes"/>
      <point x="280" y="9"/>
      <point x="308" y="30"/>
      <point x="339" y="62" type="curve"/>
      <point x="360" y="3"/>
      <point x="389" y="-18"/>
      <point x="432" y="-18" type="curve" smooth="yes"/>
      <point x="461" y="-18"/>
      <point x="487" y="-6"/>
      <point x="510" y="18" type="curve"/>
    </contour>
  </outline>
</glyph>
<glyph name="b" format="1">
  <advance width="534"/>
  <unicode hex="0062"/>
  <outline>
    <contour>
      <point x="290" y="419" type="curve" smooth="yes" name="hr00"/>
      <point x="357" y="419"/>
      <point x="405" y="362"/>
      <point x="405" y="226" type="curve" smooth="yes"/>
      <point x="405" y="157"/>
      <point x="393" y="103"/>
      <point x="368" y="66" type="curve" smooth="yes"/>
      <point x="349" y="37"/>
      <point x="323" y="22"/>
      <point x="290" y="22" type="curve" smooth="yes"/>
      <point x="217" y="22"/>
      <point x="168" y="76"/>
      <point x="168" y="215" type="curve" smooth="yes"/>
      <point x="168" y="360"/>
      <point x="219" y="419"/>
    </contour>
    <contour>
      <point x="6" y="708" type="line"/>
      <point x="6" y="671" type="line"/>
      <point x="27" y="671" type="line" smooth="yes"/>
      <point x="67" y="671"/>
      <point x="89" y="654"/>
      <point x="89" y="621" type="curve" smooth="yes"/>
      <point x="89" y="113" type="line" smooth="yes"/>
      <point x="89" y="72"/>
      <point x="85" y="34"/>
      <point x="76" y="-3" type="curve"/>
      <point x="95" y="-9" type="line"/>
      <point x="112" y="10"/>
      <point x="130" y="33"/>
      <point x="149" y="62" type="curve"/>
      <point x="196" y="13"/>
      <point x="237" y="-9"/>
      <point x="292" y="-9" type="curve" smooth="yes"/>
      <point x="349" y="-9"/>
      <point x="398" y="13"/>
      <point x="437" y="58" type="curve" smooth="yes"/>
      <point x="476" y="103"/>
      <point x="496" y="163"/>
      <point x="496" y="236" type="curve" smooth="yes"/>
      <point x="496" y="303"/>
      <point x="478" y="358"/>
      <point x="441" y="399" type="curve" smooth="yes"/>
      <point x="405" y="440"/>
      <point x="361" y="461"/>
      <point x="308" y="461" type="curve" smooth="yes"/>
      <point x="253" y="461"/>
      <point x="208" y="434"/>
      <point x="169" y="381" type="curve"/>
      <point x="169" y="716" type="line"/>
    </contour>
  </outline>
</glyph>
<glyph name="c" format="1">
  <advance width="435"/>
  <unicode hex="0063"/>
  <outline>
    <contour>
      <point x="375" y="130" type="line" name="hr00"/>
      <point x="348" y="59"/>
      <point x="308" y="23"/>
      <point x="254" y="23" type="curve" smooth="yes"/>
      <point x="173" y="23"/>
      <point x="116" y="91"/>
      <point x="116" y="219" type="curve" smooth="yes"/>
      <point x="116" y="286"/>
      <point x="132" y="341"/>
      <point x="160" y="382" type="curve" smooth="yes"/>
      <point x="180" y="411"/>
      <point x="209" y="425"/>
      <point x="248" y="425" type="curve" smooth="yes"/>
      <point x="292" y="425"/>
      <point x="318" y="404"/>
      <point x="318" y="385" type="curve" smooth="yes"/>
      <point x="318" y="382"/>
      <point x="316" y="376"/>
      <point x="311" y="369" type="curve" smooth="yes"/>
      <point x="300" y="357"/>
      <point x="294" y="344"/>
      <point x="294" y="331" type="curve" smooth="yes"/>
      <point x="294" y="300"/>
      <point x="317" y="279"/>
      <point x="346" y="279" type="curve" smooth="yes"/>
      <point x="375" y="279"/>
      <point x="399" y="306"/>
      <point x="399" y="342" type="curve" smooth="yes"/>
      <point x="399" y="371"/>
      <point x="385" y="397"/>
      <point x="356" y="422" type="curve" smooth="yes"/>
      <point x="327" y="447"/>
      <point x="291" y="459"/>
      <point x="247" y="459" type="curve" smooth="yes"/>
      <point x="188" y="459"/>
      <point x="137" y="437"/>
      <point x="93" y="393" type="curve" smooth="yes"/>
      <point x="50" y="350"/>
      <point x="28" y="288"/>
      <point x="28" y="209" type="curve" smooth="yes"/>
      <point x="28" y="140"/>
      <point x="48" y="85"/>
      <point x="87" y="44" type="curve" smooth="yes"/>
      <point x="127" y="3"/>
      <point x="178" y="-18"/>
      <point x="241" y="-18" type="curve" smooth="yes"/>
      <point x="326" y="-18"/>
      <point x="381" y="28"/>
      <point x="405" y="121" type="curve"/>
    </contour>
  </outline>
</glyph>
<glyph name="d" format="1">
  <advance width="544"/>
  <unicode hex="0064"/>
  <outline>
    <contour>
      <point x="232" y="421" type="curve" smooth="yes" name="hr00"/>
      <point x="265" y="421"/>
      <point x="294" y="406"/>
      <point x="317" y="375" type="curve" smooth="yes"/>
      <point x="344" y="340"/>
      <point x="358" y="293"/>
      <point x="358" y="232" type="curve" smooth="yes"/>
      <point x="358" y="104"/>
      <point x="299" y="35"/>
      <point x="231" y="35" type="curve" smooth="yes"/>
      <point x="164" y="35"/>
      <point x="120" y="87"/>
      <point x="120" y="235" type="curve" smooth="yes"/>
      <point x="120" y="370"/>
      <point x="161" y="421"/>
    </contour>
    <contour>
      <point x="260" y="671" type="line"/>
      <point x="292" y="671" type="line" smooth="yes"/>
      <point x="335" y="671"/>
      <point x="357" y="654"/>
      <point x="357" y="629" type="curve" smooth="yes"/>
      <point x="357" y="373" type="line"/>
      <point x="322" y="432"/>
      <point x="276" y="461"/>
      <point x="219" y="461" type="curve" smooth="yes"/>
      <point x="172" y="461"/>
      <point x="130" y="443"/>
      <point x="94" y="408" type="curve" smooth="yes"/>
      <point x="48" y="363"/>
      <point x="25" y="302"/>
      <point x="25" y="226" type="curve" smooth="yes"/>
      <point x="25" y="156"/>
      <point x="43" y="99"/>
      <point x="79" y="56" type="curve" smooth="yes"/>
      <point x="115" y="13"/>
      <point x="158" y="-9"/>
      <point x="209" y="-9" type="curve" smooth="yes"/>
      <point x="272" y="-9"/>
      <point x="318" y="25"/>
      <point x="357" y="89" type="curve"/>
      <point x="368" y="-3" type="line"/>
      <point x="521" y="-3" type="line"/>
      <point x="521" y="34" type="line"/>
      <point x="489" y="34" type="line" smooth="yes"/>
      <point x="454" y="34"/>
      <point x="436" y="52"/>
      <point x="436" y="101" type="curve" smooth="yes"/>
      <point x="436" y="716" type="line"/>
      <point x="260" y="708" type="line"/>
    </contour>
  </outline>
</glyph>
<glyph name="e" format="1">
  <advance width="475"/>
  <unicode hex="0065"/>
  <outline>
    <contour>
      <point x="116" y="251" type="line" name="hr00"/>
      <point x="117" y="371"/>
      <point x="169" y="430"/>
      <point x="236" y="430" type="curve" smooth="yes"/>
      <point x="267" y="430"/>
      <point x="293" y="418"/>
      <point x="314" y="393" type="curve" smooth="yes"/>
      <point x="335" y="368"/>
      <point x="346" y="338"/>
      <point x="346" y="303" type="curve" smooth="yes"/>
      <point x="346" y="266"/>
      <point x="333" y="251"/>
      <point x="310" y="251" type="curve" smooth="yes"/>
    </contour>
    <contour>
      <point x="437" y="218" type="line"/>
      <point x="436" y="262"/>
      <point x="430" y="299"/>
      <point x="419" y="329" type="curve" smooth="yes"/>
      <point x="388" y="412"/>
      <point x="322" y="459"/>
      <point x="235" y="459" type="curve" smooth="yes"/>
      <point x="176" y="459"/>
      <point x="127" y="436"/>
      <point x="86" y="391" type="curve" smooth="yes"/>
      <point x="45" y="346"/>
      <point x="25" y="288"/>
      <point x="25" y="215" type="curve" smooth="yes"/>
      <point x="25" y="147"/>
      <point x="45" y="91"/>
      <point x="86" y="47" type="curve" smooth="yes"/>
      <point x="127" y="4"/>
      <point x="178" y="-18"/>
      <point x="239" y="-18" type="curve" smooth="yes"/>
      <point x="327" y="-18"/>
      <point x="394" y="28"/>
      <point x="441" y="119" type="curve"/>
      <point x="410" y="132" type="line"/>
      <point x="372" y="61"/>
      <point x="322" y="25"/>
      <point x="260" y="25" type="curve" smooth="yes"/>
      <point x="217" y="25"/>
      <point x="182" y="41"/>
      <point x="155" y="73" type="curve" smooth="yes"/>
      <point x="130" y="101"/>
      <point x="117" y="149"/>
      <point x="116" y="218" type="curve"/>
    </contour>
  </outline>
</glyph>
<glyph name="f" format="1">
  <advance width="326"/>
  <unicode hex="0066"/>
  <outline>
    <contour>
      <point x="183" y="550" type="line" smooth="yes" name="hr00"/>
      <point x="183" y="645"/>
      <point x="226" y="693"/>
      <point x="279" y="693" type="curve" smooth="yes"/>
      <point x="308" y="693"/>
      <point x="323" y="682"/>
      <point x="323" y="671" type="curve" smooth="yes"/>
      <point x="323" y="668"/>
      <point x="318" y="663"/>
      <point x="309" y="656" type="curve"/>
      <point x="298" y="645"/>
      <point x="292" y="633"/>
      <point x="292" y="618" type="curve" smooth="yes"/>
      <point x="292" y="591"/>
      <point x="311" y="572"/>
      <point x="339" y="572" type="curve" smooth="yes"/>
      <point x="370" y="572"/>
      <point x="391" y="594"/>
      <point x="391" y="633" type="curve" smooth="yes"/>
      <point x="391" y="688"/>
      <point x="348" y="728"/>
      <point x="277" y="728" type="curve" smooth="yes"/>
      <point x="228" y="728"/>
      <point x="186" y="707"/>
      <point x="153" y="665" type="curve" smooth="yes"/>
      <point x="120" y="624"/>
      <point x="103" y="563"/>
      <point x="103" y="483" type="curve" smooth="yes"/>
      <point x="103" y="450" type="line"/>
      <point x="26" y="450" type="line"/>
      <point x="26" y="408" type="line"/>
      <point x="103" y="408" type="line"/>
      <point x="103" y="71" type="line" smooth="yes"/>
      <point x="103" y="47"/>
      <point x="92" y="36"/>
      <point x="59" y="36" type="curve" smooth="yes"/>
      <point x="20" y="36" type="line"/>
      <point x="20" y="0" type="line"/>
      <point x="295" y="0" type="line"/>
      <point x="295" y="36" type="line"/>
      <point x="234" y="36" type="line" smooth="yes"/>
      <point x="217" y="36"/>
      <point x="203" y="40"/>
      <point x="194" y="49" type="curve"/>
      <point x="187" y="54"/>
      <point x="183" y="64"/>
      <point x="183" y="79" type="curve" smooth="yes"/>
      <point x="183" y="408" type="line"/>
      <point x="295" y="408" type="line"/>
      <point x="295" y="450" type="line"/>
      <point x="183" y="450" type="line"/>
    </contour>
  </outline>
</glyph>
<glyph name="g" format="1">
  <advance width="527"/>
  <unicode hex="0067"/>
  <outline>
    <contour>
      <point x="251" y="-8" type="curve" smooth="yes" name="hr00"/>
      <point x="357" y="-8"/>
      <point x="387" y="-39"/>
      <point x="387" y="-80" type="curve" smooth="yes"/>
      <point x="387" y="-124"/>
      <point x="332" y="-168"/>
      <point x="221" y="-168" type="curve" smooth="yes"/>
      <point x="176" y="-168"/>
      <point x="140" y="-160"/>
      <point x="115" y="-144" type="curve" smooth="yes"/>
      <point x="96" y="-131"/>
      <point x="86" y="-113"/>
      <point x="86" y="-92" type="curve" smooth="yes"/>
      <point x="86" y="-45"/>
      <point x="134" y="-8"/>
    </contour>
    <contour>
      <point x="223" y="424" type="curve" smooth="yes"/>
      <point x="279" y="424"/>
      <point x="321" y="377"/>
      <point x="321" y="304" type="curve" smooth="yes"/>
      <point x="321" y="223"/>
      <point x="282" y="178"/>
      <point x="223" y="178" type="curve" smooth="yes"/>
      <point x="163" y="178"/>
      <point x="124" y="223"/>
      <point x="124" y="306" type="curve" smooth="yes"/>
      <point x="124" y="381"/>
      <point x="163" y="424"/>
    </contour>
    <contour>
      <point x="348" y="416" type="curve"/>
      <point x="308" y="443"/>
      <point x="270" y="455"/>
      <point x="223" y="455" type="curve" smooth="yes"/>
      <point x="168" y="455"/>
      <point x="124" y="440"/>
      <point x="89" y="411" type="curve" smooth="yes"/>
      <point x="55" y="382"/>
      <point x="38" y="345"/>
      <point x="38" y="302" type="curve" smooth="yes"/>
      <point x="38" y="247"/>
      <point x="65" y="205"/>
      <point x="120" y="174" type="curve"/>
      <point x="56" y="153"/>
      <point x="33" y="122"/>
      <point x="33" y="82" type="curve" smooth="yes"/>
      <point x="33" y="37"/>
      <point x="65" y="8"/>
      <point x="129" y="-8" type="curve"/>
      <point x="50" y="-23"/>
      <point x="19" y="-57"/>
      <point x="19" y="-96" type="curve" smooth="yes"/>
      <point x="19" y="-120"/>
      <point x="32" y="-142"/>
      <point x="59" y="-162" type="curve" smooth="yes"/>
      <point x="92" y="-187"/>
      <point x="142" y="-199"/>
      <point x="211" y="-199" type="curve" smooth="yes"/>
      <point x="295" y="-199"/>
      <point x="358" y="-181"/>
      <point x="399" y="-144" type="curve" smooth="yes"/>
      <point x="429" y="-117"/>
      <point x="444" y="-84"/>
      <point x="444" y="-46" type="curve" smooth="yes"/>
      <point x="444" y="22"/>
      <point x="395" y="68"/>
      <point x="276" y="66" type="curve" smooth="yes"/>
      <point x="158" y="64" type="line" smooth="yes"/>
      <point x="129" y="64"/>
      <point x="110" y="67"/>
      <point x="101" y="74" type="curve"/>
      <point x="90" y="80"/>
      <point x="85" y="90"/>
      <point x="85" y="103" type="curve" smooth="yes"/>
      <point x="85" y="118"/>
      <point x="91" y="129"/>
      <point x="103" y="136" type="curve" smooth="yes"/>
      <point x="116" y="144"/>
      <point x="141" y="148"/>
      <point x="177" y="148" type="curve" smooth="yes"/>
      <point x="230" y="148" type="line" smooth="yes"/>
      <point x="259" y="148"/>
      <point x="289" y="156"/>
      <point x="320" y="173" type="curve" smooth="yes"/>
      <point x="352" y="190"/>
      <point x="374" y="209"/>
      <point x="387" y="230" type="curve" smooth="yes"/>
      <point x="400" y="251"/>
      <point x="407" y="276"/>
      <point x="407" y="304" type="curve" smooth="yes"/>
      <point x="407" y="335"/>
      <point x="397" y="361"/>
      <point x="372" y="398" type="curve"/>
      <point x="384" y="412"/>
      <point x="396" y="419"/>
      <point x="407" y="419" type="curve" smooth="yes"/>
      <point x="413" y="419"/>
      <point x="417" y="414"/>
      <point x="420" y="405" type="curve" smooth="yes"/>
      <point x="426" y="382"/>
      <point x="438" y="371"/>
      <point x="457" y="371" type="curve" smooth="yes"/>
      <point x="476" y="371"/>
      <point x="492" y="388"/>
      <point x="492" y="412" type="curve" smooth="yes"/>
      <point x="492" y="441"/>
      <point x="469" y="466"/>
      <point x="436" y="466" type="curve" smooth="yes"/>
      <point x="409" y="466"/>
      <point x="380" y="449"/>
    </contour>
  </outline>
</glyph>
<glyph name="h" format="1">
  <advance width="600"/>
  <unicode hex="0068"/>
  <outline>
    <contour>
      <point x="14" y="674" type="line" name="hr00"/>
      <point x="48" y="674" type="line" smooth="yes"/>
      <point x="84" y="674"/>
      <point x="106" y="656"/>
      <point x="106" y="617" type="curve" smooth="yes"/>
      <point x="106" y="80" type="line" smooth="yes"/>
      <point x="106" y="49"/>
      <point x="92" y="36"/>
      <point x="55" y="36" type="curve" smooth="yes"/>
      <point x="28" y="36" type="line"/>
      <point x="28" y="0" type="line"/>
      <point x="267" y="0" type="line"/>
      <point x="267" y="36" type="line"/>
      <point x="228" y="36" type="line" smooth="yes"/>
      <point x="197" y="36"/>
      <point x="184" y="48"/>
      <point x="184" y="80" type="curve" smooth="yes"/>
      <point x="184" y="259" type="line" smooth="yes"/>
      <point x="184" y="342"/>
      <point x="250" y="411"/>
      <point x="313" y="408" type="curve" smooth="yes"/>
      <point x="370" y="406"/>
      <point x="409" y="365"/>
      <point x="409" y="289" type="curve" smooth="yes"/>
      <point x="409" y="75" type="line" smooth="yes"/>
      <point x="409" y="50"/>
      <point x="396" y="36"/>
      <point x="356" y="36" type="curve" smooth="yes"/>
      <point x="329" y="36" type="line"/>
      <point x="329" y="0" type="line"/>
      <point x="573" y="0" type="line"/>
      <point x="573" y="36" type="line"/>
      <point x="534" y="36" type="line" smooth="yes"/>
      <point x="502" y="36"/>
      <point x="490" y="47"/>
      <point x="490" y="75" type="curve" smooth="yes"/>
      <point x="490" y="289" type="line" smooth="yes"/>
      <point x="490" y="364"/>
      <point x="461" y="421"/>
      <point x="425" y="443" type="curve" smooth="yes"/>
      <point x="402" y="457"/>
      <point x="376" y="463"/>
      <point x="347" y="463" type="curve" smooth="yes"/>
      <point x="287" y="463"/>
      <point x="232" y="432"/>
      <point x="184" y="371" type="curve"/>
      <point x="184" y="718" type="line"/>
      <point x="14" y="710" type="line"/>
    </contour>
  </outline>
</glyph>
<glyph name="i" format="1">
  <advance width="308"/>
  <unicode hex="0069"/>
  <outline>
    <contour>
      <point x="22" y="413" type="line" name="hr00"/>
      <point x="60" y="413" type="line" smooth="yes"/>
      <point x="99" y="413"/>
      <point x="121" y="395"/>
      <point x="121" y="359" type="curve" smooth="yes"/>
      <point x="121" y="76" type="line" smooth="yes"/>
      <point x="121" y="49"/>
      <point x="107" y="36"/>
      <point x="79" y="36" type="curve" smooth="yes"/>
      <point x="32" y="36" type="line"/>
      <point x="32" y="0" type="line"/>
      <point x="286" y="0" type="line"/>
      <point x="286" y="36" type="line"/>
      <point x="236" y="36" type="line" smooth="yes"/>
      <point x="225" y="36"/>
      <point x="216" y="40"/>
      <point x="209" y="47" type="curve"/>
      <point x="204" y="50"/>
      <point x="201" y="57"/>
      <point x="201" y="67" type="curve" smooth="yes"/>
      <point x="201" y="456" type="line"/>
      <point x="22" y="450" type="line"/>
    </contour>
    <contour>
      <point x="146" y="718" type="curve" smooth="yes"/>
      <point x="119" y="718"/>
      <point x="92" y="693"/>
      <point x="92" y="665" type="curve" smooth="yes"/>
      <point x="92" y="636"/>
      <point x="116" y="611"/>
      <point x="148" y="611" type="curve" smooth="yes"/>
      <point x="177" y="611"/>
      <point x="201" y="635"/>
      <point x="201" y="664" type="curve" smooth="yes"/>
      <point x="201" y="693"/>
      <point x="175" y="718"/>
    </contour>
  </outline>
</glyph>
<glyph name="j" format="1">
  <advance width="290"/>
  <unicode hex="006A"/>
  <outline>
    <contour>
      <point x="49" y="452" type="line" name="hr00"/>
      <point x="49" y="419" type="line"/>
      <point x="88" y="419" type="line" smooth="yes"/>
      <point x="133" y="419"/>
      <point x="154" y="400"/>
      <point x="154" y="364" type="curve" smooth="yes"/>
      <point x="154" y="-14" type="line" smooth="yes"/>
      <point x="154" y="-41"/>
      <point x="151" y="-68"/>
      <point x="145" y="-93" type="curve" smooth="yes"/>
      <point x="141" y="-113"/>
      <point x="135" y="-127"/>
      <point x="127" y="-136" type="curve" smooth="yes"/>
      <point x="122" y="-141"/>
      <point x="116" y="-144"/>
      <point x="110" y="-144" type="curve" smooth="yes"/>
      <point x="99" y="-144"/>
      <point x="97" y="-143"/>
      <point x="92" y="-122" type="curve" smooth="yes"/>
      <point x="86" y="-93"/>
      <point x="72" y="-79"/>
      <point x="49" y="-79" type="curve" smooth="yes"/>
      <point x="22" y="-79"/>
      <point x="0" y="-100"/>
      <point x="0" y="-131" type="curve" smooth="yes"/>
      <point x="0" y="-167"/>
      <point x="25" y="-189"/>
      <point x="66" y="-189" type="curve" smooth="yes"/>
      <point x="109" y="-189"/>
      <point x="147" y="-168"/>
      <point x="181" y="-127" type="curve" smooth="yes"/>
      <point x="215" y="-86"/>
      <point x="232" y="-35"/>
      <point x="232" y="28" type="curve" smooth="yes"/>
      <point x="232" y="459" type="line"/>
    </contour>
    <contour>
      <point x="184" y="722" type="curve" smooth="yes"/>
      <point x="155" y="722"/>
      <point x="130" y="696"/>
      <point x="130" y="667" type="curve" smooth="yes"/>
      <point x="130" y="638"/>
      <point x="155" y="614"/>
      <point x="184" y="614" type="curve" smooth="yes"/>
      <point x="215" y="614"/>
      <point x="239" y="636"/>
      <point x="239" y="667" type="curve" smooth="yes"/>
      <point x="239" y="699"/>
      <point x="215" y="722"/>
    </contour>
  </outline>
</glyph>
<glyph name="k" format="1">
  <advance width="583"/>
  <unicode hex="006B"/>
  <outline>
    <contour>
      <point x="23" y="674" type="line" name="hr00"/>
      <point x="48" y="674" type="line" smooth="yes"/>
      <point x="70" y="674"/>
      <point x="88" y="669"/>
      <point x="102" y="660" type="curve" smooth="yes"/>
      <point x="111" y="653"/>
      <point x="115" y="642"/>
      <point x="115" y="629" type="curve" smooth="yes"/>
      <point x="115" y="73" type="line" smooth="yes"/>
      <point x="115" y="50"/>
      <point x="99" y="36"/>
      <point x="70" y="36" type="curve" smooth="yes"/>
      <point x="29" y="36" type="line"/>
      <point x="29" y="0" type="line"/>
      <point x="272" y="0" type="line"/>
      <point x="272" y="36" type="line"/>
      <point x="241" y="36" type="line" smooth="yes"/>
      <point x="225" y="36"/>
      <point x="212" y="39"/>
      <point x="203" y="45" type="curve" smooth="yes"/>
      <point x="197" y="50"/>
      <point x="194" y="56"/>
      <point x="194" y="65" type="curve" smooth="yes"/>
      <point x="194" y="179" type="line"/>
      <point x="262" y="237" type="line"/>
      <point x="382" y="65" type="line" smooth="yes"/>
      <point x="385" y="60"/>
      <point x="387" y="56"/>
      <point x="387" y="52" type="curve" smooth="yes"/>
      <point x="387" y="45"/>
      <point x="378" y="36"/>
      <point x="342" y="36" type="curve" smooth="yes"/>
      <point x="317" y="36" type="line"/>
      <point x="317" y="0" type="line"/>
      <point x="564" y="0" type="line"/>
      <point x="564" y="36" type="line"/>
      <point x="538" y="36" type="line" smooth="yes"/>
      <point x="512" y="36"/>
      <point x="494" y="43"/>
      <point x="484" y="56" type="curve" smooth="yes"/>
      <point x="317" y="286" type="line"/>
      <point x="420" y="378" type="line" smooth="yes"/>
      <point x="445" y="401"/>
      <point x="481" y="413"/>
      <point x="529" y="416" type="curve"/>
      <point x="529" y="450" type="line"/>
      <point x="289" y="450" type="line"/>
      <point x="289" y="416" type="line"/>
      <point x="317" y="415"/>
      <point x="337" y="412"/>
      <point x="350" y="406" type="curve" smooth="yes"/>
      <point x="359" y="401"/>
      <point x="363" y="395"/>
      <point x="363" y="386" type="curve" smooth="yes"/>
      <point x="363" y="377"/>
      <point x="355" y="367"/>
      <point x="342" y="355" type="curve" smooth="yes"/>
      <point x="194" y="227" type="line"/>
      <point x="194" y="718" type="line"/>
      <point x="23" y="710" type="line"/>
    </contour>
  </outline>
</glyph>
<glyph name="l" format="1">
  <advance width="308"/>
  <unicode hex="006C"/>
  <outline>
    <contour>
      <point x="23" y="710" type="line" name="hr00"/>
      <point x="23" y="674" type="line"/>
      <point x="64" y="674" type="line" smooth="yes"/>
      <point x="81" y="674"/>
      <point x="95" y="669"/>
      <point x="107" y="660" type="curve" smooth="yes"/>
      <point x="116" y="652"/>
      <point x="120" y="640"/>
      <point x="120" y="623" type="curve" smooth="yes"/>
      <point x="120" y="76" type="line" smooth="yes"/>
      <point x="120" y="51"/>
      <point x="105" y="36"/>
      <point x="76" y="36" type="curve" smooth="yes"/>
      <point x="31" y="36" type="line"/>
      <point x="31" y="0" type="line"/>
      <point x="285" y="0" type="line"/>
      <point x="285" y="36" type="line"/>
      <point x="238" y="36" type="line" smooth="yes"/>
      <point x="227" y="36"/>
      <point x="217" y="40"/>
      <point x="208" y="47" type="curve" smooth="yes"/>
      <point x="203" y="50"/>
      <point x="201" y="57"/>
      <point x="201" y="66" type="curve" smooth="yes"/>
      <point x="201" y="718" type="line"/>
    </contour>
  </outline>
</glyph>
<glyph name="m" format="1">
  <advance width="843"/>
  <unicode hex="006D"/>
  <outline>
    <contour>
      <point x="34" y="417" type="line" name="hr00"/>
      <point x="83" y="412"/>
      <point x="96" y="397"/>
      <point x="96" y="364" type="curve" smooth="yes"/>
      <point x="96" y="70" type="line" smooth="yes"/>
      <point x="96" y="49"/>
      <point x="81" y="36"/>
      <point x="57" y="36" type="curve" smooth="yes"/>
      <point x="22" y="36" type="line"/>
      <point x="22" y="0" type="line"/>
      <point x="249" y="0" type="line"/>
      <point x="249" y="36" type="line"/>
      <point x="226" y="36" type="line" smooth="yes"/>
      <point x="207" y="36"/>
      <point x="194" y="40"/>
      <point x="185" y="47" type="curve" smooth="yes"/>
      <point x="179" y="51"/>
      <point x="176" y="60"/>
      <point x="176" y="74" type="curve" smooth="yes"/>
      <point x="176" y="254" type="line" smooth="yes"/>
      <point x="176" y="297"/>
      <point x="189" y="335"/>
      <point x="215" y="368" type="curve" smooth="yes"/>
      <point x="233" y="391"/>
      <point x="259" y="403"/>
      <point x="293" y="403" type="curve" smooth="yes"/>
      <point x="346" y="403"/>
      <point x="380" y="365"/>
      <point x="380" y="277" type="curve" smooth="yes"/>
      <point x="380" y="70" type="line" smooth="yes"/>
      <point x="380" y="49"/>
      <point x="363" y="36"/>
      <point x="330" y="36" type="curve" smooth="yes"/>
      <point x="305" y="36" type="line"/>
      <point x="305" y="0" type="line"/>
      <point x="534" y="0" type="line"/>
      <point x="534" y="36" type="line"/>
      <point x="503" y="36" type="line" smooth="yes"/>
      <point x="475" y="36"/>
      <point x="460" y="47"/>
      <point x="460" y="74" type="curve" smooth="yes"/>
      <point x="460" y="267" type="line" smooth="yes"/>
      <point x="460" y="288"/>
      <point x="467" y="312"/>
      <point x="481" y="341" type="curve" smooth="yes"/>
      <point x="498" y="378"/>
      <point x="533" y="402"/>
      <point x="574" y="402" type="curve" smooth="yes"/>
      <point x="626" y="402"/>
      <point x="662" y="366"/>
      <point x="662" y="298" type="curve" smooth="yes"/>
      <point x="662" y="74" type="line" smooth="yes"/>
      <point x="662" y="47"/>
      <point x="649" y="36"/>
      <point x="610" y="36" type="curve" smooth="yes"/>
      <point x="587" y="36" type="line"/>
      <point x="587" y="0" type="line"/>
      <point x="814" y="0" type="line"/>
      <point x="814" y="36" type="line"/>
      <point x="791" y="36" type="line" smooth="yes"/>
      <point x="774" y="36"/>
      <point x="761" y="40"/>
      <point x="752" y="48" type="curve"/>
      <point x="745" y="51"/>
      <point x="741" y="60"/>
      <point x="741" y="74" type="curve" smooth="yes"/>
      <point x="741" y="298" type="line" smooth="yes"/>
      <point x="741" y="348"/>
      <point x="728" y="389"/>
      <point x="701" y="421" type="curve" smooth="yes"/>
      <point x="681" y="446"/>
      <point x="650" y="459"/>
      <point x="609" y="459" type="curve" smooth="yes"/>
      <point x="549" y="459"/>
      <point x="496" y="423"/>
      <point x="452" y="354" type="curve"/>
      <point x="432" y="429"/>
      <point x="392" y="459"/>
      <point x="329" y="459" type="curve" smooth="yes"/>
      <point x="270" y="459"/>
      <point x="225" y="433"/>
      <point x="176" y="362" type="curve"/>
      <point x="175" y="392"/>
      <point x="170" y="424"/>
      <point x="163" y="459" type="curve"/>
      <point x="34" y="450" type="line"/>
    </contour>
  </outline>
</glyph>
<glyph name="n" format="1">
  <advance width="600"/>
  <unicode hex="006E"/>
  <outline>
    <contour>
      <point x="31" y="419" type="line" name="hr00"/>
      <point x="54" y="419" type="line" smooth="yes"/>
      <point x="93" y="419"/>
      <point x="114" y="399"/>
      <point x="114" y="359" type="curve" smooth="yes"/>
      <point x="114" y="69" type="line" smooth="yes"/>
      <point x="114" y="49"/>
      <point x="96" y="36"/>
      <point x="67" y="36" type="curve" smooth="yes"/>
      <point x="35" y="36" type="line"/>
      <point x="35" y="0" type="line"/>
      <point x="273" y="0" type="line"/>
      <point x="273" y="36" type="line"/>
      <point x="242" y="36" type="line" smooth="yes"/>
      <point x="207" y="36"/>
      <point x="193" y="48"/>
      <point x="193" y="80" type="curve" smooth="yes"/>
      <point x="193" y="249" type="line" smooth="yes"/>
      <point x="193" y="295"/>
      <point x="205" y="333"/>
      <point x="230" y="362" type="curve" smooth="yes"/>
      <point x="255" y="391"/>
      <point x="285" y="406"/>
      <point x="320" y="406" type="curve" smooth="yes"/>
      <point x="357" y="406"/>
      <point x="384" y="391"/>
      <point x="402" y="362" type="curve" smooth="yes"/>
      <point x="414" y="342"/>
      <point x="421" y="311"/>
      <point x="421" y="268" type="curve" smooth="yes"/>
      <point x="421" y="76" type="line" smooth="yes"/>
      <point x="421" y="49"/>
      <point x="405" y="36"/>
      <point x="365" y="36" type="curve" smooth="yes"/>
      <point x="342" y="36" type="line"/>
      <point x="342" y="0" type="line"/>
      <point x="579" y="0" type="line"/>
      <point x="579" y="36" type="line"/>
      <point x="548" y="36" type="line" smooth="yes"/>
      <point x="512" y="36"/>
      <point x="499" y="48"/>
      <point x="499" y="80" type="curve" smooth="yes"/>
      <point x="499" y="299" type="line" smooth="yes"/>
      <point x="499" y="400"/>
      <point x="444" y="459"/>
      <point x="358" y="459" type="curve" smooth="yes"/>
      <point x="289" y="459"/>
      <point x="234" y="427"/>
      <point x="193" y="359" type="curve"/>
      <point x="190" y="398"/>
      <point x="186" y="431"/>
      <point x="181" y="460" type="curve"/>
      <point x="31" y="450" type="line"/>
    </contour>
  </outline>
</glyph>
<glyph name="o" format="1">
  <advance width="479"/>
  <unicode hex="006F"/>
  <outline>
    <contour>
      <point x="230" y="425" type="curve" smooth="yes" name="hr00"/>
      <point x="306" y="425"/>
      <point x="356" y="367"/>
      <point x="356" y="228" type="curve" smooth="yes"/>
      <point x="356" y="77"/>
      <point x="305" y="17"/>
      <point x="230" y="17" type="curve" smooth="yes"/>
      <point x="158" y="17"/>
      <point x="107" y="79"/>
      <point x="107" y="223" type="curve" smooth="yes"/>
      <point x="107" y="363"/>
      <point x="158" y="425"/>
    </contour>
    <contour>
      <point x="230" y="459" type="curve" smooth="yes"/>
      <point x="171" y="459"/>
      <point x="121" y="437"/>
      <point x="80" y="393" type="curve" smooth="yes"/>
      <point x="39" y="349"/>
      <point x="19" y="291"/>
      <point x="19" y="220" type="curve" smooth="yes"/>
      <point x="19" y="150"/>
      <point x="39" y="93"/>
      <point x="80" y="48" type="curve" smooth="yes"/>
      <point x="121" y="4"/>
      <point x="170" y="-18"/>
      <point x="228" y="-18" type="curve" smooth="yes"/>
      <point x="345" y="-17"/>
      <point x="447" y="78"/>
      <point x="444" y="220" type="curve" smooth="yes"/>
      <point x="443" y="292"/>
      <point x="423" y="350"/>
      <point x="382" y="393" type="curve" smooth="yes"/>
      <point x="341" y="437"/>
      <point x="291" y="459"/>
    </contour>
  </outline>
</glyph>
<glyph name="p" format="1">
  <advance width="536"/>
  <unicode hex="0070"/>
  <outline>
    <contour>
      <point x="299" y="414" type="curve" smooth="yes" name="hr00"/>
      <point x="366" y="414"/>
      <point x="413" y="358"/>
      <point x="413" y="218" type="curve" smooth="yes"/>
      <point x="413" y="151"/>
      <point x="400" y="102"/>
      <point x="377" y="68" type="curve" smooth="yes"/>
      <point x="359" y="42"/>
      <point x="334" y="28"/>
      <point x="299" y="28" type="curve" smooth="yes"/>
      <point x="228" y="28"/>
      <point x="174" y="88"/>
      <point x="174" y="216" type="curve" smooth="yes"/>
      <point x="174" y="345"/>
      <point x="231" y="414"/>
    </contour>
    <contour>
      <point x="15" y="448" type="line"/>
      <point x="15" y="416" type="line"/>
      <point x="79" y="415"/>
      <point x="94" y="399"/>
      <point x="94" y="354" type="curve" smooth="yes"/>
      <point x="94" y="-119" type="line" smooth="yes"/>
      <point x="94" y="-139"/>
      <point x="78" y="-153"/>
      <point x="49" y="-153" type="curve" smooth="yes"/>
      <point x="15" y="-153" type="line"/>
      <point x="15" y="-186" type="line"/>
      <point x="255" y="-186" type="line"/>
      <point x="255" y="-153" type="line"/>
      <point x="221" y="-153" type="line" smooth="yes"/>
      <point x="206" y="-153"/>
      <point x="194" y="-149"/>
      <point x="185" y="-141" type="curve" smooth="yes"/>
      <point x="178" y="-135"/>
      <point x="174" y="-125"/>
      <point x="174" y="-111" type="curve" smooth="yes"/>
      <point x="174" y="72" type="line"/>
      <point x="211" y="13"/>
      <point x="256" y="-15"/>
      <point x="312" y="-15" type="curve" smooth="yes"/>
      <point x="361" y="-15"/>
      <point x="404" y="4"/>
      <point x="440" y="42" type="curve" smooth="yes"/>
      <point x="483" y="89"/>
      <point x="504" y="148"/>
      <point x="504" y="221" type="curve" smooth="yes"/>
      <point x="504" y="364"/>
      <point x="415" y="457"/>
      <point x="322" y="457" type="curve" smooth="yes"/>
      <point x="263" y="457"/>
      <point x="217" y="431"/>
      <point x="172" y="359" type="curve"/>
      <point x="171" y="390"/>
      <point x="167" y="423"/>
      <point x="160" y="457" type="curve"/>
    </contour>
  </outline>
</glyph>
<glyph name="q" format="1">
  <advance width="526"/>
  <unicode hex="0071"/>
  <outline>
    <contour>
      <point x="234" y="424" type="curve" smooth="yes" name="hr00"/>
      <point x="303" y="421"/>
      <point x="356" y="378"/>
      <point x="354" y="219" type="curve" smooth="yes"/>
      <point x="353" y="86"/>
      <point x="300" y="29"/>
      <point x="234" y="29" type="curve" smooth="yes"/>
      <point x="167" y="29"/>
      <point x="118" y="87"/>
      <point x="118" y="226" type="curve" smooth="yes"/>
      <point x="118" y="362"/>
      <point x="167" y="427"/>
    </contour>
    <contour>
      <point x="376" y="384" type="curve"/>
      <point x="324" y="436"/>
      <point x="281" y="455"/>
      <point x="229" y="457" type="curve" smooth="yes"/>
      <point x="124" y="460"/>
      <point x="21" y="352"/>
      <point x="23" y="217" type="curve" smooth="yes"/>
      <point x="24" y="150"/>
      <point x="42" y="95"/>
      <point x="80" y="51" type="curve" smooth="yes"/>
      <point x="118" y="7"/>
      <point x="163" y="-15"/>
      <point x="215" y="-15" type="curve" smooth="yes"/>
      <point x="270" y="-15"/>
      <point x="315" y="12"/>
      <point x="354" y="65" type="curve"/>
      <point x="354" y="-106" type="line" smooth="yes"/>
      <point x="354" y="-139"/>
      <point x="339" y="-153"/>
      <point x="299" y="-153" type="curve" smooth="yes"/>
      <point x="269" y="-153" type="line"/>
      <point x="269" y="-186" type="line"/>
      <point x="504" y="-186" type="line"/>
      <point x="504" y="-153" type="line"/>
      <point x="484" y="-153" type="line" smooth="yes"/>
      <point x="465" y="-153"/>
      <point x="452" y="-149"/>
      <point x="443" y="-140" type="curve"/>
      <point x="436" y="-135"/>
      <point x="433" y="-123"/>
      <point x="433" y="-106" type="curve" smooth="yes"/>
      <point x="433" y="326" type="line" smooth="yes"/>
      <point x="433" y="370"/>
      <point x="437" y="411"/>
      <point x="446" y="448" type="curve"/>
      <point x="429" y="457" type="line"/>
      <point x="409" y="434"/>
      <point x="391" y="410"/>
    </contour>
  </outline>
</glyph>
<glyph name="r" format="1">
  <advance width="435"/>
  <unicode hex="0072"/>
  <outline>
    <contour>
      <point x="24" y="416" type="line" name="hr00"/>
      <point x="64" y="416" type="line" smooth="yes"/>
      <point x="97" y="416"/>
      <point x="117" y="395"/>
      <point x="117" y="354" type="curve" smooth="yes"/>
      <point x="117" y="66" type="line" smooth="yes"/>
      <point x="117" y="49"/>
      <point x="101" y="36"/>
      <point x="72" y="36" type="curve" smooth="yes"/>
      <point x="27" y="36" type="line"/>
      <point x="27" y="0" type="line"/>
      <point x="307" y="0" type="line"/>
      <point x="307" y="36" type="line"/>
      <point x="250" y="36" type="line" smooth="yes"/>
      <point x="211" y="36"/>
      <point x="198" y="48"/>
      <point x="198" y="69" type="curve" smooth="yes"/>
      <point x="198" y="166" type="line" smooth="yes"/>
      <point x="198" y="201"/>
      <point x="208" y="248"/>
      <point x="228" y="306" type="curve" smooth="yes"/>
      <point x="240" y="343"/>
      <point x="258" y="373"/>
      <point x="281" y="394" type="curve" smooth="yes"/>
      <point x="297" y="409"/>
      <point x="312" y="417"/>
      <point x="325" y="417" type="curve" smooth="yes"/>
      <point x="331" y="417"/>
      <point x="334" y="415"/>
      <point x="334" y="410" type="curve" smooth="yes"/>
      <point x="334" y="408"/>
      <point x="332" y="403"/>
      <point x="327" y="395" type="curve" smooth="yes"/>
      <point x="322" y="386"/>
      <point x="320" y="375"/>
      <point x="320" y="364" type="curve" smooth="yes"/>
      <point x="320" y="333"/>
      <point x="338" y="312"/>
      <point x="367" y="312" type="curve" smooth="yes"/>
      <point x="395" y="312"/>
      <point x="418" y="336"/>
      <point x="418" y="376" type="curve" smooth="yes"/>
      <point x="418" y="425"/>
      <point x="387" y="459"/>
      <point x="339" y="459" type="curve" smooth="yes"/>
      <point x="267" y="459"/>
      <point x="221" y="396"/>
      <point x="185" y="276" type="curve"/>
      <point x="185" y="459" type="line"/>
      <point x="24" y="450" type="line"/>
    </contour>
  </outline>
</glyph>
<glyph name="s" format="1">
  <advance width="408"/>
  <unicode hex="0073"/>
  <outline>
    <contour>
      <point x="19" y="165" type="line" name="hr00"/>
      <point x="29" y="-14" type="line"/>
      <point x="54" y="-14" type="line"/>
      <point x="89" y="27" type="line"/>
      <point x="127" y="-3"/>
      <point x="168" y="-18"/>
      <point x="213" y="-18" type="curve" smooth="yes"/>
      <point x="261" y="-18"/>
      <point x="300" y="-4"/>
      <point x="331" y="23" type="curve" smooth="yes"/>
      <point x="362" y="51"/>
      <point x="378" y="85"/>
      <point x="378" y="124" type="curve" smooth="yes"/>
      <point x="378" y="181"/>
      <point x="348" y="223"/>
      <point x="295" y="242" type="curve" smooth="yes"/>
      <point x="280" y="248"/>
      <point x="246" y="255"/>
      <point x="191" y="264" type="curve" smooth="yes"/>
      <point x="146" y="271"/>
      <point x="116" y="281"/>
      <point x="99" y="294" type="curve" smooth="yes"/>
      <point x="84" y="307"/>
      <point x="76" y="323"/>
      <point x="76" y="342" type="curve" smooth="yes"/>
      <point x="76" y="383"/>
      <point x="113" y="419"/>
      <point x="173" y="419" type="curve" smooth="yes"/>
      <point x="244" y="419"/>
      <point x="291" y="382"/>
      <point x="320" y="290" type="curve"/>
      <point x="352" y="290" type="line"/>
      <point x="339" y="451" type="line"/>
      <point x="320" y="451" type="line"/>
      <point x="287" y="417" type="line"/>
      <point x="254" y="442"/>
      <point x="218" y="455"/>
      <point x="178" y="455" type="curve" smooth="yes"/>
      <point x="127" y="455"/>
      <point x="88" y="438"/>
      <point x="60" y="403" type="curve" smooth="yes"/>
      <point x="38" y="376"/>
      <point x="27" y="345"/>
      <point x="27" y="312" type="curve" smooth="yes"/>
      <point x="27" y="269"/>
      <point x="50" y="229"/>
      <point x="87" y="208" type="curve" smooth="yes"/>
      <point x="106" y="198"/>
      <point x="140" y="188"/>
      <point x="189" y="178" type="curve" smooth="yes"/>
      <point x="241" y="168"/>
      <point x="273" y="161"/>
      <point x="284" y="156" type="curve"/>
      <point x="296" y="152"/>
      <point x="305" y="145"/>
      <point x="312" y="134" type="curve" smooth="yes"/>
      <point x="319" y="124"/>
      <point x="322" y="112"/>
      <point x="322" y="99" type="curve" smooth="yes"/>
      <point x="322" y="52"/>
      <point x="286" y="18"/>
      <point x="215" y="18" type="curve" smooth="yes"/>
      <point x="139" y="18"/>
      <point x="90" y="54"/>
      <point x="51" y="165" type="curve"/>
    </contour>
  </outline>
</glyph>
<glyph name="t" format="1">
  <advance width="382"/>
  <unicode hex="0074"/>
  <outline>
    <contour>
      <point x="148" y="631" type="line" name="hr00"/>
      <point x="146" y="567"/>
      <point x="131" y="517"/>
      <point x="102" y="481" type="curve" smooth="yes"/>
      <point x="84" y="458"/>
      <point x="57" y="444"/>
      <point x="22" y="437" type="curve"/>
      <point x="22" y="403" type="line"/>
      <point x="100" y="403" type="line"/>
      <point x="100" y="101" type="line" smooth="yes"/>
      <point x="100" y="36"/>
      <point x="144" y="-9"/>
      <point x="219" y="-9" type="curve" smooth="yes"/>
      <point x="299" y="-9"/>
      <point x="354" y="48"/>
      <point x="359" y="167" type="curve"/>
      <point x="325" y="167" type="line"/>
      <point x="320" y="76"/>
      <point x="287" y="38"/>
      <point x="244" y="38" type="curve" smooth="yes"/>
      <point x="207" y="38"/>
      <point x="180" y="66"/>
      <point x="180" y="115" type="curve" smooth="yes"/>
      <point x="180" y="403" type="line"/>
      <point x="325" y="403" type="line"/>
      <point x="325" y="448" type="line"/>
      <point x="180" y="448" type="line"/>
      <point x="180" y="631" type="line"/>
    </contour>
  </outline>
</glyph>
<glyph name="u" format="1">
  <advance width="579"/>
  <unicode hex="0075"/>
  <outline>
    <contour>
      <point x="11" y="448" type="line" name="hr00"/>
      <point x="11" y="413" type="line"/>
      <point x="41" y="413"/>
      <point x="60" y="410"/>
      <point x="69" y="403" type="curve" smooth="yes"/>
      <point x="83" y="394"/>
      <point x="90" y="381"/>
      <point x="90" y="363" type="curve" smooth="yes"/>
      <point x="90" y="169" type="line" smooth="yes"/>
      <point x="90" y="104"/>
      <point x="105" y="59"/>
      <point x="133" y="32" type="curve" smooth="yes"/>
      <point x="161" y="6"/>
      <point x="194" y="-9"/>
      <point x="235" y="-9" type="curve" smooth="yes"/>
      <point x="288" y="-9"/>
      <point x="344" y="24"/>
      <point x="399" y="87" type="curve"/>
      <point x="408" y="-3" type="line"/>
      <point x="559" y="1" type="line"/>
      <point x="559" y="34" type="line"/>
      <point x="531" y="34" type="line" smooth="yes"/>
      <point x="496" y="34"/>
      <point x="475" y="52"/>
      <point x="475" y="87" type="curve" smooth="yes"/>
      <point x="475" y="456" type="line"/>
      <point x="318" y="448" type="line"/>
      <point x="318" y="413" type="line"/>
      <point x="382" y="412"/>
      <point x="399" y="394"/>
      <point x="399" y="363" type="curve" smooth="yes"/>
      <point x="399" y="196" type="line" smooth="yes"/>
      <point x="399" y="153"/>
      <point x="386" y="116"/>
      <point x="361" y="87" type="curve" smooth="yes"/>
      <point x="336" y="58"/>
      <point x="305" y="44"/>
      <point x="269" y="44" type="curve" smooth="yes"/>
      <point x="212" y="44"/>
      <point x="170" y="84"/>
      <point x="170" y="157" type="curve" smooth="yes"/>
      <point x="170" y="456" type="line"/>
    </contour>
  </outline>
</glyph>
<glyph name="w" format="1">
  <advance width="750"/>
  <unicode hex="0077"/>
  <outline>
    <contour>
      <point x="14" y="412" type="line" name="hr00"/>
      <point x="45" y="411"/>
      <point x="55" y="404"/>
      <point x="65" y="380" type="curve" smooth="yes"/>
      <point x="225" y="-18" type="line"/>
      <point x="254" y="-18" type="line"/>
      <point x="367" y="297" type="line"/>
      <point x="492" y="-18" type="line"/>
      <point x="521" y="-18" type="line"/>
      <point x="652" y="346" type="line" smooth="yes"/>
      <point x="666" y="386"/>
      <point x="685" y="405"/>
      <point x="730" y="412" type="curve"/>
      <point x="730" y="446" type="line"/>
      <point x="555" y="446" type="line"/>
      <point x="555" y="412" type="line"/>
      <point x="599" y="411"/>
      <point x="613" y="398"/>
      <point x="613" y="377" type="curve" smooth="yes"/>
      <point x="613" y="367"/>
      <point x="610" y="355"/>
      <point x="605" y="340" type="curve" smooth="yes"/>
      <point x="525" y="113" type="line"/>
      <point x="422" y="367" type="line" smooth="yes"/>
      <point x="419" y="374"/>
      <point x="417" y="381"/>
      <point x="417" y="388" type="curve" smooth="yes"/>
      <point x="417" y="403"/>
      <point x="429" y="412"/>
      <point x="462" y="412" type="curve" smooth="yes"/>
      <point x="479" y="412" type="line"/>
      <point x="479" y="446" type="line"/>
      <point x="263" y="446" type="line"/>
      <point x="263" y="412" type="line"/>
      <point x="286" y="412"/>
      <point x="302" y="409"/>
      <point x="311" y="402" type="curve" smooth="yes"/>
      <point x="320" y="396"/>
      <point x="332" y="380"/>
      <point x="345" y="355" type="curve"/>
      <point x="256" y="113" type="line"/>
      <point x="155" y="367" type="line" smooth="yes"/>
      <point x="151" y="376"/>
      <point x="150" y="383"/>
      <point x="150" y="390" type="curve" smooth="yes"/>
      <point x="150" y="405"/>
      <point x="161" y="412"/>
      <point x="185" y="412" type="curve" smooth="yes"/>
      <point x="211" y="412" type="line"/>
      <point x="211" y="446" type="line"/>
      <point x="14" y="446" type="line"/>
    </contour>
  </outline>
</glyph>
<glyph name="x" format="1">
  <advance width="527"/>
  <unicode hex="0078"/>
  <outline>
    <contour>
      <point x="22" y="417" type="line" name="hr00"/>
      <point x="54" y="416"/>
      <point x="77" y="405"/>
      <point x="91" y="386" type="curve" smooth="yes"/>
      <point x="223" y="215" type="line"/>
      <point x="133" y="102" type="line" smooth="yes"/>
      <point x="117" y="81"/>
      <point x="98" y="64"/>
      <point x="76" y="52" type="curve"/>
      <point x="64" y="44"/>
      <point x="46" y="39"/>
      <point x="22" y="36" type="curve"/>
      <point x="22" y="0" type="line"/>
      <point x="218" y="0" type="line"/>
      <point x="218" y="36" type="line"/>
      <point x="193" y="37"/>
      <point x="176" y="40"/>
      <point x="167" y="45" type="curve" smooth="yes"/>
      <point x="160" y="50"/>
      <point x="157" y="56"/>
      <point x="157" y="64" type="curve" smooth="yes"/>
      <point x="157" y="71"/>
      <point x="162" y="82"/>
      <point x="172" y="95" type="curve" smooth="yes"/>
      <point x="245" y="188" type="line"/>
      <point x="334" y="69" type="line" smooth="yes"/>
      <point x="340" y="60"/>
      <point x="343" y="55"/>
      <point x="343" y="52" type="curve" smooth="yes"/>
      <point x="343" y="47"/>
      <point x="341" y="44"/>
      <point x="336" y="41" type="curve" smooth="yes"/>
      <point x="328" y="38"/>
      <point x="315" y="36"/>
      <point x="298" y="36" type="curve" smooth="yes"/>
      <point x="281" y="36" type="line"/>
      <point x="281" y="0" type="line"/>
      <point x="512" y="0" type="line"/>
      <point x="512" y="36" type="line"/>
      <point x="471" y="36"/>
      <point x="452" y="45"/>
      <point x="434" y="69" type="curve" smooth="yes"/>
      <point x="294" y="250" type="line"/>
      <point x="382" y="359" type="line" smooth="yes"/>
      <point x="407" y="390"/>
      <point x="442" y="410"/>
      <point x="487" y="417" type="curve"/>
      <point x="487" y="450" type="line"/>
      <point x="298" y="450" type="line"/>
      <point x="298" y="417" type="line"/>
      <point x="337" y="413"/>
      <point x="356" y="404"/>
      <point x="356" y="390" type="curve" smooth="yes"/>
      <point x="356" y="384"/>
      <point x="354" y="378"/>
      <point x="349" y="371" type="curve" smooth="yes"/>
      <point x="273" y="275" type="line"/>
      <point x="194" y="378" type="line" smooth="yes"/>
      <point x="188" y="386"/>
      <point x="185" y="393"/>
      <point x="185" y="398" type="curve" smooth="yes"/>
      <point x="185" y="409"/>
      <point x="203" y="416"/>
      <point x="240" y="417" type="curve"/>
      <point x="240" y="450" type="line"/>
      <point x="22" y="450" type="line"/>
    </contour>
  </outline>
</glyph>
<glyph name="y" format="1">
  <advance width="527"/>
  <unicode hex="0079"/>
  <outline>
    <contour>
      <point x="20" y="423" type="line" name="hr00"/>
      <point x="57" y="418"/>
      <point x="70" y="408"/>
      <point x="83" y="381" type="curve" smooth="yes"/>
      <point x="254" y="16" type="line"/>
      <point x="225" y="-43"/>
      <point x="205" y="-80"/>
      <point x="193" y="-97" type="curve" smooth="yes"/>
      <point x="182" y="-114"/>
      <point x="169" y="-127"/>
      <point x="156" y="-134" type="curve" smooth="yes"/>
      <point x="143" y="-142"/>
      <point x="131" y="-146"/>
      <point x="120" y="-146" type="curve" smooth="yes"/>
      <point x="111" y="-146"/>
      <point x="106" y="-142"/>
      <point x="106" y="-135" type="curve" smooth="yes"/>
      <point x="106" y="-132"/>
      <point x="106" y="-129"/>
      <point x="107" y="-124" type="curve" smooth="yes"/>
      <point x="109" y="-118"/>
      <point x="110" y="-113"/>
      <point x="110" y="-109" type="curve" smooth="yes"/>
      <point x="110" y="-86"/>
      <point x="90" y="-70"/>
      <point x="67" y="-70" type="curve" smooth="yes"/>
      <point x="39" y="-70"/>
      <point x="19" y="-89"/>
      <point x="19" y="-118" type="curve" smooth="yes"/>
      <point x="19" y="-157"/>
      <point x="51" y="-186"/>
      <point x="98" y="-186" type="curve" smooth="yes"/>
      <point x="132" y="-186"/>
      <point x="163" y="-174"/>
      <point x="191" y="-149" type="curve" smooth="yes"/>
      <point x="220" y="-124"/>
      <point x="248" y="-78"/>
      <point x="276" y="-13" type="curve" smooth="yes"/>
      <point x="443" y="374" type="line" smooth="yes"/>
      <point x="456" y="403"/>
      <point x="480" y="420"/>
      <point x="515" y="423" type="curve"/>
      <point x="515" y="455" type="line"/>
      <point x="329" y="455" type="line"/>
      <point x="329" y="423" type="line"/>
      <point x="386" y="419"/>
      <point x="397" y="406"/>
      <point x="397" y="383" type="curve" smooth="yes"/>
      <point x="397" y="367"/>
      <point x="394" y="351"/>
      <point x="387" y="335" type="curve" smooth="yes"/>
      <point x="295" y="110" type="line"/>
      <point x="171" y="381" type="line" smooth="yes"/>
      <point x="169" y="386"/>
      <point x="168" y="390"/>
      <point x="168" y="394" type="curve" smooth="yes"/>
      <point x="168" y="411"/>
      <point x="179" y="423"/>
      <point x="216" y="423" type="curve" smooth="yes"/>
      <point x="237" y="423" type="line"/>
      <point x="237" y="455" type="line"/>
      <point x="20" y="455" type="line"/>
    </contour>
  </outline>
</glyph>
<glyph name="z" format="1">
  <advance width="434"/>
  <unicode hex="007A"/>
  <outline>
    <contour>
      <point x="34" y="289" type="line" name="hr00"/>
      <point x="71" y="289" type="line"/>
      <point x="84" y="369"/>
      <point x="102" y="392"/>
      <point x="127" y="405" type="curve" smooth="yes"/>
      <point x="140" y="412"/>
      <point x="158" y="416"/>
      <point x="182" y="416" type="curve" smooth="yes"/>
      <point x="303" y="416" type="line"/>
      <point x="20" y="34" type="line"/>
      <point x="20" y="0" type="line"/>
      <point x="398" y="0" type="line"/>
      <point x="409" y="176" type="line"/>
      <point x="378" y="176" type="line"/>
      <point x="357" y="69"/>
      <point x="320" y="36"/>
      <point x="257" y="36" type="curve" smooth="yes"/>
      <point x="120" y="36" type="line"/>
      <point x="402" y="421" type="line"/>
      <point x="402" y="450" type="line"/>
      <point x="46" y="450" type="line"/>
    </contour>
  </outline>
</glyph>
<glyph name="braceleft" format="1">
  <advance width="576"/>
  <unicode hex="007B"/>
  <outline>
    <contour>
      <point x="69" y="257" type="line" name="hr00"/>
      <point x="106" y="257"/>
      <point x="139" y="242"/>
      <point x="167" y="215" type="curve" smooth="yes"/>
      <point x="196" y="187"/>
      <point x="210" y="154"/>
      <point x="210" y="115" type="curve" smooth="yes"/>
      <point x="210" y="-36" type="line" smooth="yes"/>
      <point x="210" y="-111"/>
      <point x="238" y="-174"/>
      <point x="295" y="-227" type="curve" smooth="yes"/>
      <point x="352" y="-280"/>
      <point x="419" y="-306"/>
      <point x="495" y="-306" type="curve"/>
      <point x="473" y="-288" type="line"/>
      <point x="426" y="-288"/>
      <point x="386" y="-263"/>
      <point x="353" y="-214" type="curve" smooth="yes"/>
      <point x="320" y="-165"/>
      <point x="304" y="-106"/>
      <point x="304" y="-36" type="curve" smooth="yes"/>
      <point x="304" y="115" type="line" smooth="yes"/>
      <point x="304" y="171"/>
      <point x="238" y="232"/>
      <point x="127" y="263" type="curve"/>
      <point x="238" y="294"/>
      <point x="304" y="354"/>
      <point x="304" y="413" type="curve" smooth="yes"/>
      <point x="304" y="563" type="line" smooth="yes"/>
      <point x="304" y="632"/>
      <point x="320" y="691"/>
      <point x="353" y="741" type="curve" smooth="yes"/>
      <point x="386" y="792"/>
      <point x="426" y="817"/>
      <point x="472" y="817" type="curve"/>
      <point x="472" y="833" type="line"/>
      <point x="401" y="833"/>
      <point x="339" y="806"/>
      <point x="287" y="753" type="curve" smooth="yes"/>
      <point x="236" y="700"/>
      <point x="210" y="637"/>
      <point x="210" y="563" type="curve" smooth="yes"/>
      <point x="210" y="413" type="line" smooth="yes"/>
      <point x="210" y="374"/>
      <point x="196" y="341"/>
      <point x="167" y="314" type="curve" smooth="yes"/>
      <point x="139" y="287"/>
      <point x="106" y="273"/>
      <point x="69" y="273" type="curve"/>
    </contour>
  </outline>
</glyph>
<glyph name="bar" format="1">
  <advance width="217"/>
  <unicode hex="007C"/>
  <outline>
    <contour>
      <point x="142" y="-436" type="line" name="hr00"/>
      <point x="142" y="960" type="line"/>
      <point x="69" y="960" type="line"/>
      <point x="69" y="-436" type="line"/>
    </contour>
  </outline>
</glyph>
<glyph name="braceright" format="1">
  <advance width="548"/>
  <unicode hex="007D"/>
  <outline>
    <contour>
      <point x="472" y="266" type="line" name="hr00"/>
      <point x="435" y="266"/>
      <point x="402" y="279"/>
      <point x="373" y="307" type="curve" smooth="yes"/>
      <point x="345" y="334"/>
      <point x="331" y="368"/>
      <point x="331" y="407" type="curve" smooth="yes"/>
      <point x="331" y="555" type="line" smooth="yes"/>
      <point x="331" y="629"/>
      <point x="305" y="693"/>
      <point x="254" y="746" type="curve" smooth="yes"/>
      <point x="203" y="800"/>
      <point x="141" y="827"/>
      <point x="69" y="827" type="curve"/>
      <point x="69" y="809" type="line"/>
      <point x="115" y="809"/>
      <point x="155" y="784"/>
      <point x="188" y="735" type="curve" smooth="yes"/>
      <point x="221" y="686"/>
      <point x="238" y="626"/>
      <point x="238" y="555" type="curve" smooth="yes"/>
      <point x="238" y="407" type="line" smooth="yes"/>
      <point x="238" y="348"/>
      <point x="303" y="288"/>
      <point x="414" y="257" type="curve"/>
      <point x="303" y="225"/>
      <point x="238" y="166"/>
      <point x="238" y="109" type="curve" smooth="yes"/>
      <point x="238" y="-43" type="line" smooth="yes"/>
      <point x="238" y="-113"/>
      <point x="221" y="-173"/>
      <point x="188" y="-222" type="curve" smooth="yes"/>
      <point x="155" y="-271"/>
      <point x="115" y="-296"/>
      <point x="69" y="-296" type="curve"/>
      <point x="69" y="-312" type="line"/>
      <point x="141" y="-312"/>
      <point x="203" y="-285"/>
      <point x="254" y="-232" type="curve" smooth="yes"/>
      <point x="305" y="-179"/>
      <point x="331" y="-116"/>
      <point x="331" y="-43" type="curve" smooth="yes"/>
      <point x="331" y="109" type="line" smooth="yes"/>
      <point x="331" y="148"/>
      <point x="345" y="181"/>
      <point x="373" y="208" type="curve" smooth="yes"/>
      <point x="402" y="235"/>
      <point x="435" y="249"/>
      <point x="472" y="249" type="curve"/>
    </contour>
  </outline>
</glyph>
<glyph name="asciitilde" format="1">
  <advance width="773"/>
  <unicode hex="007E"/>
  <outline>
    <contour>
      <point x="87" y="178" type="line" name="hr00"/>
      <point x="123" y="229"/>
      <point x="181" y="264"/>
      <point x="240" y="264" type="curve" smooth="yes"/>
      <point x="275" y="264"/>
      <point x="323" y="247"/>
      <point x="384" y="213" type="curve" smooth="yes"/>
      <point x="445" y="179"/>
      <point x="493" y="162"/>
      <point x="528" y="162" type="curve" smooth="yes"/>
      <point x="580" y="162"/>
      <point x="644" y="219"/>
      <point x="696" y="308" type="curve"/>
      <point x="680" y="325" type="line"/>
      <point x="645" y="277"/>
      <point x="586" y="248"/>
      <point x="525" y="248" type="curve" smooth="yes"/>
      <point x="490" y="248"/>
      <point x="444" y="265"/>
      <point x="387" y="298" type="curve" smooth="yes"/>
      <point x="330" y="332"/>
      <point x="286" y="349"/>
      <point x="253" y="349" type="curve" smooth="yes"/>
      <point x="176" y="349"/>
      <point x="102" y="286"/>
      <point x="69" y="197" type="curve"/>
    </contour>
  </outline>
</glyph>
<glyph name="cent" format="1">
  <advance width="623"/>
  <unicode hex="00A2"/>
  <outline>
    <contour>
      <point x="209" y="39" type="line" name="hr00"/>
      <point x="161" y="86"/>
      <point x="135" y="161"/>
      <point x="135" y="257" type="curve" smooth="yes"/>
      <point x="135" y="312"/>
      <point x="154" y="360"/>
      <point x="192" y="399" type="curve" smooth="yes"/>
      <point x="230" y="438"/>
      <point x="276" y="458"/>
      <point x="330" y="458" type="curve" smooth="yes"/>
      <point x="339" y="458"/>
      <point x="351" y="456"/>
      <point x="367" y="451" type="curve"/>
    </contour>
    <contour>
      <point x="322" y="-86" type="curve" smooth="yes"/>
      <point x="375" y="-86"/>
      <point x="423" y="-70"/>
      <point x="465" y="-40" type="curve" smooth="yes"/>
      <point x="508" y="-9"/>
      <point x="535" y="29"/>
      <point x="547" y="78" type="curve"/>
      <point x="529" y="86" type="line"/>
      <point x="492" y="25"/>
      <point x="421" y="-19"/>
      <point x="341" y="-19" type="curve" smooth="yes"/>
      <point x="306" y="-19"/>
      <point x="269" y="-9"/>
      <point x="241" y="14" type="curve"/>
      <point x="400" y="438" type="line"/>
      <point x="420" y="433"/>
      <point x="432" y="413"/>
      <point x="432" y="389" type="curve"/>
      <point x="437" y="361"/>
      <point x="458" y="343"/>
      <point x="482" y="343" type="curve" smooth="yes"/>
      <point x="503" y="343"/>
      <point x="520" y="362"/>
      <point x="520" y="385" type="curve" smooth="yes"/>
      <point x="520" y="426"/>
      <point x="480" y="466"/>
      <point x="416" y="487" type="curve"/>
      <point x="498" y="699" type="line"/>
      <point x="457" y="699" type="line"/>
      <point x="377" y="490" type="line"/>
      <point x="352" y="490" type="line" smooth="yes"/>
      <point x="274" y="490"/>
      <point x="207" y="461"/>
      <point x="152" y="404" type="curve" smooth="yes"/>
      <point x="97" y="347"/>
      <point x="69" y="278"/>
      <point x="69" y="197" type="curve" smooth="yes"/>
      <point x="69" y="104"/>
      <point x="109" y="17"/>
      <point x="180" y="-40" type="curve"/>
      <point x="112" y="-223" type="line"/>
      <point x="151" y="-223" type="line"/>
      <point x="215" y="-57" type="line"/>
      <point x="258" y="-76"/>
      <point x="293" y="-86"/>
    </contour>
  </outline>
</glyph>
<glyph name="copyright" format="1">
  <advance width="668"/>
  <unicode hex="00A9"/>
  <outline>
    <contour>
      <point x="432" y="487" type="line" name="hr00"/>
      <point x="424" y="472"/>
      <point x="419" y="468"/>
      <point x="410" y="468" type="curve" smooth="yes"/>
      <point x="407" y="468"/>
      <point x="402" y="469"/>
      <point x="394" y="472" type="curve" smooth="yes"/>
      <point x="351" y="485"/>
      <point x="343" y="487"/>
      <point x="316" y="487" type="curve" smooth="yes"/>
      <point x="255" y="487"/>
      <point x="204" y="468"/>
      <point x="165" y="430" type="curve" smooth="yes"/>
      <point x="126" y="392"/>
      <point x="106" y="346"/>
      <point x="106" y="293" type="curve" smooth="yes"/>
      <point x="106" y="240"/>
      <point x="125" y="196"/>
      <point x="162" y="159" type="curve" smooth="yes"/>
      <point x="199" y="123"/>
      <point x="246" y="105"/>
      <point x="302" y="105" type="curve" smooth="yes"/>
      <point x="370" y="105"/>
      <point x="424" y="134"/>
      <point x="463" y="191" type="curve"/>
      <point x="448" y="198" type="line"/>
      <point x="415" y="153"/>
      <point x="371" y="131"/>
      <point x="316" y="131" type="curve" smooth="yes"/>
      <point x="233" y="131"/>
      <point x="176" y="185"/>
      <point x="176" y="305" type="curve" smooth="yes"/>
      <point x="176" y="349"/>
      <point x="189" y="392"/>
      <point x="206" y="416" type="curve" smooth="yes"/>
      <point x="229" y="449"/>
      <point x="265" y="468"/>
      <point x="312" y="468" type="curve" smooth="yes"/>
      <point x="375" y="468"/>
      <point x="420" y="437"/>
      <point x="441" y="369" type="curve"/>
      <point x="456" y="369" type="line"/>
      <point x="448" y="487" type="line"/>
    </contour>
    <contour>
      <point x="299" y="568" type="curve" smooth="yes"/>
      <point x="391" y="568"/>
      <point x="487" y="520"/>
      <point x="536" y="432" type="curve" smooth="yes"/>
      <point x="561" y="388"/>
      <point x="573" y="343"/>
      <point x="573" y="296" type="curve" smooth="yes"/>
      <point x="573" y="200"/>
      <point x="522" y="105"/>
      <point x="434" y="57" type="curve" smooth="yes"/>
      <point x="391" y="34"/>
      <point x="346" y="22"/>
      <point x="299" y="22" type="curve" smooth="yes"/>
      <point x="206" y="22"/>
      <point x="111" y="71"/>
      <point x="62" y="158" type="curve" smooth="yes"/>
      <point x="38" y="202"/>
      <point x="26" y="248"/>
      <point x="26" y="296" type="curve" smooth="yes"/>
      <point x="26" y="343"/>
      <point x="38" y="388"/>
      <point x="63" y="432" type="curve" smooth="yes"/>
      <point x="88" y="476"/>
      <point x="122" y="510"/>
      <point x="165" y="533" type="curve" smooth="yes"/>
      <point x="209" y="556"/>
      <point x="254" y="568"/>
    </contour>
    <contour>
      <point x="299" y="595" type="curve" smooth="yes"/>
      <point x="249" y="595"/>
      <point x="200" y="582"/>
      <point x="152" y="556" type="curve" smooth="yes"/>
      <point x="104" y="530"/>
      <point x="67" y="493"/>
      <point x="40" y="445" type="curve" smooth="yes"/>
      <point x="13" y="397"/>
      <point x="0" y="347"/>
      <point x="0" y="296" type="curve" smooth="yes"/>
      <point x="0" y="244"/>
      <point x="13" y="194"/>
      <point x="39" y="146" type="curve" smooth="yes"/>
      <point x="66" y="98"/>
      <point x="103" y="61"/>
      <point x="150" y="35" type="curve" smooth="yes"/>
      <point x="198" y="9"/>
      <point x="248" y="-4"/>
      <point x="299" y="-4" type="curve" smooth="yes"/>
      <point x="403" y="-4"/>
      <point x="506" y="50"/>
      <point x="559" y="146" type="curve" smooth="yes"/>
      <point x="585" y="194"/>
      <point x="599" y="244"/>
      <point x="599" y="296" type="curve" smooth="yes"/>
      <point x="599" y="347"/>
      <point x="585" y="397"/>
      <point x="558" y="445" type="curve" smooth="yes"/>
      <point x="531" y="493"/>
      <point x="494" y="530"/>
      <point x="446" y="556" type="curve" smooth="yes"/>
      <point x="399" y="582"/>
      <point x="350" y="595"/>
    </contour>
  </outline>
</glyph>
<glyph name="registered" format="1">
  <advance width="672"/>
  <unicode hex="00AE"/>
  <outline>
    <contour>
      <point x="233" y="452" type="line" name="hr00"/>
      <point x="246" y="457"/>
      <point x="258" y="459"/>
      <point x="268" y="459" type="curve" smooth="yes"/>
      <point x="319" y="459"/>
      <point x="354" y="423"/>
      <point x="354" y="378" type="curve"/>
      <point x="348" y="334"/>
      <point x="330" y="301"/>
      <point x="233" y="302" type="curve"/>
    </contour>
    <contour>
      <point x="134" y="461" type="line"/>
      <point x="159" y="461"/>
      <point x="166" y="455"/>
      <point x="170" y="442" type="curve" smooth="yes"/>
      <point x="171" y="439"/>
      <point x="171" y="427"/>
      <point x="171" y="406" type="curve" smooth="yes"/>
      <point x="171" y="185" type="line" smooth="yes"/>
      <point x="171" y="164"/>
      <point x="170" y="151"/>
      <point x="169" y="146" type="curve"/>
      <point x="164" y="134"/>
      <point x="156" y="127"/>
      <point x="128" y="127" type="curve"/>
      <point x="128" y="114" type="line"/>
      <point x="283" y="114" type="line"/>
      <point x="283" y="127" type="line"/>
      <point x="246" y="127"/>
      <point x="237" y="135"/>
      <point x="233" y="154" type="curve"/>
      <point x="233" y="284" type="line"/>
      <point x="264" y="284" type="line"/>
      <point x="389" y="114" type="line"/>
      <point x="465" y="114" type="line"/>
      <point x="465" y="127" type="line"/>
      <point x="456" y="128"/>
      <point x="450" y="130"/>
      <point x="445" y="134" type="curve" smooth="yes"/>
      <point x="436" y="140"/>
      <point x="426" y="150"/>
      <point x="415" y="163" type="curve"/>
      <point x="328" y="289" type="line"/>
      <point x="393" y="306"/>
      <point x="421" y="341"/>
      <point x="421" y="382" type="curve" smooth="yes"/>
      <point x="421" y="437"/>
      <point x="379" y="477"/>
      <point x="296" y="477" type="curve" smooth="yes"/>
      <point x="134" y="477" type="line"/>
    </contour>
    <contour>
      <point x="298" y="565" type="curve" smooth="yes"/>
      <point x="390" y="565"/>
      <point x="486" y="517"/>
      <point x="534" y="429" type="curve" smooth="yes"/>
      <point x="558" y="386"/>
      <point x="570" y="341"/>
      <point x="570" y="294" type="curve" smooth="yes"/>
      <point x="570" y="199"/>
      <point x="521" y="105"/>
      <point x="433" y="57" type="curve" smooth="yes"/>
      <point x="390" y="34"/>
      <point x="345" y="22"/>
      <point x="298" y="22" type="curve" smooth="yes"/>
      <point x="205" y="22"/>
      <point x="111" y="71"/>
      <point x="62" y="158" type="curve" smooth="yes"/>
      <point x="38" y="201"/>
      <point x="26" y="247"/>
      <point x="26" y="294" type="curve" smooth="yes"/>
      <point x="26" y="341"/>
      <point x="38" y="386"/>
      <point x="63" y="429" type="curve" smooth="yes"/>
      <point x="88" y="473"/>
      <point x="121" y="507"/>
      <point x="164" y="530" type="curve" smooth="yes"/>
      <point x="207" y="553"/>
      <point x="252" y="565"/>
    </contour>
    <contour>
      <point x="298" y="592" type="curve" smooth="yes"/>
      <point x="249" y="592"/>
      <point x="200" y="579"/>
      <point x="152" y="553" type="curve" smooth="yes"/>
      <point x="104" y="528"/>
      <point x="67" y="491"/>
      <point x="40" y="443" type="curve" smooth="yes"/>
      <point x="13" y="395"/>
      <point x="0" y="345"/>
      <point x="0" y="294" type="curve" smooth="yes"/>
      <point x="0" y="190"/>
      <point x="55" y="87"/>
      <point x="150" y="35" type="curve" smooth="yes"/>
      <point x="198" y="9"/>
      <point x="247" y="-4"/>
      <point x="298" y="-4" type="curve" smooth="yes"/>
      <point x="349" y="-4"/>
      <point x="399" y="9"/>
      <point x="446" y="35" type="curve" smooth="yes"/>
      <point x="494" y="61"/>
      <point x="531" y="98"/>
      <point x="557" y="145" type="curve" smooth="yes"/>
      <point x="583" y="192"/>
      <point x="596" y="242"/>
      <point x="596" y="294" type="curve" smooth="yes"/>
      <point x="596" y="345"/>
      <point x="583" y="395"/>
      <point x="556" y="443" type="curve" smooth="yes"/>
      <point x="530" y="491"/>
      <point x="493" y="528"/>
      <point x="445" y="553" type="curve" smooth="yes"/>
      <point x="397" y="579"/>
      <point x="348" y="592"/>
    </contour>
  </outline>
</glyph>
<glyph name="onequarter" format="1">
  <advance width="803"/>
  <unicode hex="00BC"/>
  <outline>
    <contour>
      <point x="217" y="279" type="line" name="hr00"/>
      <point x="217" y="669" type="line"/>
      <point x="165" y="669" type="line"/>
      <point x="160" y="616"/>
      <point x="132" y="596"/>
      <point x="65" y="596" type="curve" smooth="yes"/>
      <point x="55" y="596" type="line"/>
      <point x="55" y="559" type="line"/>
      <point x="69" y="559" type="line" smooth="yes"/>
      <point x="95" y="559"/>
      <point x="112" y="560"/>
      <point x="121" y="561" type="curve" smooth="yes"/>
      <point x="130" y="563"/>
      <point x="143" y="564"/>
      <point x="160" y="564" type="curve"/>
      <point x="160" y="279" type="line"/>
    </contour>
    <contour>
      <point x="224" y="-27" type="line"/>
      <point x="663" y="678" type="line"/>
      <point x="594" y="678" type="line"/>
      <point x="154" y="-27" type="line"/>
    </contour>
    <contour>
      <point x="742" y="-8" type="line"/>
      <point x="742" y="86" type="line"/>
      <point x="798" y="86" type="line"/>
      <point x="798" y="131" type="line"/>
      <point x="742" y="131" type="line"/>
      <point x="742" y="372" type="line"/>
      <point x="686" y="372" type="line"/>
      <point x="502" y="126" type="line"/>
      <point x="502" y="86" type="line"/>
      <point x="685" y="86" type="line"/>
      <point x="685" y="-8" type="line"/>
    </contour>
    <contour>
      <point x="564" y="131" type="line"/>
      <point x="685" y="294" type="line"/>
      <point x="685" y="131" type="line"/>
    </contour>
  </outline>
</glyph>
<glyph name="onehalf" format="1">
  <advance width="803"/>
  <unicode hex="00BD"/>
  <outline>
    <contour>
      <point x="217" y="279" type="line" name="hr00"/>
      <point x="217" y="669" type="line"/>
      <point x="165" y="669" type="line"/>
      <point x="160" y="616"/>
      <point x="132" y="596"/>
      <point x="65" y="596" type="curve" smooth="yes"/>
      <point x="55" y="596" type="line"/>
      <point x="55" y="559" type="line"/>
      <point x="69" y="559" type="line" smooth="yes"/>
      <point x="95" y="559"/>
      <point x="112" y="560"/>
      <point x="121" y="561" type="curve" smooth="yes"/>
      <point x="130" y="563"/>
      <point x="143" y="564"/>
      <point x="160" y="564" type="curve"/>
      <point x="160" y="279" type="line"/>
    </contour>
    <contour>
      <point x="224" y="-27" type="line"/>
      <point x="663" y="678" type="line"/>
      <point x="594" y="678" type="line"/>
      <point x="154" y="-27" type="line"/>
    </contour>
    <contour>
      <point x="793" y="-8" type="line"/>
      <point x="793" y="38" type="line"/>
      <point x="559" y="38" type="line"/>
      <point x="562" y="57"/>
      <point x="585" y="86"/>
      <point x="645" y="118" type="curve" smooth="yes"/>
      <point x="677" y="135" type="line" smooth="yes"/>
      <point x="717" y="156"/>
      <point x="745" y="172"/>
      <point x="758" y="185" type="curve" smooth="yes"/>
      <point x="782" y="210"/>
      <point x="794" y="237"/>
      <point x="794" y="266" type="curve" smooth="yes"/>
      <point x="794" y="338"/>
      <point x="741" y="382"/>
      <point x="656" y="382" type="curve" smooth="yes"/>
      <point x="567" y="382"/>
      <point x="515" y="338"/>
      <point x="511" y="245" type="curve"/>
      <point x="567" y="245" type="line"/>
      <point x="568" y="309"/>
      <point x="600" y="338"/>
      <point x="655" y="338" type="curve" smooth="yes"/>
      <point x="707" y="338"/>
      <point x="736" y="310"/>
      <point x="736" y="266" type="curve" smooth="yes"/>
      <point x="736" y="245"/>
      <point x="728" y="227"/>
      <point x="713" y="214" type="curve"/>
      <point x="703" y="203"/>
      <point x="681" y="189"/>
      <point x="647" y="172" type="curve" smooth="yes"/>
      <point x="630" y="163"/>
      <point x="617" y="157"/>
      <point x="608" y="153" type="curve"/>
      <point x="531" y="110"/>
      <point x="501" y="67"/>
      <point x="501" y="12" type="curve" smooth="yes"/>
      <point x="501" y="-8" type="line"/>
    </contour>
  </outline>
</glyph>
<glyph name="threequarters" format="1">
  <advance width="802"/>
  <unicode hex="00BE"/>
  <outline>
    <contour>
      <point x="19" y="394" type="line" smooth="yes" name="hr00"/>
      <point x="19" y="317"/>
      <point x="74" y="268"/>
      <point x="165" y="268" type="curve" smooth="yes"/>
      <point x="256" y="268"/>
      <point x="311" y="314"/>
      <point x="311" y="389" type="curve" smooth="yes"/>
      <point x="311" y="415"/>
      <point x="303" y="437"/>
      <point x="290" y="454" type="curve" smooth="yes"/>
      <point x="276" y="472"/>
      <point x="265" y="482"/>
      <point x="255" y="483" type="curve"/>
      <point x="268" y="492"/>
      <point x="296" y="525"/>
      <point x="296" y="565" type="curve" smooth="yes"/>
      <point x="296" y="629"/>
      <point x="248" y="669"/>
      <point x="168" y="669" type="curve" smooth="yes"/>
      <point x="85" y="669"/>
      <point x="37" y="628"/>
      <point x="32" y="544" type="curve"/>
      <point x="88" y="544" type="line"/>
      <point x="89" y="601"/>
      <point x="117" y="626"/>
      <point x="168" y="626" type="curve" smooth="yes"/>
      <point x="211" y="626"/>
      <point x="239" y="601"/>
      <point x="239" y="565" type="curve" smooth="yes"/>
      <point x="239" y="524"/>
      <point x="210" y="502"/>
      <point x="151" y="502" type="curve" smooth="yes"/>
      <point x="127" y="502" type="line"/>
      <point x="127" y="458" type="line"/>
      <point x="144" y="461"/>
      <point x="145" y="460"/>
      <point x="154" y="460" type="curve" smooth="yes"/>
      <point x="221" y="460"/>
      <point x="252" y="437"/>
      <point x="252" y="389" type="curve" smooth="yes"/>
      <point x="252" y="341"/>
      <point x="220" y="314"/>
      <point x="164" y="314" type="curve" smooth="yes"/>
      <point x="109" y="314"/>
      <point x="80" y="341"/>
      <point x="77" y="402" type="curve"/>
      <point x="19" y="402" type="line"/>
    </contour>
    <contour>
      <point x="223" y="-27" type="line"/>
      <point x="663" y="678" type="line"/>
      <point x="593" y="678" type="line"/>
      <point x="154" y="-27" type="line"/>
    </contour>
    <contour>
      <point x="741" y="-8" type="line"/>
      <point x="741" y="86" type="line"/>
      <point x="797" y="86" type="line"/>
      <point x="797" y="131" type="line"/>
      <point x="741" y="131" type="line"/>
      <point x="741" y="372" type="line"/>
      <point x="685" y="372" type="line"/>
      <point x="501" y="126" type="line"/>
      <point x="501" y="86" type="line"/>
      <point x="685" y="86" type="line"/>
      <point x="685" y="-8" type="line"/>
    </contour>
    <contour>
      <point x="565" y="131" type="line"/>
      <point x="685" y="294" type="line"/>
      <point x="685" y="131" type="line"/>
    </contour>
  </outline>
</glyph>
<glyph name="multiply" format="1">
  <advance width="522"/>
  <unicode hex="00D7"/>
  <outline>
    <contour>
      <point x="113" y="19" type="line" name="hr00"/>
      <point x="257" y="162" type="line"/>
      <point x="401" y="19" type="line"/>
      <point x="442" y="61" type="line"/>
      <point x="300" y="206" type="line"/>
      <point x="444" y="351" type="line"/>
      <point x="402" y="393" type="line"/>
      <point x="257" y="249" type="line"/>
      <point x="113" y="393" type="line"/>
      <point x="69" y="351" type="line"/>
      <point x="214" y="206" type="line"/>
      <point x="70" y="61" type="line"/>
    </contour>
  </outline>
</glyph>
<glyph name="divide" format="1">
  <advance width="642"/>
  <unicode hex="00F7"/>
  <outline>
    <contour>
      <point x="265" y="61" type="curve" smooth="yes" name="hr00"/>
      <point x="265" y="33"/>
      <point x="288" y="8"/>
      <point x="319" y="8" type="curve" smooth="yes"/>
      <point x="348" y="8"/>
      <point x="372" y="33"/>
      <point x="372" y="61" type="curve" smooth="yes"/>
      <point x="372" y="92"/>
      <point x="348" y="115"/>
      <point x="319" y="115" type="curve" smooth="yes"/>
      <point x="288" y="115"/>
      <point x="265" y="92"/>
    </contour>
    <contour>
      <point x="265" y="393" type="curve" smooth="yes"/>
      <point x="265" y="361"/>
      <point x="288" y="340"/>
      <point x="319" y="340" type="curve" smooth="yes"/>
      <point x="348" y="340"/>
      <point x="372" y="361"/>
      <point x="372" y="393" type="curve" smooth="yes"/>
      <point x="372" y="424"/>
      <point x="348" y="447"/>
      <point x="319" y="447" type="curve" smooth="yes"/>
      <point x="288" y="447"/>
      <point x="265" y="424"/>
    </contour>
    <contour>
      <point x="69" y="192" type="line"/>
      <point x="567" y="192" type="line"/>
      <point x="567" y="254" type="line"/>
      <point x="69" y="254" type="line"/>
    </contour>
  </outline>
</glyph>
<glyph name="uni0950" format="1">
  <advance width="798"/>
  <unicode hex="0950"/>
  <outline>
    <contour>
      <point x="366" y="695" type="line" name="hr00"/>
      <point x="413" y="646" type="line"/>
      <point x="461" y="691" type="line"/>
      <point x="413" y="740" type="line"/>
    </contour>
    <contour>
      <point x="276" y="647" type="line"/>
      <point x="320" y="578"/>
      <point x="375" y="544"/>
      <point x="440" y="544" type="curve" smooth="yes"/>
      <point x="483" y="544"/>
      <point x="526" y="566"/>
      <point x="567" y="611" type="curve"/>
      <point x="504" y="662" type="line"/>
      <point x="476" y="623"/>
      <point x="442" y="604"/>
      <point x="403" y="604" type="curve" smooth="yes"/>
      <point x="362" y="604"/>
      <point x="327" y="623"/>
      <point x="296" y="662" type="curve"/>
    </contour>
    <contour>
      <point x="524" y="403" type="curve"/>
      <point x="543" y="442"/>
      <point x="573" y="461"/>
      <point x="613" y="461" type="curve" smooth="yes"/>
      <point x="672" y="461"/>
      <point x="712" y="403"/>
      <point x="712" y="320" type="curve" smooth="yes"/>
      <point x="712" y="232"/>
      <point x="666" y="167"/>
      <point x="606" y="167" type="curve" smooth="yes"/>
      <point x="570" y="167"/>
      <point x="552" y="197"/>
      <point x="552" y="257" type="curve" smooth="yes"/>
      <point x="552" y="286" type="line"/>
      <point x="552" y="343" type="line" smooth="yes"/>
      <point x="552" y="374"/>
      <point x="543" y="394"/>
    </contour>
    <contour>
      <point x="37" y="343" type="line"/>
      <point x="46" y="246"/>
      <point x="76" y="165"/>
      <point x="130" y="99" type="curve" smooth="yes"/>
      <point x="183" y="34"/>
      <point x="247" y="1"/>
      <point x="320" y="1" type="curve" smooth="yes"/>
      <point x="411" y="1"/>
      <point x="469" y="57"/>
      <point x="469" y="140" type="curve" smooth="yes"/>
      <point x="469" y="190"/>
      <point x="448" y="244"/>
      <point x="405" y="301" type="curve"/>
      <point x="437" y="322"/>
      <point x="463" y="333"/>
      <point x="483" y="333" type="curve" smooth="yes"/>
      <point x="506" y="333"/>
      <point x="518" y="310"/>
      <point x="518" y="264" type="curve" smooth="yes"/>
      <point x="518" y="229" type="line" smooth="yes"/>
      <point x="518" y="136"/>
      <point x="542" y="102"/>
      <point x="602" y="102" type="curve" smooth="yes"/>
      <point x="693" y="102"/>
      <point x="746" y="189"/>
      <point x="746" y="325" type="curve" smooth="yes"/>
      <point x="746" y="460"/>
      <point x="706" y="528"/>
      <point x="622" y="528" type="curve" smooth="yes"/>
      <point x="559" y="528"/>
      <point x="520" y="489"/>
      <point x="505" y="411" type="curve"/>
      <point x="498" y="412"/>
      <point x="493" y="412"/>
      <point x="489" y="412" type="curve" smooth="yes"/>
      <point x="450" y="412"/>
      <point x="410" y="392"/>
      <point x="368" y="351" type="curve"/>
      <point x="351" y="366" type="line"/>
      <point x="360" y="383"/>
      <point x="364" y="401"/>
      <point x="364" y="420" type="curve" smooth="yes"/>
      <point x="364" y="508"/>
      <point x="305" y="569"/>
      <point x="218" y="569" type="curve" smooth="yes"/>
      <point x="185" y="569"/>
      <point x="154" y="562"/>
      <point x="125" y="548" type="curve"/>
      <point x="156" y="473" type="line"/>
      <point x="193" y="493"/>
      <point x="228" y="503"/>
      <point x="261" y="503" type="curve" smooth="yes"/>
      <point x="306" y="503"/>
      <point x="330" y="482"/>
      <point x="330" y="445" type="curve" smooth="yes"/>
      <point x="330" y="394"/>
      <point x="293" y="358"/>
      <point x="220" y="337" type="curve"/>
      <point x="251" y="261" type="line"/>
      <point x="284" y="276"/>
      <point x="312" y="301"/>
      <point x="336" y="334" type="curve"/>
      <point x="383" y="286"/>
      <point x="406" y="233"/>
      <point x="406" y="175" type="curve" smooth="yes"/>
      <point x="406" y="144"/>
      <point x="395" y="117"/>
      <point x="374" y="94" type="curve" smooth="yes"/>
      <point x="353" y="72"/>
      <point x="328" y="61"/>
      <point x="298" y="61" type="curve" smooth="yes"/>
      <point x="241" y="61"/>
      <point x="191" y="88"/>
      <point x="147" y="142" type="curve" smooth="yes"/>
      <point x="104" y="196"/>
      <point x="75" y="266"/>
      <point x="62" y="351" type="curve"/>
    </contour>
  </outline>
</glyph>
<glyph name="uni0951" format="1">
  <advance width="0"/>
  <unicode hex="0951"/>
  <outline>
    <contour>
      <point x="-213" y="1409" type="line" name="hr00"/>
      <point x="-273" y="1409" type="line"/>
      <point x="-273" y="971" type="line"/>
      <point x="-213" y="971" type="line"/>
    </contour>
  </outline>
</glyph>
<glyph name="uni0952" format="1">
  <advance width="0"/>
  <unicode hex="0952"/>
  <outline>
    <contour>
      <point x="-61" y="-378" type="line" name="hr00"/>
      <point x="-675" y="-378" type="line"/>
      <point x="-675" y="-432" type="line"/>
      <point x="-61" y="-432" type="line"/>
    </contour>
  </outline>
</glyph>
